<svg width="131" height="179" viewBox="0 0 131 179" fill="none" xmlns="http://www.w3.org/2000/svg">
<path d="M3.35867 74.0136V73.1646C5.33962 73.1646 6.81119 72.7684 7.77336 71.9761C8.79214 71.1271 9.44302 70.0517 9.72602 68.7499C10.0656 67.4482 10.2354 66.0332 10.2354 64.505V17.981C10.2354 15.9434 9.58452 14.302 8.28275 13.0569C7.03758 11.8117 5.39622 11.1891 3.35867 11.1891V10.3401H12.0183C14.9048 10.3401 17.1121 10.0288 18.6403 9.40626C20.0553 8.78367 21.0457 8.01959 21.6117 7.11401H22.4607V39.3752C23.9889 36.3755 26.2245 34.0267 29.1677 32.3287C32.1108 30.5742 35.252 29.6969 38.5913 29.6969C41.2515 29.6969 43.5154 30.3195 45.3832 31.5646C47.2509 32.7532 48.6659 34.3663 49.6281 36.4038C50.6468 38.4414 51.1562 40.7336 51.1562 43.2805V66.3728C51.1562 68.4669 51.7788 70.1366 53.024 71.3818C54.3258 72.5703 55.9954 73.1646 58.033 73.1646V74.0136H32.1391V73.1646C34.1766 73.1646 35.818 72.5703 37.0632 71.3818C38.3649 70.1366 39.0158 68.4669 39.0158 66.3728V42.4316C39.0158 41.1864 38.846 39.8563 38.5064 38.4414C38.1668 36.9698 37.5443 35.7246 36.6387 34.7059C35.7897 33.6305 34.5728 33.0928 32.9881 33.0928C31.5165 33.0928 30.1015 33.5456 28.7432 34.4512C27.4414 35.3001 26.2528 36.3755 25.1774 37.6773C24.1021 38.979 23.1965 40.2808 22.4607 41.5826V64.505C22.4607 66.0332 22.6022 67.4482 22.8852 68.7499C23.2248 70.0517 23.8757 71.1271 24.8379 71.9761C25.8566 72.7684 27.3565 73.1646 29.3374 73.1646V74.0136H3.35867ZM55.3991 74.0136V73.1646H55.484C57.5216 73.1646 59.1629 72.542 60.4081 71.2969C61.6533 70.0517 62.2759 68.4103 62.2759 66.3728V38.5263C62.2759 36.3755 61.8231 34.7059 60.9175 33.5173C60.0685 32.3287 58.2291 31.7344 55.3991 31.7344V30.8854H64.0587C66.9453 30.8854 69.1526 30.5741 70.6808 29.9516C72.0957 29.329 73.0862 28.5649 73.6522 27.6593H74.5012V66.3728C74.5012 68.4103 75.1238 70.0517 76.3689 71.2969C77.6141 72.542 79.2555 73.1646 81.293 73.1646H81.3779V74.0136H55.3991ZM68.3036 22.3107C66.2661 22.3107 64.5681 21.6599 63.2097 20.3581C61.908 18.9997 61.2571 17.3018 61.2571 15.2642C61.2571 13.2267 61.908 11.557 63.2097 10.2552C64.5681 8.89687 66.2661 8.21769 68.3036 8.21769C70.2846 8.21769 71.9259 8.89687 73.2277 10.2552C74.5861 11.6136 75.2653 13.2833 75.2653 15.2642C75.2653 17.2452 74.5861 18.9148 73.2277 20.2732C71.9259 21.6316 70.2846 22.3107 68.3036 22.3107ZM111.111 77.2397L111.027 65.1842C109.668 68.1274 107.631 70.5611 104.914 72.4854C102.197 74.3532 99.2823 75.2871 96.1694 75.2871C93.1131 75.2871 90.368 74.3249 87.9343 72.4005C85.5006 70.4762 83.5762 67.8444 82.1612 64.505C80.7463 61.1091 80.0388 57.2887 80.0388 53.0438C80.0388 48.2895 80.9161 44.1578 82.6706 40.6487C84.4818 37.1396 86.9721 34.4512 90.1416 32.5834C93.3112 30.659 96.9618 29.6969 101.093 29.6969C103.414 29.6969 105.31 30.0648 106.782 30.8005C108.253 31.4797 109.583 32.6683 110.772 34.3663V17.981C110.772 15.9434 110.121 14.302 108.819 13.0569C107.574 11.8117 105.933 11.1891 103.895 11.1891V10.3401H112.555C115.385 10.3401 117.535 10.0571 119.007 9.49115C120.479 8.92517 121.526 8.13279 122.148 7.11401H122.997V66.3728C122.997 68.4103 123.62 70.0517 124.865 71.2969C126.11 72.542 127.78 73.1646 129.874 73.1646V74.0136H121.214C118.724 74.0136 116.743 74.2683 115.271 74.7777C113.856 75.2871 112.753 76.1078 111.96 77.2397H111.111ZM100.839 71.8912C102.141 71.8912 103.442 71.495 104.744 70.7026C106.102 69.8536 107.319 68.7499 108.395 67.3916C109.47 66.0332 110.262 64.5899 110.772 63.0618V42.3467C110.489 38.9507 109.64 36.234 108.225 34.1965C106.867 32.1589 105.084 31.1401 102.876 31.1401C99.9332 31.1401 97.641 33.0079 95.9996 36.7434C94.4148 40.4789 93.6225 45.9973 93.6225 53.2985C93.6225 65.6936 96.0279 71.8912 100.839 71.8912ZM18.3637 160.202C14.9112 160.202 12.1379 159.268 10.0437 157.401C7.94957 155.533 6.9025 153.071 6.9025 150.014C6.9025 148.713 7.12889 147.496 7.58168 146.364C8.03447 145.175 8.88345 144.015 10.1286 142.883C11.4304 141.751 13.2132 140.591 15.4772 139.402C17.7411 138.157 20.7409 136.855 24.4764 135.497L32.3719 132.61V126.243C32.3719 123.017 31.8625 120.47 30.8437 118.602C29.8249 116.678 28.41 115.716 26.5988 115.716C24.4481 115.772 22.6086 117.187 21.0805 119.961C19.6089 122.734 18.6184 126.583 18.109 131.507L8.94005 126.243C9.90223 123.922 11.3738 121.885 13.3547 120.13C15.3357 118.376 17.5996 117.017 20.1466 116.055C22.7501 115.093 25.4669 114.612 28.2968 114.612C33.1077 114.612 37.013 115.97 40.0127 118.687C43.069 121.347 44.5972 124.998 44.5972 129.639V150.099C44.5972 153.382 45.7009 155.023 47.9082 155.023C49.21 155.023 50.4835 154.316 51.7286 152.901L52.4078 153.495C50.9362 155.476 49.1534 157.089 47.0592 158.334C44.9651 159.58 42.9275 160.202 40.9466 160.202C38.7958 160.202 36.9281 159.466 35.3433 157.995C33.8152 156.523 32.853 154.571 32.4568 152.137C29.6835 154.967 27.2497 157.033 25.1556 158.334C23.118 159.58 20.8541 160.202 18.3637 160.202ZM24.7311 154.939C25.9762 154.939 27.1648 154.627 28.2968 154.005C29.4854 153.382 30.8154 152.363 32.287 150.948L32.3719 133.714L28.976 134.987C26.0894 136.063 23.8821 137.167 22.3539 138.299C20.8258 139.374 19.7504 140.591 19.1278 141.949C18.5618 143.307 18.2788 144.864 18.2788 146.619C18.2788 149.052 18.8731 151.062 20.0617 152.646C21.3069 154.174 22.8633 154.939 24.7311 154.939ZM47.367 178.031C45.0464 178.031 42.8108 177.578 40.66 176.672L43.9711 166.739C45.386 167.305 46.9142 167.786 48.5556 168.183C50.2535 168.579 51.9515 168.777 53.6494 168.777C55.8002 168.777 57.8094 168.324 59.6772 167.419C61.6015 166.57 63.0448 164.956 64.007 162.579L64.9409 160.287L48.1311 121.319C47.5651 119.961 46.8293 118.885 45.9237 118.093C44.9615 117.244 43.6598 116.791 42.0184 116.734V115.885H66.5539V116.734C65.0258 116.904 63.8372 117.442 62.9882 118.347C62.1958 119.253 61.7996 120.413 61.7996 121.828C61.7996 123.073 62.0826 124.347 62.6486 125.649L71.2233 145.77L79.798 125.649C80.364 124.347 80.647 123.073 80.647 121.828C80.647 120.413 80.2225 119.253 79.3735 118.347C78.5811 117.442 77.3926 116.904 75.8078 116.734V115.885H87.5237V116.734C86.222 117.017 85.1183 117.866 84.2127 119.281C83.3071 120.64 82.345 122.507 81.3262 124.885L64.007 165.126C62.1958 169.315 59.847 172.512 56.9605 174.72C54.0739 176.927 50.8761 178.031 47.367 178.031ZM94.0622 160.202C90.6097 160.202 87.8363 159.268 85.7422 157.401C83.648 155.533 82.601 153.071 82.601 150.014C82.601 148.713 82.8274 147.496 83.2802 146.364C83.7329 145.175 84.5819 144.015 85.8271 142.883C87.1289 141.751 88.9117 140.591 91.1757 139.402C93.4396 138.157 96.4393 136.855 100.175 135.497L108.07 132.61V126.243C108.07 123.017 107.561 120.47 106.542 118.602C105.523 116.678 104.108 115.716 102.297 115.716C100.147 115.772 98.3071 117.187 96.7789 119.961C95.3074 122.734 94.3169 126.583 93.8075 131.507L84.6385 126.243C85.6007 123.922 87.0723 121.885 89.0532 120.13C91.0342 118.376 93.2981 117.017 95.8451 116.055C98.4486 115.093 101.165 114.612 103.995 114.612C108.806 114.612 112.711 115.97 115.711 118.687C118.768 121.347 120.296 124.998 120.296 129.639V150.099C120.296 153.382 121.399 155.023 123.607 155.023C124.908 155.023 126.182 154.316 127.427 152.901L128.106 153.495C126.635 155.476 124.852 157.089 122.758 158.334C120.664 159.58 118.626 160.202 116.645 160.202C114.494 160.202 112.627 159.466 111.042 157.995C109.514 156.523 108.551 154.571 108.155 152.137C105.382 154.967 102.948 157.033 100.854 158.334C98.8165 159.58 96.5525 160.202 94.0622 160.202ZM100.43 154.939C101.675 154.939 102.863 154.627 103.995 154.005C105.184 153.382 106.514 152.363 107.985 150.948L108.07 133.714L104.674 134.987C101.788 136.063 99.5806 137.167 98.0524 138.299C96.5242 139.374 95.4489 140.591 94.8263 141.949C94.2603 143.307 93.9773 144.864 93.9773 146.619C93.9773 149.052 94.5716 151.062 95.7602 152.646C97.0053 154.174 98.5618 154.939 100.43 154.939Z" fill="black"/>
<line x1="127.822" y1="93.3128" x2="2.26945" y2="93.3128" stroke="black" stroke-width="2.65306"/>
</svg>
