<svg width="342" height="340" viewBox="0 0 342 340" fill="none" xmlns="http://www.w3.org/2000/svg">
<g filter="url(#filter0_d_1145_1685)">
<path d="M151.117 18.748C83.9601 27.1187 30.7327 80.3227 22.3584 147.45M188.233 18.748C255.39 27.1187 308.617 80.3227 316.991 147.45M151.117 313.252C83.9601 304.881 30.7327 251.677 22.3584 184.55M188.233 313.252C255.39 304.881 308.617 251.677 316.991 184.55" stroke="#E1B791" stroke-width="4" stroke-dasharray="8 8"/>
</g>
<path d="M316.506 174.081V163.899H323.367V165.674H318.659V168.1H323.014V169.875H318.659V172.306H323.387V174.081H316.506Z" fill="#E09132"/>
<path d="M173.928 13.8182V24H172.069L167.639 17.5916H167.564V24H165.412V13.8182H167.301L171.696 20.2216H171.785V13.8182H173.928Z" fill="#E09132"/>
<path d="M169.791 318.131C169.073 318.131 168.429 318.015 167.859 317.781C167.29 317.548 166.833 317.203 166.487 316.745C166.151 316.288 165.974 315.737 165.955 315.093H168.503C168.541 315.457 168.667 315.737 168.881 315.933C169.096 316.12 169.376 316.213 169.721 316.213C170.076 316.213 170.356 316.134 170.561 315.975C170.767 315.807 170.869 315.579 170.869 315.289C170.869 315.047 170.785 314.846 170.617 314.687C170.459 314.529 170.258 314.398 170.015 314.295C169.782 314.193 169.446 314.076 169.007 313.945C168.373 313.749 167.855 313.553 167.453 313.357C167.052 313.161 166.707 312.872 166.417 312.489C166.128 312.107 165.983 311.607 165.983 310.991C165.983 310.077 166.315 309.363 166.977 308.849C167.64 308.327 168.503 308.065 169.567 308.065C170.65 308.065 171.523 308.327 172.185 308.849C172.848 309.363 173.203 310.081 173.249 311.005H170.659C170.641 310.688 170.524 310.441 170.309 310.263C170.095 310.077 169.819 309.983 169.483 309.983C169.194 309.983 168.961 310.063 168.783 310.221C168.606 310.371 168.517 310.59 168.517 310.879C168.517 311.197 168.667 311.444 168.965 311.621C169.264 311.799 169.731 311.99 170.365 312.195C171 312.41 171.513 312.615 171.905 312.811C172.307 313.007 172.652 313.292 172.941 313.665C173.231 314.039 173.375 314.519 173.375 315.107C173.375 315.667 173.231 316.176 172.941 316.633C172.661 317.091 172.251 317.455 171.709 317.725C171.168 317.996 170.529 318.131 169.791 318.131Z" fill="#E09132"/>
<path d="M18.0169 171.517L15.1036 161.335H17.4552L19.1405 168.409H19.225L21.0844 161.335H23.0979L24.9523 168.424H25.0418L26.7272 161.335H29.0787L26.1654 171.517H24.0674L22.1284 164.86H22.0489L20.115 171.517H18.0169Z" fill="#E09132"/>
<defs>
<filter id="filter0_d_1145_1685" x="0.374023" y="0.763428" width="338.602" height="338.473" filterUnits="userSpaceOnUse" color-interpolation-filters="sRGB">
<feFlood flood-opacity="0" result="BackgroundImageFix"/>
<feColorMatrix in="SourceAlpha" type="matrix" values="0 0 0 0 0 0 0 0 0 0 0 0 0 0 0 0 0 0 127 0" result="hardAlpha"/>
<feOffset dy="4"/>
<feGaussianBlur stdDeviation="10"/>
<feComposite in2="hardAlpha" operator="out"/>
<feColorMatrix type="matrix" values="0 0 0 0 0 0 0 0 0 0 0 0 0 0 0 0 0 0 0.25 0"/>
<feBlend mode="normal" in2="BackgroundImageFix" result="effect1_dropShadow_1145_1685"/>
<feBlend mode="normal" in="SourceGraphic" in2="effect1_dropShadow_1145_1685" result="shape"/>
</filter>
</defs>
</svg>
