<svg width="366" height="248" viewBox="0 0 366 248" fill="none" xmlns="http://www.w3.org/2000/svg">
<path d="M14.8569 125.842C29.4665 98.1418 63.4951 94.7986 87.1006 100.326C121.4 108.357 132.489 111.572 185.281 104.737C238.074 97.9027 249.611 40.4805 297.978 53.2153C346.346 65.9496 326.017 94.3396 352.071 121.814C356.812 126.814 360.139 131.919 362.408 136.925C371.54 157.073 356.751 179.92 334.631 179.92H47.7076C19.941 179.92 1.90335 150.402 14.8569 125.842ZM66.3884 20.7507C45.8599 87.3903 192.974 117.365 242.837 50.2949C273.195 9.46113 235.647 -6.26081 174.952 11.7135C133.937 23.8599 80.4317 -24.8371 66.3884 20.7507Z" fill="#FBE4CF"/>
<path d="M230.797 29.8416H48.8931V137.215H230.797V29.8416Z" fill="#AD7F55"/>
<path d="M226.367 132.786L226.367 34.2714L53.3224 34.2714L53.3224 132.786L226.367 132.786Z" fill="#E9C7AA"/>
<path d="M226.367 67.1054V34.2717H64.9756C66.4615 85.2069 171.229 107.768 226.367 67.1054Z" fill="#F5D3B3"/>
<path d="M226.367 86.5883C215.364 95.1795 202.698 102.55 185.803 104.737C133.01 111.571 121.921 108.356 87.6221 100.325C77.3437 97.9186 65.0899 97.1951 53.3228 99.4305V132.786H226.367V86.5883Z" fill="#E9C7AA"/>
<path d="M53.3226 29.8421H48.8931V137.216H53.3226H144.338V135.697V132.786V34.2717V33.0034V29.8416L53.3226 29.8421ZM139.909 132.786H53.3226V34.2717H139.908L139.909 132.786Z" fill="#AD7F55"/>
<path d="M144.338 34.2717H139.909V132.786H144.338V34.2717Z" fill="#E5B181"/>
<path d="M148.922 128.921H32.9824L33.6465 187.277H148.257L148.922 128.921Z" fill="#E1B791"/>
<path d="M87.6225 134.003H37.9697V182.195H87.6225V134.003Z" fill="#E9C7AA"/>
<path d="M143.477 134.003H92.8799V156.083H143.477V134.003Z" fill="#E9C7AA"/>
<path d="M143.477 160.114H92.8799V182.195H143.477V160.114Z" fill="#E9C7AA"/>
<path d="M40.3357 197.619C39.0289 197.619 37.9697 196.56 37.9697 195.253V187.277H42.7011V195.253C42.7017 196.56 41.6425 197.619 40.3357 197.619Z" fill="#4C2E6D"/>
<path d="M141.111 197.619C139.804 197.619 138.745 196.56 138.745 195.253V187.277H143.477V195.253C143.477 196.56 142.417 197.619 141.111 197.619Z" fill="#4C2E6D"/>
<path d="M81.0652 158.099C81.0652 157.268 80.392 156.595 79.5612 156.595C78.7303 156.595 78.0571 157.268 78.0571 158.099C78.0571 158.93 78.7303 159.603 79.5612 159.603C80.392 159.603 81.0652 158.93 81.0652 158.099Z" stroke="#4C2E6D" stroke-miterlimit="10" stroke-linecap="round" stroke-linejoin="round"/>
<path d="M152.93 123.897H28.9736V128.921H152.93V123.897Z" fill="#E1B791"/>
<path d="M148.893 131.421L148.922 128.921H32.9824L33.0022 130.653L148.893 131.421Z" fill="#F2C39A"/>
<path d="M118.178 140.224C119.009 140.224 119.682 139.551 119.682 138.72C119.682 137.889 119.009 137.216 118.178 137.216C117.347 137.216 116.674 137.889 116.674 138.72C116.674 139.551 117.347 140.224 118.178 140.224Z" stroke="#4C2E6D" stroke-miterlimit="10" stroke-linecap="round" stroke-linejoin="round"/>
<path d="M118.178 166.9C119.009 166.9 119.682 166.227 119.682 165.396C119.682 164.566 119.009 163.892 118.178 163.892C117.347 163.892 116.674 164.566 116.674 165.396C116.674 166.227 117.347 166.9 118.178 166.9Z" stroke="#4C2E6D" stroke-miterlimit="10" stroke-linecap="round" stroke-linejoin="round"/>
<path d="M62.7956 218.669C55.9826 231.449 90.3678 242.794 134.821 244.371C179.275 245.948 198.259 235.814 195.222 222.172C191.191 204.065 152.112 213.879 133.01 212.827C113.909 211.776 71.2659 202.78 62.7956 218.669Z" fill="#FDDCC5"/>
<path d="M75.5303 220.889C71.2307 232.264 113.5 237.537 134.822 237.888C156.143 238.238 189.587 233.914 183.804 222.173C178.021 210.432 151.411 220.831 133.011 218.669C114.61 216.507 79.8067 209.573 75.5303 220.889Z" stroke="#E9C7AA" stroke-miterlimit="10" stroke-linecap="round" stroke-linejoin="round"/>
<path d="M59.5244 223.079L62.5619 222.583" stroke="#E9C7AA" stroke-miterlimit="10" stroke-linecap="round" stroke-linejoin="round"/>
<path d="M59.8159 218.26L62.9121 219.194" stroke="#E9C7AA" stroke-miterlimit="10" stroke-linecap="round" stroke-linejoin="round"/>
<path d="M64.0806 213.061L66.0079 215.339" stroke="#E9C7AA" stroke-miterlimit="10" stroke-linecap="round" stroke-linejoin="round"/>
<path d="M72.8433 209.498L74.128 211.834" stroke="#E9C7AA" stroke-miterlimit="10" stroke-linecap="round" stroke-linejoin="round"/>
<path d="M79.7358 208.446L80.8453 210.608" stroke="#E9C7AA" stroke-miterlimit="10" stroke-linecap="round" stroke-linejoin="round"/>
<path d="M93.5806 206.986L95.5079 210.082" stroke="#E9C7AA" stroke-miterlimit="10" stroke-linecap="round" stroke-linejoin="round"/>
<path d="M107.775 208.388L107.542 211.192" stroke="#E9C7AA" stroke-miterlimit="10" stroke-linecap="round" stroke-linejoin="round"/>
<path d="M113.617 211.834L113.441 209.206" stroke="#E9C7AA" stroke-miterlimit="10" stroke-linecap="round" stroke-linejoin="round"/>
<path d="M128.746 210.491V213.47" stroke="#E9C7AA" stroke-miterlimit="10" stroke-linecap="round" stroke-linejoin="round"/>
<path d="M136.106 210.082L136.807 213.762" stroke="#E9C7AA" stroke-miterlimit="10" stroke-linecap="round" stroke-linejoin="round"/>
<path d="M144.459 208.855L144.869 212.944" stroke="#E9C7AA" stroke-miterlimit="10" stroke-linecap="round" stroke-linejoin="round"/>
<path d="M158.363 207.804L158.129 211.718" stroke="#E9C7AA" stroke-miterlimit="10" stroke-linecap="round" stroke-linejoin="round"/>
<path d="M167.65 211.426L169.11 208.797" stroke="#E9C7AA" stroke-miterlimit="10" stroke-linecap="round" stroke-linejoin="round"/>
<path d="M175.712 211.659L177.698 209.03" stroke="#E9C7AA" stroke-miterlimit="10" stroke-linecap="round" stroke-linejoin="round"/>
<path d="M184.006 213.061L186.401 210.432" stroke="#E9C7AA" stroke-miterlimit="10" stroke-linecap="round" stroke-linejoin="round"/>
<path d="M188.914 215.106L192.535 213.002" stroke="#E9C7AA" stroke-miterlimit="10" stroke-linecap="round" stroke-linejoin="round"/>
<path d="M194.112 220.187L197.734 219.37" stroke="#E9C7AA" stroke-miterlimit="10" stroke-linecap="round" stroke-linejoin="round"/>
<path d="M194.93 226.088L198.085 226.789" stroke="#E9C7AA" stroke-miterlimit="10" stroke-linecap="round" stroke-linejoin="round"/>
<path d="M191.834 232.397L194.58 235.142" stroke="#E9C7AA" stroke-miterlimit="10" stroke-linecap="round" stroke-linejoin="round"/>
<path d="M187.395 235.843L188.914 238.764" stroke="#E9C7AA" stroke-miterlimit="10" stroke-linecap="round" stroke-linejoin="round"/>
<path d="M178.34 239.815L180.034 243.028" stroke="#E9C7AA" stroke-miterlimit="10" stroke-linecap="round" stroke-linejoin="round"/>
<path d="M170.162 241.509L171.447 245.014" stroke="#E9C7AA" stroke-miterlimit="10" stroke-linecap="round" stroke-linejoin="round"/>
<path d="M159.531 242.852L159.998 246.474" stroke="#E9C7AA" stroke-miterlimit="10" stroke-linecap="round" stroke-linejoin="round"/>
<path d="M148.549 243.67L148.782 246.708" stroke="#E9C7AA" stroke-miterlimit="10" stroke-linecap="round" stroke-linejoin="round"/>
<path d="M138.676 243.495L138.092 247" stroke="#E9C7AA" stroke-miterlimit="10" stroke-linecap="round" stroke-linejoin="round"/>
<path d="M132.368 243.554L132.134 246.825" stroke="#E9C7AA" stroke-miterlimit="10" stroke-linecap="round" stroke-linejoin="round"/>
<path d="M124.599 243.086L123.723 246.007" stroke="#E9C7AA" stroke-miterlimit="10" stroke-linecap="round" stroke-linejoin="round"/>
<path d="M116.303 242.21L115.077 246.066" stroke="#E9C7AA" stroke-miterlimit="10" stroke-linecap="round" stroke-linejoin="round"/>
<path d="M104.387 240.107L103.511 244.371" stroke="#E9C7AA" stroke-miterlimit="10" stroke-linecap="round" stroke-linejoin="round"/>
<path d="M92.9375 238.822C92.9375 238.822 91.0684 242.969 91.0684 242.794" stroke="#E9C7AA" stroke-miterlimit="10" stroke-linecap="round" stroke-linejoin="round"/>
<path d="M83.0073 236.077L80.9624 239.582" stroke="#E9C7AA" stroke-miterlimit="10" stroke-linecap="round" stroke-linejoin="round"/>
<path d="M75.7051 233.681L72.6089 236.953" stroke="#E9C7AA" stroke-miterlimit="10" stroke-linecap="round" stroke-linejoin="round"/>
<path d="M64.314 232.046L68.6955 230.118" stroke="#E9C7AA" stroke-miterlimit="10" stroke-linecap="round" stroke-linejoin="round"/>
<path d="M64.6644 226.73L61.627 228.249" stroke="#E9C7AA" stroke-miterlimit="10" stroke-linecap="round" stroke-linejoin="round"/>
<path d="M108.196 226.153C104.135 230.863 130.705 236.71 136.295 230.648C141.884 224.588 113.785 219.669 108.196 226.153Z" fill="#F2C39A"/>
<path d="M195.23 168.35C195.23 168.35 196.272 145.217 210.682 130.439C225.092 115.659 239.696 125.59 233.153 138.033C226.611 150.475 217.031 149.423 212.592 173.257L195.23 168.35Z" fill="#D5A67B"/>
<path d="M224.644 131.665C222.755 133.651 208.423 148.138 203.498 170.686" stroke="#4C2E6D" stroke-miterlimit="10" stroke-linecap="round" stroke-linejoin="round"/>
<path d="M184.669 170.453C184.669 170.453 177.075 160.989 180.814 150.241C184.552 139.493 188.291 141.713 189.81 126.875C191.328 112.038 199.156 110.519 203.245 110.402C207.335 110.285 212.709 111.103 209.905 128.628C207.101 146.152 201.844 146.502 203.128 160.989C204.414 175.476 189.693 177.346 184.669 170.453Z" fill="#FBCFA7"/>
<path d="M200.441 122.903C200.441 122.903 191.582 152.815 190.813 174.135" stroke="#4C2E6D" stroke-miterlimit="10" stroke-linecap="round" stroke-linejoin="round"/>
<path d="M178.127 170.686C178.127 169.635 177.776 155.353 172.753 142.749C167.729 130.146 167.028 121.15 172.753 118.346C178.477 115.542 188.428 123.37 190.813 145.451C193.198 167.532 192.614 170.686 192.614 170.686H178.127Z" fill="#ECB064"/>
<path d="M176.608 126.641C176.608 126.641 185.838 150.708 186.189 170.686" stroke="#4C2E6D" stroke-miterlimit="10" stroke-linecap="round" stroke-linejoin="round"/>
<path d="M169.751 168.437C169.751 168.437 167.389 160.78 163.864 152.518C160.339 144.256 166.882 139.301 170.737 142.936C174.592 146.571 177.115 156.044 178.492 166.949L169.751 168.437Z" fill="#FBCFA7"/>
<path d="M168.154 148.775C168.154 148.775 172.779 157.643 173.303 167.749" stroke="#4C2E6D" stroke-miterlimit="10" stroke-linecap="round" stroke-linejoin="round"/>
<path d="M211.204 166.554C211.204 166.554 214.071 155.421 221.894 150.651C227.256 147.381 229.852 150.148 228.537 153.652C227.223 157.157 221.385 158.813 217.863 167.891L211.204 166.554Z" fill="#ECB064"/>
<path d="M222.858 154.242C222.858 154.242 218.617 158.446 214.691 167.253" stroke="#4C2E6D" stroke-miterlimit="10" stroke-linecap="round" stroke-linejoin="round"/>
<path d="M163.557 158.812C165.099 161.249 166.952 164.644 168.63 168.972" stroke="#4C2E6D" stroke-miterlimit="10" stroke-linecap="round" stroke-linejoin="round"/>
<path d="M179.408 153.266C179.408 153.266 175.913 164.11 180.207 174.518" stroke="#4C2E6D" stroke-miterlimit="10" stroke-linecap="round" stroke-linejoin="round"/>
<path d="M215.717 151.789C215.717 151.789 210.372 156.431 208.532 167.254" stroke="#4C2E6D" stroke-miterlimit="10" stroke-linecap="round" stroke-linejoin="round"/>
<path d="M198.732 150.952C198.732 150.952 200.93 160.56 198.55 166.673" stroke="#4C2E6D" stroke-miterlimit="10" stroke-linecap="round" stroke-linejoin="round"/>
<path d="M219.134 166.364L214.578 194.286C185.02 203.049 170.649 194.753 170.649 194.753L166.093 167.999C166.093 167.999 189.576 160.989 219.134 166.364Z" fill="#E9C7AA"/>
<path d="M197.013 193.936C185.936 195.979 175.197 193.63 170.218 192.219L170.65 194.753C170.65 194.753 185.02 203.049 214.578 194.286L215.798 186.813C213.465 188.572 207.838 191.938 197.013 193.936Z" fill="#E5B181"/>
<path d="M168.585 182.632C168.585 182.632 195.366 188.562 216.479 182.632" stroke="#9A724D" stroke-miterlimit="10" stroke-linecap="round" stroke-linejoin="round"/>
<path d="M166.955 173.059L167.414 175.754C167.414 175.754 196.034 180.412 217.602 175.754L218.135 172.489C212.955 173.03 188.548 175.327 166.955 173.059Z" fill="#AD7F55"/>
<path d="M18.0141 176.276C19.3433 176.276 20.4208 175.198 20.4208 173.869C20.4208 172.54 19.3433 171.462 18.0141 171.462C16.6849 171.462 15.6074 172.54 15.6074 173.869C15.6074 175.198 16.6849 176.276 18.0141 176.276Z" stroke="#4C2E6D" stroke-miterlimit="10" stroke-linecap="round" stroke-linejoin="round"/>
<path d="M61.3046 9.23846C61.3046 7.90908 60.2273 6.83179 58.8979 6.83179C57.5685 6.83179 56.4912 7.90908 56.4912 9.23846C56.4912 10.5678 57.5685 11.6451 58.8979 11.6451C60.2267 11.6451 61.3046 10.5673 61.3046 9.23846Z" stroke="#4C2E6D" stroke-miterlimit="10" stroke-linecap="round" stroke-linejoin="round"/>
<path d="M265.584 41.2961C266.913 41.2961 267.991 40.2186 267.991 38.8895C267.991 37.5603 266.913 36.4828 265.584 36.4828C264.255 36.4828 263.177 37.5603 263.177 38.8895C263.177 40.2186 264.255 41.2961 265.584 41.2961Z" stroke="#4C2E6D" stroke-miterlimit="10" stroke-linecap="round" stroke-linejoin="round"/>
<path d="M332.018 41.2961C332.018 39.9668 330.941 38.8895 329.611 38.8895C328.282 38.8895 327.205 39.9668 327.205 41.2961C327.205 42.6255 328.282 43.7028 329.611 43.7028C330.94 43.7034 332.018 42.6255 332.018 41.2961Z" stroke="#4C2E6D" stroke-miterlimit="10" stroke-linecap="round" stroke-linejoin="round"/>
<path d="M183.22 11.6451C183.22 10.3158 182.143 9.23846 180.813 9.23846C179.484 9.23846 178.407 10.3158 178.407 11.6451C178.407 12.9745 179.484 14.0518 180.813 14.0518C182.142 14.0518 183.22 12.974 183.22 11.6451Z" stroke="#4C2E6D" stroke-miterlimit="10" stroke-linecap="round" stroke-linejoin="round"/>
<path d="M269.792 107.586C269.792 106.257 268.715 105.18 267.385 105.18C266.056 105.18 264.979 106.257 264.979 107.586C264.979 108.916 266.056 109.993 267.385 109.993C268.714 109.993 269.792 108.916 269.792 107.586Z" stroke="#4C2E6D" stroke-miterlimit="10" stroke-linecap="round" stroke-linejoin="round"/>
<path d="M3.40667 87.3457C4.73584 87.3457 5.81334 86.2682 5.81334 84.939C5.81334 83.6098 4.73584 82.5323 3.40667 82.5323C2.0775 82.5323 1 83.6098 1 84.939C1 86.2682 2.0775 87.3457 3.40667 87.3457Z" stroke="#4C2E6D" stroke-miterlimit="10" stroke-linecap="round" stroke-linejoin="round"/>
<path d="M340.122 157.596C341.451 157.596 342.528 156.518 342.528 155.189C342.528 153.86 341.451 152.783 340.122 152.783C338.792 152.783 337.715 153.86 337.715 155.189C337.715 156.518 338.792 157.596 340.122 157.596Z" stroke="#4C2E6D" stroke-miterlimit="10" stroke-linecap="round" stroke-linejoin="round"/>
<path d="M354.557 230.118C355.886 230.118 356.964 229.041 356.964 227.712C356.964 226.382 355.886 225.305 354.557 225.305C353.228 225.305 352.15 226.382 352.15 227.712C352.15 229.041 353.228 230.118 354.557 230.118Z" stroke="#4C2E6D" stroke-miterlimit="10" stroke-linecap="round" stroke-linejoin="round"/>
<path d="M32.9819 228.845C34.311 228.845 35.3885 227.767 35.3885 226.438C35.3885 225.109 34.311 224.031 32.9819 224.031C31.6527 224.031 30.5752 225.109 30.5752 226.438C30.5752 227.767 31.6527 228.845 32.9819 228.845Z" stroke="#4C2E6D" stroke-miterlimit="10" stroke-linecap="round" stroke-linejoin="round"/>
<circle cx="215.496" cy="235.142" r="0.565212" fill="#4C2E6D"/>
<circle cx="321.904" cy="137.88" r="0.565212" fill="#4C2E6D"/>
<circle cx="34.0252" cy="75.1382" r="0.565212" fill="#4C2E6D"/>
<circle cx="359.753" cy="80.8875" r="0.565212" fill="#4C2E6D"/>
<circle cx="149.561" cy="17.6318" r="0.565212" fill="#4C2E6D"/>
<circle cx="22.2376" cy="30.6741" r="0.565212" fill="#4C2E6D"/>
<circle cx="23.9441" cy="133.587" r="0.565212" fill="#4C2E6D"/>
<circle cx="342.529" cy="200.352" r="0.565212" fill="#4C2E6D"/>
<circle cx="323.074" cy="84.939" r="0.565212" fill="#4C2E6D"/>
<circle cx="300.989" cy="17.6318" r="0.565212" fill="#4C2E6D"/>
<circle cx="345.889" cy="126.409" r="0.565212" fill="#4C2E6D"/>
<circle cx="279.697" cy="75.1382" r="0.565212" fill="#4C2E6D"/>
<circle cx="247.448" cy="143.823" r="0.565212" fill="#4C2E6D"/>
<circle cx="235.291" cy="244.663" r="0.565212" fill="#4C2E6D"/>
<circle cx="3.40603" cy="217.212" r="0.565212" fill="#4C2E6D"/>
<circle cx="223.22" cy="20.554" r="0.565212" fill="#4C2E6D"/>
<path d="M174.863 73.403C174.863 73.403 167.881 69.0028 172.313 62.9291C172.313 62.9291 169.639 56.0182 176.579 50.3254C183.518 44.6332 189.15 50.1841 189.15 50.1841C189.15 50.1841 195.036 46.7697 198.965 52.7298C202.894 58.69 199.189 65.1831 194.347 65.4963L174.863 73.403Z" fill="#4C2E6D"/>
<path d="M170.142 77.8416L177.654 67.7645C177.654 67.7645 174.679 66.083 176.197 62.4272C177.715 58.7714 182.638 61.065 182.087 64.4014C181.535 67.7385 182.747 68.4405 183.707 67.2659C184.666 66.0914 185.516 62.2067 187.728 63.6458C189.938 65.0848 192.341 64.8429 193.78 63.0811C193.78 63.0811 195.103 63.011 195.375 64.2991C195.375 64.2991 193.571 68.6049 195.238 72.4489C195.238 72.4489 194.507 73.1515 193.435 72.7615C193.435 72.7615 193.195 77.9586 188.219 78.0146C184.763 78.0536 180.706 75.8764 180.706 75.8764L175.857 83.7334L170.142 77.8416Z" fill="#FFDCC3"/>
<path d="M176.999 73.1718C176.999 73.1718 176.571 76.4156 178.721 79.0907L180.705 75.8758C177.362 74.0626 176.999 73.1718 176.999 73.1718Z" fill="#EBB792"/>
<path d="M187.047 73.5505C187.261 72.0844 186.245 70.7233 184.78 70.5097C183.313 70.296 181.952 71.3117 181.739 72.7773C181.526 74.2435 182.541 75.6045 184.007 75.8176C185.473 76.0312 186.834 75.0161 187.047 73.5505Z" fill="#EBB792"/>
<path d="M191.411 73.364C191.411 73.364 189.796 73.9665 188.083 72.1895" stroke="#4C2E6D" stroke-miterlimit="10" stroke-linecap="round" stroke-linejoin="round"/>
<path d="M190.585 67.0178C190.585 67.0178 192.658 66.2847 193.04 68.1635" stroke="#4C2E6D" stroke-miterlimit="10" stroke-linecap="round" stroke-linejoin="round"/>
<path d="M177.389 63.6678C177.389 63.6678 177.784 61.9756 180.185 62.9166" stroke="#4C2E6D" stroke-miterlimit="10" stroke-linecap="round" stroke-linejoin="round"/>
<path d="M179.158 65.0622C179.158 65.0622 178.149 64.1019 178.564 62.6578" stroke="#4C2E6D" stroke-miterlimit="10" stroke-linecap="round" stroke-linejoin="round"/>
<path d="M141.111 68.3619C145.749 73.7088 150.017 79.2614 153.398 84.7592L168.118 80.3195L169.404 75.8221C169.404 75.8221 161.686 68.1934 152.354 59.8486C149.655 61.2894 145.556 63.9215 141.111 68.3619Z" fill="#ECB064"/>
<path d="M143.547 68.974C143.547 68.974 148.876 65.061 152.667 62.1914" stroke="#F4CA9D" stroke-miterlimit="10" stroke-linecap="round" stroke-linejoin="round"/>
<path d="M169.404 75.8221C169.404 75.8221 168.291 74.7222 166.402 72.9034C158.54 72.3834 152.284 78.0722 150.324 80.0923C151.409 81.6483 152.442 83.206 153.398 84.7592L168.118 80.3195L169.404 75.8221Z" fill="#E6994B"/>
<path d="M105.614 25.0593L107.425 18.5605L102.43 18.8674C102.429 18.8685 84.1908 30.6147 76.8589 54.7442L81.4298 64.8982L91.7618 58.4232C94.732 40.3584 105.614 25.0593 105.614 25.0593Z" fill="#FFDCC3"/>
<path d="M97.0033 23.1902C95.9503 24.1391 94.7922 25.2458 93.5708 26.5113L94.5916 27.6842C94.5916 27.6842 92.1425 29.8421 96.6162 30.1067C96.6162 30.1067 97.4306 32.3161 101.188 32.3409C101.916 31.0065 102.598 29.828 103.199 28.8281L97.0033 23.1902Z" fill="#FFB987"/>
<path d="M129.213 178.603L121.182 174.66L114.8 178.603C115.715 191.16 116.722 205.474 117.764 221.187L121.532 225.568L124.686 221.157L129.213 178.603Z" fill="#FFDCC3"/>
<path d="M111.193 21.3204C111.456 16.3256 109.397 7.08159 107.381 7.12568C105.366 7.1692 102.431 18.8668 102.431 18.8668C102.431 18.8668 105.556 19.2755 105.615 25.0587C105.615 25.0587 110.93 26.3152 111.193 21.3204Z" fill="#4C2E6D"/>
<path d="M131.989 227.029C132.134 225.539 124.687 221.158 124.687 221.158C121.211 223.553 117.765 221.187 117.765 221.187C117.765 221.187 115.924 224.926 116.684 226.24C117.443 227.554 122.028 227.438 124.511 227.847C126.994 228.255 131.843 228.518 131.989 227.029Z" fill="#4C2E6D"/>
<path d="M91.244 71.674C90.7935 67.2128 91.0529 62.7392 91.7623 58.4226L76.8588 54.7437C75.1004 60.5298 73.9671 67.0246 73.8654 74.2441C73.3398 111.571 110.404 122.349 110.404 122.349C110.404 122.349 112.253 143.68 114.8 178.603H129.214L134.822 127.636V108.242L123.957 97.6071C123.957 97.6071 93.5806 94.8065 91.244 71.674Z" fill="#4C2E6D"/>
<path d="M77.4956 58.3543C77.4956 58.3543 84.8891 60.5236 89.8681 61.169" stroke="#5B3E7F" stroke-miterlimit="10" stroke-linecap="round" stroke-linejoin="round"/>
<path d="M116.551 176.155C116.551 176.155 124.117 176.639 127.843 176.155" stroke="#5B3E7F" stroke-miterlimit="10" stroke-linecap="round" stroke-linejoin="round"/>
<path d="M119.683 100.308C119.683 100.308 119.309 115.521 130.712 128.416" stroke="#5B3E7F" stroke-miterlimit="10" stroke-linecap="round" stroke-linejoin="round"/>
<path d="M83.6815 63.4869C81.9299 69.0498 79.8087 74.3972 83.6815 79.0907C89.8677 86.5883 84.9131 91.6334 92.1422 96.4411C98.919 100.948 104.889 98.0853 115.906 103.79" stroke="#5B3E7F" stroke-miterlimit="10" stroke-linecap="round" stroke-linejoin="round"/>
<path d="M123.956 123.897C120.277 128.921 118.712 134.592 123.296 140.225C127.88 145.857 121.172 150.553 120.473 156.595C119.892 161.612 127.412 164.077 123.957 173.136" stroke="#5B3E7F" stroke-miterlimit="10" stroke-linecap="round" stroke-linejoin="round"/>
<path d="M123.956 97.6065C123.956 97.6065 123.956 114.433 134.821 127.636C134.821 127.636 170.008 112.746 176.831 93.0871C181.807 78.7465 169.987 72.7547 163.941 75.9968C157.895 79.2388 140.75 89.3997 123.956 97.6065Z" fill="#ECB064"/>
<path d="M98.2942 29.8415C96.3787 28.5043 94.2366 29.1232 94.0184 28.155C93.7556 26.9867 96.2527 26.7956 96.3403 26.8188L98.2942 29.8415Z" fill="#FFB987"/>
<path d="M131.871 43.2263C117.267 33.2956 103.636 26.0959 103.636 26.0959C101.27 21.0576 99.7142 20.2912 98.6629 20.6196C98.0214 20.8196 98.0276 21.4521 98.0276 21.4521C98.0276 21.4521 97.1736 21.0361 96.757 21.4521C96.341 21.8681 96.6259 22.4819 96.6259 22.4819C96.6259 22.4819 96.1223 22.1095 95.5085 22.6351C94.8952 23.1607 95.3112 23.9492 95.3112 23.9492C95.3112 23.9492 94.7856 23.9713 94.4351 24.4528C94.0847 24.935 94.6759 26.0959 96.2969 28.3737C97.918 30.6521 100.481 30.6735 100.481 30.6735C100.481 30.6735 123.474 48.0278 141.111 68.3613L152.354 59.8481C145.601 53.8094 138.002 47.3953 131.871 43.2263Z" fill="#FFDCC3"/>
<path d="M130.094 42.0281C116.18 32.7219 103.636 26.0959 103.636 26.0959C101.27 21.0576 99.7142 20.2912 98.6629 20.6196C98.0214 20.8196 98.0276 21.4521 98.0276 21.4521C98.0276 21.4521 97.1736 21.0361 96.757 21.4521C96.341 21.8681 96.6259 22.4819 96.6259 22.4819C96.6259 22.4819 96.1223 22.1095 95.5085 22.6351C94.8952 23.1607 95.3112 23.9492 95.3112 23.9492C95.3112 23.9492 94.7856 23.9713 94.4351 24.4528C94.1661 24.823 94.4521 25.5929 95.3327 26.9618C95.3327 26.9618 95.7911 27.6542 95.9691 27.9085" stroke="#4C2E6D" stroke-miterlimit="10" stroke-linecap="round" stroke-linejoin="round"/>
<path d="M100.481 30.6741C100.481 30.6741 98.5905 30.6583 97.0299 29.2108L97.0305 29.2091C95.5355 28.6987 94.1886 28.9118 94.0179 28.155C93.8659 27.479 94.6374 27.1302 95.3315 26.9607" stroke="#4C2E6D" stroke-miterlimit="10" stroke-linecap="round" stroke-linejoin="round"/>
<path d="M251.18 99.634C250.742 97.9474 248.12 98.1226 248.12 98.1226C245.601 95.7849 241.285 98.2175 241.285 98.2175C241.285 98.2175 224.608 98.8014 207.96 93.8072C201.33 91.8182 195.476 89.4511 190.379 87.0133L186.055 91.3163L185.072 100.308C193.551 102.979 203.542 104.946 214.269 106.337C235.211 109.053 243.754 103.708 245.682 103.226C247.61 102.744 250.954 103.387 251.181 102.511C251.419 101.589 249.406 101.357 249.406 101.357C249.406 101.357 252.619 101.708 252.73 100.846C252.847 99.9188 251.18 99.634 251.18 99.634Z" fill="#FFDCC3"/>
<path d="M249.406 101.357C247.39 101.036 245.492 101.109 245.492 101.109" stroke="#4C2E6D" stroke-miterlimit="10" stroke-linecap="round" stroke-linejoin="round"/>
<path d="M251.179 99.634C248.423 99.006 245.199 99.634 245.199 99.634" stroke="#4C2E6D" stroke-miterlimit="10" stroke-linecap="round" stroke-linejoin="round"/>
<path d="M248.12 98.1226C246.026 98.1554 244.848 98.5386 244.848 98.5386" stroke="#4C2E6D" stroke-miterlimit="10" stroke-linecap="round" stroke-linejoin="round"/>
<path d="M214.269 106.337C235.211 109.053 243.754 103.708 245.682 103.226C247.61 102.744 250.954 103.387 251.18 102.511C251.418 101.589 249.406 101.357 249.406 101.357C249.406 101.357 252.619 101.708 252.729 100.846C252.849 99.9194 251.18 99.634 251.18 99.634C250.742 97.9474 248.121 98.1226 248.121 98.1226C245.602 95.7849 241.286 98.2175 241.286 98.2175" stroke="#4C2E6D" stroke-miterlimit="10" stroke-linecap="round" stroke-linejoin="round"/>
<path d="M190.378 87.0133C182.675 83.3304 176.699 79.4841 172.395 76.5292C166.164 72.2517 156.087 82.5911 165.638 90.6522C170.296 94.5838 176.998 97.7648 185.071 100.308C188.018 95.3491 189.652 89.8976 190.378 87.0133Z" fill="#ECB064"/>
<path d="M187.864 87.4559C187.864 87.4559 185.978 93.593 183.593 98.4374" stroke="#F4CA9D" stroke-miterlimit="10" stroke-linecap="round" stroke-linejoin="round"/>
<path d="M213.653 167.805C208.489 172.187 208.104 181.825 207.694 194.56C207.286 207.294 207.87 211.266 211.959 216.64C216.048 222.014 232.17 233.931 257.99 238.78C283.809 243.628 308.227 235.333 313.952 232.88C319.676 230.426 324.817 224.702 325.868 208.93C326.919 193.157 328.893 181.162 323.29 177.136C309.335 167.108 291.987 166.142 272.126 161.456C254.503 157.296 223.292 159.627 213.653 167.805Z" fill="#E9C7AA"/>
<path d="M313.951 232.879C319.676 230.426 324.816 224.701 325.868 208.929C326.597 197.991 328.405 185.604 325.694 180.202C325.918 184.038 322.732 186.03 322.732 186.03C322.732 186.03 324.427 209.016 319.47 218.22C314.512 227.424 287.575 239.457 251.235 230.075C223.295 222.862 211.565 209.172 207.633 203.227C207.866 209.561 208.985 212.731 211.958 216.639C216.048 222.013 232.17 233.93 257.989 238.778C283.809 243.628 308.227 235.333 313.951 232.879Z" fill="#E9C7AA"/>
<path d="M213.653 167.805C213.653 167.805 209.155 173.027 217.216 179.646C225.277 186.265 247.241 191.99 274.696 193.508C302.152 195.027 328.356 189.244 325.476 179.752" stroke="#E5B181" stroke-miterlimit="10" stroke-linecap="round" stroke-linejoin="round"/>
<path d="M213.185 177.444C213.185 177.444 212.835 175.4 214.879 174.932" stroke="#E5B181" stroke-miterlimit="10" stroke-linecap="round" stroke-linejoin="round"/>
<path d="M221.714 180.89C221.714 180.89 220.253 181.591 220.078 183.81" stroke="#E5B181" stroke-miterlimit="10" stroke-linecap="round" stroke-linejoin="round"/>
<path d="M231.412 185.096L230.535 188.367" stroke="#E5B181" stroke-miterlimit="10" stroke-linecap="round" stroke-linejoin="round"/>
<path d="M239.647 187.666C239.647 187.666 240.115 189.536 239.472 190.529" stroke="#E5B181" stroke-miterlimit="10" stroke-linecap="round" stroke-linejoin="round"/>
<path d="M256.238 190.003C256.238 190.003 256.822 192.047 256.121 193.8" stroke="#E5B181" stroke-miterlimit="10" stroke-linecap="round" stroke-linejoin="round"/>
<path d="M265.584 191.171C265.584 191.171 265.175 192.515 265.584 194.851" stroke="#E5B181" stroke-miterlimit="10" stroke-linecap="round" stroke-linejoin="round"/>
<path d="M278.903 191.872C278.903 191.872 279.604 193.274 279.37 195.844" stroke="#E5B181" stroke-miterlimit="10" stroke-linecap="round" stroke-linejoin="round"/>
<path d="M290.06 191.463C290.06 191.463 291.578 194.092 291.52 195.611" stroke="#E5B181" stroke-miterlimit="10" stroke-linecap="round" stroke-linejoin="round"/>
<path d="M299.289 190.879C299.289 190.879 301.1 192.807 300.983 195.144" stroke="#E5B181" stroke-miterlimit="10" stroke-linecap="round" stroke-linejoin="round"/>
<path d="M310.739 189.185C310.739 189.185 312.316 190.704 312.433 193.216" stroke="#E5B181" stroke-miterlimit="10" stroke-linecap="round" stroke-linejoin="round"/>
<path d="M319.384 186.031C319.384 186.031 322.071 187.549 321.896 190.003" stroke="#E5B181" stroke-miterlimit="10" stroke-linecap="round" stroke-linejoin="round"/>
<path d="M269.113 240.119C271.44 239.335 272.974 235.479 273.675 222.248C274.375 209.017 275.427 198.21 272.886 193.537" stroke="#E5B181" stroke-miterlimit="10" stroke-linecap="round" stroke-linejoin="round"/>
<path d="M215.866 178.44C213.477 180.014 213.636 190.441 213.162 201.745C212.689 213.048 212.878 218.776 218 222.264" stroke="#E5B181" stroke-miterlimit="10" stroke-linecap="round" stroke-linejoin="round"/>
<path d="M317.848 188.702C319.238 189.886 319.676 192.047 319.384 203.38C319.091 214.712 318.39 230.251 313.951 232.879" stroke="#E5B181" stroke-miterlimit="10" stroke-linecap="round" stroke-linejoin="round"/>
<path d="M231.5 170.375C227.331 172.584 230.616 175.643 239.472 178.597C248.328 181.551 267.426 188.333 276.436 188.016C285.446 187.7 306.104 178.002 306.464 176.187C306.824 174.373 281.383 165.528 273.129 164.372C264.875 163.216 240.779 165.46 231.5 170.375Z" fill="#E5B181"/>
<path d="M276.039 183.849L307.145 172.105L259.469 157.911L228.363 169.656L276.039 183.849Z" fill="#AD7F55"/>
<path d="M238.757 168.099L235.292 169.407L275.956 181.513L279.421 180.205L238.757 168.099Z" fill="#E1B791"/>
<path d="M285.351 177.966L299.011 172.808C299.4 172.661 299.38 172.104 298.981 171.985L262.718 161.189C260.665 160.578 258.467 160.657 256.463 161.414L242.803 166.571C242.413 166.718 242.433 167.276 242.832 167.394L279.095 178.19C281.149 178.801 283.347 178.722 285.351 177.966Z" fill="#E1B791"/>
<path d="M276.039 183.849L228.363 169.655V170.714C228.363 171.539 228.904 172.265 229.695 172.501L274.791 185.926C275.601 186.167 276.467 186.136 277.258 185.838L306.053 174.966C306.71 174.718 307.145 174.089 307.145 173.386V172.104L276.039 183.849Z" fill="#9A724D"/>
<path d="M261.778 122.003L259.469 157.911L307.145 172.105L309.524 135.107L262.895 121.225C262.359 121.065 261.813 121.445 261.778 122.003Z" fill="#DEBC9D"/>
<path d="M261.792 156.292L263.88 123.829L307.2 136.725L305.113 169.189L261.792 156.292Z" fill="#FFFAF5"/>
<path d="M307.566 172.105H307.146L309.524 135.107L310.212 135.371C310.745 135.575 311.084 136.101 311.051 136.672L308.999 170.756C308.953 171.514 308.325 172.105 307.566 172.105Z" fill="#AD7F55"/>
</svg>
