<svg width="363" height="244" viewBox="0 0 363 244" fill="none" xmlns="http://www.w3.org/2000/svg">
<path d="M341.847 132.248L327.576 189.946L340.099 171.985L341.847 132.248Z" fill="#FFE9D2"/>
<path d="M349.287 83.3763L310.287 243.06H41.3318L11.9116 162.439L54.9694 161.959L68.6236 53.6879L133.326 77.8085L239.075 0L288.509 88.2469L349.287 83.3763Z" fill="#FFE9D2"/>
<path d="M316.584 85.997L242.435 243.06L208.119 243.627L208.111 243.06L206.837 173.221L294.94 87.5013L316.584 85.997Z" fill="#E2B079"/>
<path d="M139.183 243.06H55.124L55.076 242.241L45.2617 162.068L54.9714 161.96L55.3171 159.102L137.509 228.6L139.183 243.06Z" fill="#E2B079"/>
<path d="M362.433 242.106H0V243.075H362.433V242.106Z" fill="#48393E"/>
<path d="M15.752 185.118L33.8521 235.189L22.1738 225.759L15.752 185.118Z" fill="#FFE9D2"/>
<path d="M84.9004 52.2606L115.028 62.4526V42.5151L108.654 53.2846L84.9004 52.2606Z" fill="#FFE9D2"/>
<path d="M55.8034 223.411C55.3386 223.411 54.882 223.341 54.4511 223.2C53.6344 222.932 52.8936 222.403 52.3238 221.694C50.2598 222.863 47.7916 223.336 45.4541 222.947L45.5335 222.47C47.7456 222.838 50.0792 222.396 52.0372 221.301C51.9282 221.136 51.828 220.963 51.7375 220.783C51.1502 219.62 51.0291 218.301 51.4053 217.164C51.6794 216.336 52.2952 215.606 53.0127 215.258C53.5187 215.011 54.0425 214.973 54.5267 215.149C55.5492 215.52 55.998 216.742 55.8416 217.709C55.707 218.541 55.22 219.352 54.3519 220.187C53.8605 220.66 53.3206 221.08 52.7435 221.443C53.2485 222.053 53.8939 222.508 54.6017 222.74C55.6175 223.073 56.8012 222.958 57.8494 222.425C58.8976 221.892 59.6873 221.004 60.017 219.986L60.4774 220.136C60.1085 221.274 59.2302 222.266 58.0683 222.857C57.3474 223.223 56.5655 223.411 55.8034 223.411ZM53.9123 215.525C53.6407 215.525 53.401 215.607 53.2243 215.693C52.6293 215.982 52.0962 216.619 51.8653 217.316C51.5293 218.332 51.6406 219.516 52.1698 220.565C52.2555 220.736 52.3509 220.899 52.454 221.054C53.0147 220.704 53.54 220.297 54.0164 219.839C54.806 219.079 55.2471 218.357 55.3638 217.632C55.4887 216.86 55.1483 215.889 54.3621 215.605C54.2067 215.548 54.0551 215.525 53.9123 215.525Z" fill="#F6B163"/>
<path d="M250.419 110.19C249.244 110.19 248.051 109.685 247.134 108.796C246.197 107.89 245.65 106.684 245.633 105.487C245.62 104.627 245.881 103.754 246.365 102.985C244.59 101.413 243.34 99.2333 242.947 96.8958L243.424 96.8155C243.796 99.0266 244.972 101.09 246.644 102.586C246.764 102.429 246.896 102.278 247.036 102.134C247.945 101.2 249.154 100.657 250.351 100.643C251.222 100.63 252.114 100.979 252.677 101.544C253.074 101.944 253.279 102.427 253.271 102.941C253.253 104.028 252.244 104.85 251.278 105.016C250.447 105.159 249.521 104.962 248.449 104.412C247.843 104.102 247.27 103.727 246.74 103.3C246.327 103.976 246.106 104.733 246.118 105.478C246.133 106.547 246.626 107.63 247.471 108.447C248.316 109.265 249.421 109.733 250.483 109.705L250.491 110.189C250.467 110.19 250.442 110.19 250.419 110.19ZM247.013 102.9C247.527 103.317 248.082 103.681 248.67 103.982C249.646 104.483 250.472 104.665 251.195 104.54C251.967 104.407 252.773 103.769 252.787 102.933C252.795 102.452 252.545 102.099 252.333 101.886C251.867 101.417 251.085 101.112 250.357 101.128C249.287 101.14 248.203 101.63 247.383 102.472C247.25 102.609 247.127 102.752 247.013 102.9Z" fill="white"/>
<path d="M39.4908 149.081L39.178 148.711C40.8885 147.261 42.0607 145.196 42.4911 142.994C42.2945 142.969 42.0975 142.935 41.9024 142.887C40.6348 142.583 39.5508 141.823 38.9272 140.8C38.4726 140.056 38.3138 139.114 38.5123 138.341C38.6527 137.795 38.9626 137.372 39.409 137.117C40.3521 136.577 41.5751 137.024 42.2122 137.769C42.7603 138.41 43.0638 139.306 43.1394 140.508C43.182 141.188 43.1529 141.872 43.0575 142.547C43.8428 142.549 44.6136 142.357 45.2483 141.968C46.159 141.408 46.8369 140.43 47.108 139.286C47.3791 138.142 47.2116 136.965 46.6485 136.055L47.0605 135.801C47.6904 136.819 47.8792 138.13 47.5791 139.398C47.2784 140.666 46.5217 141.753 45.502 142.38C44.7695 142.831 43.8888 143.056 42.9777 143.03C42.5337 145.359 41.2991 147.548 39.4908 149.081ZM40.339 137.36C40.1003 137.36 39.8645 137.414 39.6491 137.537C39.2318 137.776 39.0555 138.172 38.981 138.462C38.8164 139.103 38.9572 139.922 39.3402 140.549C39.8975 141.461 40.8726 142.143 42.0152 142.417C42.2006 142.462 42.3865 142.494 42.5724 142.516C42.6678 141.861 42.6969 141.198 42.6552 140.539C42.5865 139.445 42.3207 138.642 41.8433 138.084C41.4855 137.665 40.9045 137.36 40.339 137.36Z" fill="#E1B791"/>
<path d="M256.667 49.9556C256.621 49.9556 256.576 49.9551 256.53 49.9536C255.228 49.9197 254.009 49.4012 253.187 48.5322C252.595 47.9076 252.197 47.0894 252.033 46.1947C249.659 46.2368 247.267 45.4796 245.396 44.0242L245.693 43.6422C247.463 45.0186 249.733 45.7468 251.968 45.7119C251.951 45.5149 251.946 45.3149 251.952 45.114C251.99 43.8112 252.512 42.5935 253.384 41.7738C254.019 41.1769 254.904 40.8288 255.705 40.8631C256.268 40.8883 256.746 41.1047 257.088 41.4896C257.81 42.3025 257.623 43.5909 257.024 44.367C256.509 45.0346 255.694 45.5154 254.533 45.8359C253.877 46.0175 253.202 46.1288 252.522 46.1738C252.675 46.9504 253.026 47.6578 253.538 48.1991C254.273 48.9756 255.368 49.439 256.543 49.4695C257.718 49.5024 258.837 49.0952 259.611 48.3574L259.945 48.7084C259.108 49.5048 257.92 49.9556 256.667 49.9556ZM255.594 41.3454C254.955 41.3454 254.226 41.646 253.715 42.1268C252.936 42.8593 252.47 43.953 252.435 45.1281C252.429 45.3188 252.436 45.5076 252.453 45.694C253.112 45.6529 253.768 45.5454 254.405 45.3697C255.461 45.0782 256.192 44.6536 256.64 44.0716C257.118 43.4519 257.281 42.4371 256.725 41.8116C256.406 41.4524 255.982 41.3608 255.683 41.3473C255.654 41.3458 255.624 41.3454 255.594 41.3454Z" fill="#E1B791"/>
<path d="M40.5745 103.434C40.2439 100.925 41.9573 98.3313 44.3945 97.6511C44.7465 97.5528 45.1251 97.4812 45.4911 97.4115C46.5989 97.2013 47.6447 97.0028 48.0789 96.1381C48.3801 95.5383 48.2465 94.8372 48.1056 94.095C47.9715 93.3901 47.833 92.6614 48.0625 91.9633C48.3506 91.0884 49.162 90.4159 50.475 89.9647C50.689 89.8911 50.9074 89.8233 51.1257 89.7555C51.8834 89.5207 52.599 89.2985 53.1727 88.8327C53.593 88.4919 53.8893 87.9399 53.9295 87.4262C53.9483 87.1774 53.9159 86.8196 53.6511 86.5272L54.0103 86.2023C54.311 86.5354 54.4499 86.9711 54.4122 87.4635C54.3618 88.1128 54.004 88.7814 53.4782 89.2084C52.8319 89.7332 52.0379 89.9792 51.2695 90.2179C51.056 90.2842 50.8425 90.3505 50.6329 90.4222C49.4704 90.8216 48.7606 91.391 48.5229 92.1148C48.3322 92.6943 48.4532 93.331 48.582 94.0049C48.7316 94.7936 48.887 95.6089 48.5123 96.3555C47.971 97.4347 46.7562 97.6651 45.5822 97.8879C45.2258 97.9556 44.8574 98.0254 44.5252 98.1178C42.3117 98.7356 40.7551 101.092 41.0553 103.371L40.5745 103.434Z" fill="#E1B791"/>
<path d="M334.946 202.557C334.615 200.048 336.328 197.454 338.766 196.774C339.118 196.676 339.497 196.604 339.863 196.534C340.97 196.324 342.016 196.126 342.451 195.261C342.752 194.662 342.619 193.96 342.477 193.218C342.343 192.513 342.204 191.784 342.434 191.086C342.722 190.211 343.533 189.538 344.847 189.087C345.061 189.014 345.279 188.946 345.498 188.878C346.256 188.643 346.971 188.421 347.544 187.956C347.964 187.614 348.261 187.062 348.301 186.549C348.32 186.3 348.287 185.942 348.023 185.65L348.382 185.325C348.683 185.657 348.821 186.094 348.784 186.586C348.733 187.235 348.376 187.904 347.85 188.331C347.204 188.856 346.409 189.102 345.642 189.34C345.428 189.407 345.214 189.473 345.004 189.545C343.842 189.945 343.132 190.514 342.894 191.238C342.704 191.817 342.825 192.454 342.953 193.128C343.103 193.917 343.259 194.732 342.884 195.479C342.342 196.557 341.128 196.788 339.953 197.01C339.597 197.078 339.228 197.147 338.896 197.24C336.682 197.858 335.126 200.215 335.426 202.494L334.946 202.557Z" fill="#E1B791"/>
<path d="M330.561 120.432C330.516 120.432 330.47 120.43 330.424 120.427C329.774 120.384 329.102 120.032 328.67 119.511C328.138 118.87 327.884 118.079 327.637 117.313C327.569 117.1 327.501 116.887 327.426 116.678C327.014 115.52 326.438 114.816 325.712 114.586C325.131 114.401 324.496 114.529 323.823 114.664C323.037 114.822 322.223 114.986 321.472 114.619C320.388 114.089 320.145 112.876 319.91 111.704C319.839 111.349 319.765 110.981 319.669 110.65C319.028 108.443 316.657 106.91 314.38 107.234L314.312 106.755C316.815 106.4 319.428 108.085 320.134 110.516C320.235 110.866 320.311 111.244 320.384 111.609C320.606 112.715 320.815 113.759 321.685 114.184C322.288 114.479 322.987 114.338 323.728 114.19C324.43 114.048 325.159 113.902 325.859 114.125C326.737 114.403 327.418 115.208 327.882 116.517C327.958 116.73 328.029 116.948 328.098 117.165C328.341 117.921 328.571 118.634 329.042 119.202C329.387 119.619 329.942 119.91 330.456 119.945C330.708 119.96 331.063 119.924 331.353 119.657L331.681 120.013C331.383 120.288 330.997 120.432 330.561 120.432Z" fill="white"/>
<path d="M291.887 229.032C290.112 229.032 288.667 227.589 288.667 225.814C288.667 224.039 290.112 222.595 291.887 222.595C293.662 222.595 295.105 224.039 295.105 225.814C295.105 227.589 293.662 229.032 291.887 229.032ZM291.887 223.079C290.378 223.079 289.152 224.306 289.152 225.814C289.152 227.321 290.378 228.548 291.887 228.548C293.394 228.548 294.621 227.321 294.621 225.814C294.621 224.306 293.394 223.079 291.887 223.079Z" fill="#F6B163"/>
<path d="M24.9283 177.385L24.6626 177.79L36.1564 185.334L36.422 184.929L24.9283 177.385Z" fill="white"/>
<path d="M85.0394 72.9895L84.7632 73.3872L95.1992 80.6363L95.4754 80.2387L85.0394 72.9895Z" fill="#F6B163"/>
<path d="M105.711 72.8343H105.227V85.9975H105.711V72.8343Z" fill="#F6B163"/>
<path d="M229.598 234.775L229.124 234.674C229.341 233.662 228.289 232.562 228.279 232.551L228.626 232.214C228.678 232.266 229.869 233.509 229.598 234.775Z" fill="white"/>
<path d="M73.7151 105.908C73.7083 106.121 73.702 106.33 73.6952 106.543C72.8436 132.577 75.4469 152.882 79.9147 168.711L93.3035 177.099L82.274 175.354L81.9588 175.305C87.8858 192.706 96.1247 203.963 103.92 211.212C108.768 215.732 113.447 218.697 117.289 220.619C117.542 220.748 117.79 220.871 118.039 220.989C118.658 221.289 119.258 221.557 119.827 221.802L127.206 222.214C127.309 221.87 127.406 221.532 127.498 221.188C127.562 220.973 127.621 220.757 127.675 220.542C127.758 220.26 127.831 219.972 127.905 219.69C136.74 186.109 125.839 159.263 111.545 140.105C111.507 140.04 111.458 139.98 111.405 139.914C106.43 133.267 101.046 127.544 95.9499 122.796L92.6591 131.093L92.2296 119.452C83.3512 111.732 75.9606 107.221 74.145 106.156C73.8618 105.989 73.7151 105.908 73.7151 105.908Z" fill="#E1B791"/>
<path d="M73.4531 106.029L73.6952 106.543L88.7442 138.329L89.0148 138.891L93.1161 147.558L93.2565 147.847L106.338 175.476L106.357 175.513L127.675 220.542L127.997 221.216L128.505 222.286L129.149 222.322L128.646 221.252L127.905 219.69L106.867 175.255L106.475 174.431L74.144 106.156L73.9668 105.782L73.4531 106.029Z" fill="white"/>
<path d="M74.5983 134.737L74.3159 135.144L93.0653 148.134L93.3477 147.727L74.5983 134.737Z" fill="white"/>
<path d="M74.4967 128.46L74.2144 128.867L88.9112 139.05L89.1935 138.642L74.4967 128.46Z" fill="white"/>
<path d="M111.079 139.859L106.336 175.502L106.827 175.568L111.57 139.925L111.079 139.859Z" fill="white"/>
<path d="M129.337 235.829C129.337 235.829 111.44 243.182 87.3501 227.079L95.6069 223.671L82.4244 223.52C73.0739 216.233 62.9608 205.34 52.7103 189.204L55.8612 187.905L51.8645 187.857C50.1385 185.1 48.4086 182.191 46.6792 179.123C46.6792 179.123 54.0112 178.852 64.3828 180.598L69.3643 188.127L68.1936 181.313C89.3633 185.652 119.847 198.434 129.337 235.829Z" fill="#E1B791"/>
<path d="M46.8279 178.88L46.521 179.348L130.592 234.484L130.899 234.016L46.8279 178.88Z" fill="white"/>
<path d="M68.536 193.431L56.0601 194.07L56.0866 194.589L68.5625 193.951L68.536 193.431Z" fill="white"/>
<path d="M74.2802 197.089L59.6748 198.921L59.7396 199.437L74.345 197.606L74.2802 197.089Z" fill="white"/>
<path d="M110.559 202.913L111.02 202.445C104.079 195.604 95.4809 190.103 85.4662 186.097L85.2222 186.708C95.1546 190.68 103.68 196.133 110.559 202.913Z" fill="#3F3747"/>
<path d="M222.722 196.951C222.722 196.951 238.158 196.64 250.666 177.194L243.539 177.326L253.139 173.022C257.664 164.715 261.601 153.527 263.97 138.458L261.251 138.51L264.161 137.204C264.547 134.637 264.888 131.958 265.178 129.163C265.178 129.163 259.726 131.296 252.69 135.873L251.439 142.967L250.129 137.608C236.017 147.516 217.773 166.565 222.722 196.951Z" fill="#F6B163"/>
<path d="M264.995 129.032L221.007 196.125L221.381 196.37L265.369 129.277L264.995 129.032Z" fill="white"/>
<path d="M263.065 143.069L253.731 146.57L253.877 146.958L263.21 143.457L263.065 143.069Z" fill="white"/>
<path d="M261.947 147.801L250.675 151.105L250.792 151.504L262.064 148.199L261.947 147.801Z" fill="white"/>
<path d="M225.995 166.889L225.509 166.693C228.414 159.479 232.957 152.719 239.011 146.602L239.384 146.971C233.378 153.038 228.874 159.739 225.995 166.889Z" fill="#3F3747"/>
<path d="M227.871 24.8831V237.519C227.871 240.488 225.604 242.897 222.796 242.897H124.164C121.362 242.897 119.089 240.488 119.089 237.519V24.8831C119.089 21.908 121.362 19.5051 124.164 19.5051H222.796C225.604 19.5051 227.871 21.9075 227.871 24.8831Z" fill="#3F3747"/>
<path d="M124.464 236.599C124.464 239.542 126.737 241.933 129.54 241.933H228.172C230.98 241.933 233.248 239.542 233.248 236.599V25.802C233.248 22.8497 230.98 20.4686 228.172 20.4686H129.539C126.736 20.4686 124.464 22.8497 124.464 25.802V236.599H124.464Z" fill="white"/>
<path d="M228.172 23.3784C229.369 23.3784 230.342 24.4658 230.342 25.8025V236.6C230.342 237.936 229.368 239.024 228.172 239.024H129.539C128.342 239.024 127.369 237.936 127.369 236.6V25.802C127.369 24.4653 128.343 23.3779 129.539 23.3779L228.172 23.3784ZM228.172 19.5051H129.539C126.207 19.5051 123.496 22.3302 123.496 25.8025V236.6C123.496 240.072 126.207 242.897 129.539 242.897H228.172C231.504 242.897 234.215 240.072 234.215 236.6V25.802C234.216 22.3297 231.504 19.5051 228.172 19.5051Z" fill="#E1B791"/>
<path d="M191.794 26.7316H163.176C162.894 26.7316 162.666 26.5002 162.666 26.215C162.666 25.9299 162.894 25.6984 163.176 25.6984H191.794C192.076 25.6984 192.305 25.9299 192.305 26.215C192.305 26.5002 192.076 26.7316 191.794 26.7316Z" fill="#48393E"/>
<path d="M147.624 209.745H139.885V215.328H147.624V209.745Z" fill="#F6B163"/>
<path d="M158.79 210.847H151.052V215.328H158.79V210.847Z" fill="#E1B791"/>
<path d="M170.128 192.481H162.39V215.328H170.128V192.481Z" fill="#E1B791"/>
<path d="M181.368 205.117H173.629V215.328H181.368V205.117Z" fill="#E1B791"/>
<path d="M215.087 205.558H207.349V215.328H215.087V205.558Z" fill="#F6B163"/>
<path d="M192.601 171.985H184.863V215.328H192.601V171.985Z" fill="#E1B791"/>
<path d="M203.994 189.984H196.256V215.328H203.994V189.984Z" fill="#E1B791"/>
<path d="M159.716 131.409C145.292 124.716 135.972 110.142 135.972 94.279C135.972 71.7227 154.323 53.3718 176.879 53.3718V56.2767C155.925 56.2767 138.877 73.3243 138.877 94.279C138.877 109.016 147.537 122.556 160.939 128.774L159.716 131.409Z" fill="#DAE0E8"/>
<path d="M164.377 106.18C165.034 105.582 165.588 104.957 166.04 104.305C166.492 103.653 166.718 103.012 166.718 102.382C166.718 101.789 166.574 101.321 166.286 100.979C165.999 100.636 165.536 100.466 164.897 100.466C164.276 100.466 163.795 100.66 163.453 101.047C163.111 101.435 162.926 101.953 162.899 102.601H161.694C161.73 101.58 162.041 100.79 162.625 100.233C163.208 99.6768 163.961 99.3984 164.883 99.3984C165.822 99.3984 166.568 99.6584 167.12 100.178C167.672 100.698 167.949 101.415 167.949 102.327C167.949 103.084 167.723 103.821 167.271 104.537C166.82 105.253 166.307 105.883 165.732 106.426C165.157 106.969 164.422 107.601 163.528 108.321H168.237V109.361H161.654V108.472C162.812 107.541 163.72 106.777 164.377 106.18Z" fill="black"/>
<path d="M175.765 100.548L171.96 109.471H170.7L174.56 100.671H169.277V99.6032H175.764V100.548H175.765Z" fill="black"/>
<path d="M177.776 103.449C177.502 103.065 177.365 102.6 177.365 102.053C177.365 101.56 177.488 101.115 177.735 100.719C177.981 100.322 178.348 100.007 178.836 99.7746C179.324 99.5422 179.915 99.4256 180.608 99.4256C181.302 99.4256 181.892 99.5422 182.381 99.7746C182.869 100.007 183.238 100.322 183.49 100.719C183.74 101.116 183.866 101.561 183.866 102.053C183.866 102.582 183.724 103.046 183.442 103.442C183.158 103.839 182.771 104.133 182.278 104.325C182.844 104.499 183.293 104.802 183.627 105.235C183.96 105.669 184.126 106.191 184.126 106.803C184.126 107.396 183.98 107.913 183.688 108.356C183.396 108.798 182.983 109.141 182.45 109.382C181.916 109.624 181.302 109.745 180.609 109.745C179.915 109.745 179.307 109.624 178.782 109.382C178.257 109.14 177.849 108.798 177.557 108.356C177.265 107.913 177.119 107.396 177.119 106.803C177.119 106.191 177.283 105.666 177.612 105.229C177.94 104.79 178.388 104.489 178.954 104.325C178.442 104.124 178.049 103.832 177.776 103.449ZM178.953 105.345C178.524 105.66 178.309 106.132 178.309 106.761C178.309 107.345 178.517 107.815 178.932 108.171C179.347 108.527 179.906 108.705 180.609 108.705C181.311 108.705 181.868 108.527 182.279 108.171C182.689 107.815 182.895 107.345 182.895 106.761C182.895 106.15 182.684 105.683 182.265 105.359C181.845 105.035 181.294 104.873 180.609 104.873C179.934 104.872 179.382 105.03 178.953 105.345ZM182.114 100.917C181.749 100.616 181.248 100.466 180.609 100.466C179.98 100.466 179.482 100.616 179.117 100.917C178.752 101.218 178.57 101.652 178.57 102.218C178.57 102.729 178.759 103.14 179.138 103.449C179.516 103.76 180.007 103.915 180.609 103.915C181.22 103.915 181.715 103.757 182.094 103.442C182.472 103.127 182.662 102.715 182.662 102.204C182.662 101.647 182.479 101.218 182.114 100.917Z" fill="black"/>
<path d="M188.356 106.18C189.013 105.582 189.567 104.957 190.019 104.305C190.47 103.653 190.696 103.012 190.696 102.382C190.696 101.789 190.552 101.321 190.265 100.979C189.977 100.636 189.514 100.466 188.876 100.466C188.255 100.466 187.774 100.66 187.432 101.047C187.09 101.435 186.905 101.953 186.878 102.601H185.673C185.709 101.58 186.02 100.79 186.604 100.233C187.187 99.6768 187.94 99.3984 188.862 99.3984C189.801 99.3984 190.547 99.6584 191.099 100.178C191.651 100.698 191.927 101.415 191.927 102.327C191.927 103.084 191.702 103.821 191.25 104.537C190.798 105.253 190.285 105.883 189.71 106.426C189.136 106.969 188.401 107.601 187.507 108.321H192.215V109.361H185.632V108.472C186.79 107.541 187.699 106.777 188.356 106.18Z" fill="black"/>
<path d="M166.763 119.901C167.095 120.105 167.579 120.275 168.09 120.275C168.846 120.275 169.289 119.875 169.289 119.297C169.289 118.761 168.983 118.455 168.209 118.157C167.274 117.826 166.696 117.341 166.696 116.534C166.696 115.641 167.436 114.978 168.55 114.978C169.136 114.978 169.561 115.114 169.817 115.258L169.613 115.862C169.425 115.76 169.043 115.59 168.524 115.59C167.742 115.59 167.445 116.058 167.445 116.449C167.445 116.984 167.793 117.248 168.584 117.554C169.553 117.928 170.047 118.396 170.047 119.238C170.047 120.123 169.392 120.888 168.04 120.888C167.487 120.888 166.884 120.726 166.577 120.522L166.763 119.901Z" fill="black"/>
<path d="M172.146 115.7H170.403V115.071H174.646V115.7H172.894V120.802H172.146V115.7Z" fill="black"/>
<path d="M178.252 118.115H176.023V120.181H178.506V120.802H175.284V115.071H178.378V115.692H176.023V117.503H178.251V118.115H178.252Z" fill="black"/>
<path d="M179.468 115.139C179.825 115.08 180.293 115.028 180.888 115.028C181.62 115.028 182.155 115.199 182.495 115.504C182.81 115.776 182.997 116.193 182.997 116.704C182.997 117.222 182.844 117.631 182.555 117.928C182.164 118.344 181.526 118.557 180.804 118.557C180.582 118.557 180.378 118.548 180.209 118.506V120.802H179.469V115.139H179.468ZM180.208 117.903C180.369 117.945 180.574 117.962 180.821 117.962C181.713 117.962 182.257 117.529 182.257 116.737C182.257 115.981 181.722 115.615 180.905 115.615C180.582 115.615 180.335 115.641 180.208 115.675V117.903Z" fill="black"/>
<path d="M183.891 119.901C184.222 120.105 184.707 120.275 185.217 120.275C185.974 120.275 186.416 119.875 186.416 119.297C186.416 118.761 186.11 118.455 185.336 118.157C184.401 117.826 183.823 117.341 183.823 116.534C183.823 115.641 184.563 114.978 185.677 114.978C186.263 114.978 186.688 115.114 186.944 115.258L186.74 115.862C186.552 115.76 186.17 115.59 185.651 115.59C184.869 115.59 184.571 116.058 184.571 116.449C184.571 116.984 184.92 117.248 185.711 117.554C186.68 117.928 187.174 118.396 187.174 119.238C187.174 120.123 186.518 120.888 185.167 120.888C184.614 120.888 184.011 120.726 183.704 120.522L183.891 119.901Z" fill="black"/>
<path d="M198.843 90.8274L198.814 91.0743L198.591 91.1905C197.87 91.5827 196.829 91.9119 195.405 91.9119C193.992 91.9119 192.195 91.5876 189.944 90.6773L189.155 90.3578C187.683 89.7623 186.013 89.0845 185.175 88.8569C184.391 88.6487 183.756 88.5422 183.142 88.4405C181.142 88.1065 179.559 87.845 175.245 84.3882C168.288 78.8155 158.919 75.2522 158.522 75.1021L157.937 74.8794L158.29 74.3662C158.542 74.0079 158.76 73.6593 158.958 73.301C159.22 72.8217 159.466 72.3521 159.709 71.8921C161.34 68.8081 162.754 66.1404 165.126 66.2905C166.264 66.3582 166.574 67.4766 166.903 68.6628C167.271 69.9846 167.683 71.4854 169.183 72.294C170.224 72.8604 171.29 72.6523 171.837 72.478C172.732 72.1923 173.328 71.6743 173.521 71.2821C173.633 71.0497 173.681 70.7398 173.744 70.3816C173.856 69.6892 173.996 68.8274 174.688 68.0189C174.984 67.68 175.405 67.4863 175.86 67.5105C176.301 67.5251 176.707 67.7429 176.973 68.1012C177.68 69.0647 179.118 70.9819 180.924 73.1945C181.2 73.5334 181.486 73.8869 181.781 74.2403C182.556 75.165 183.379 76.1236 184.231 77.0726C184.531 77.4067 184.836 77.7407 185.146 78.0699C186.72 79.7596 188.351 81.3622 189.905 82.6162C192.65 84.8336 194.471 85.952 195.797 86.7702C197.468 87.7966 198.305 88.3098 198.823 89.8059L198.843 89.8785C198.852 89.9172 198.915 90.2949 198.843 90.8274Z" fill="#E1B791"/>
<path d="M192.764 94.5128C187.994 94.5128 179.853 92.6285 174.33 88.9513C172.675 87.8499 170.549 87.4011 168.086 86.8821C165.69 86.3771 162.974 85.8043 159.915 84.5092C156.727 83.1599 154.654 81.8401 154.902 79.7839C155.087 78.2472 156.016 77.152 157 75.992C157.429 75.486 157.873 74.9626 158.292 74.3676L158.507 74.0602L158.859 74.1933C159.264 74.3463 168.775 77.9659 175.851 83.6348C179.968 86.9314 181.365 87.1643 183.299 87.4858C183.908 87.5875 184.598 87.7017 185.425 87.924C186.32 88.1641 187.946 88.8235 189.518 89.4616L190.304 89.7802C194.49 91.4694 196.873 91.0163 198.135 90.3384L198.97 89.8896L198.843 90.8294C198.71 91.8185 198.06 93.5818 195.202 94.2795C194.562 94.4349 193.732 94.5128 192.764 94.5128ZM194.973 93.3378C196.477 92.9708 197.232 92.2896 197.596 91.604C196.028 92.0877 193.585 92.1482 189.942 90.6773L189.154 90.3583C187.681 89.7604 186.012 89.083 185.174 88.8584C184.392 88.6482 183.756 88.5427 183.14 88.4401C181.139 88.107 179.559 87.8441 175.246 84.3891C168.941 79.3384 160.655 75.9363 158.86 75.2309C158.487 75.7334 158.108 76.1813 157.738 76.617C156.813 77.7083 156.014 78.6505 155.863 79.8986C155.737 80.9516 156.441 81.9868 160.293 83.6164C163.265 84.8752 165.932 85.4373 168.286 85.9336C170.846 86.4734 173.057 86.9397 174.867 88.1442C181.306 92.4324 191.347 94.2233 194.973 93.3378Z" fill="#E1B791"/>
<path d="M181.781 74.2403C180.067 73.9837 177.792 74.3613 177.762 74.3662C177.496 74.4097 177.249 74.2354 177.201 73.9692C177.157 73.7077 177.336 73.456 177.598 73.4124C177.7 73.3979 179.307 73.1316 180.924 73.1945C181.2 73.5334 181.486 73.8869 181.781 74.2403Z" fill="white"/>
<path d="M185.146 78.0699C183.364 77.8327 180.968 78.7478 180.943 78.7574C180.885 78.7816 180.827 78.7913 180.769 78.7913C180.571 78.7913 180.391 78.6703 180.314 78.4815C180.217 78.2297 180.343 77.9489 180.59 77.8569C180.692 77.8133 182.464 77.1404 184.231 77.0726C184.531 77.4066 184.836 77.7407 185.146 78.0699Z" fill="white"/>
<path d="M215.087 217.977H139.885V218.461H215.087V217.977Z" fill="black"/>
<path d="M169.762 146.992H148.064V150.378H169.762V146.992Z" fill="#DAE0E8"/>
<path d="M173.473 155.15H144.354V158.536H173.473V155.15Z" fill="#DAE0E8"/>
<path d="M209.318 146.992H187.62V150.378H209.318V146.992Z" fill="#DAE0E8"/>
<path d="M213.029 155.15H183.91V158.536H213.029V155.15Z" fill="#DAE0E8"/>
<path d="M177.046 53.3732C176.847 53.3732 176.649 53.3732 176.45 53.3829V56.2878C176.649 56.2781 176.847 56.2781 177.046 56.2781C198 56.2781 215.047 73.3252 215.047 94.2794C215.047 115.234 198 132.281 177.046 132.281C171.483 132.281 166.118 131.099 161.102 128.775C160.967 128.713 160.826 128.645 160.691 128.582L159.422 131.191C159.572 131.264 159.727 131.337 159.882 131.409C165.281 133.917 171.057 135.186 177.046 135.186C199.602 135.186 217.952 116.836 217.952 94.2794C217.952 71.7227 199.602 53.3732 177.046 53.3732Z" fill="#E1B791"/>
<path d="M315.514 59.4958L308.788 66.4401L309.136 66.7773L315.862 59.8331L315.514 59.4958Z" fill="#BF8652"/>
<path d="M321.499 67.5817L310.912 73.0262L311.133 73.4563L321.721 68.0118L321.499 67.5817Z" fill="#BF8652"/>
<path d="M258.186 236.004L263.175 226.143L254.999 223.277L251.631 233.706L258.186 236.004Z" fill="#FFB486"/>
<path d="M258.005 242.877C258.465 243.023 258.948 242.73 259.03 242.253L260.277 234.976C260.338 234.376 259.773 233.906 259.193 234.072C255.777 235.047 253.08 233.35 252.02 231.715C251.708 231.232 251.073 231.066 250.551 231.308C249.805 231.653 248.727 232.064 247.643 232.174C245.235 232.418 238.189 232.248 236.839 233.313C236.58 233.517 236.207 234.316 235.941 234.945C235.758 235.377 235.986 235.872 236.433 236.014L258.005 242.877Z" fill="#4C2E6D"/>
<path d="M325.31 227.488L321.733 219.226L313.696 223.137L319.087 230.441C319.087 230.441 321.498 233.001 323.802 231.74C326.274 230.387 325.31 227.488 325.31 227.488Z" fill="#FFB486"/>
<path d="M309.6 242.151L320.748 242.164L330.574 231.873C331.002 231.425 330.995 230.717 330.558 230.277L326.305 225.989C325.984 225.666 325.425 225.81 325.313 226.252C324.294 230.3 320.039 230.183 318.337 229.965C317.927 229.913 317.543 230.171 317.431 230.569C317.022 232.03 316.071 235.263 315.458 236.085C314.339 237.584 312.837 238.38 311.506 239.071C308.827 240.463 309.6 242.151 309.6 242.151Z" fill="#4C2E6D"/>
<path d="M261.89 230.116L252.786 225.658C257.746 195.775 278.398 125.035 278.398 125.035L300.062 125.057C301.16 131.907 296.455 149.17 291.064 163.81C285.041 180.168 282.286 182.659 280.954 191.08C278.314 207.776 261.89 230.116 261.89 230.116Z" fill="#BF8652"/>
<path d="M259.378 228.932L258.986 228.648C259.118 228.465 272.269 210.114 276.778 190.786C280.308 175.657 287.156 166.434 287.225 166.343L287.611 166.635C287.543 166.725 280.755 175.873 277.25 190.896C272.717 210.321 259.511 228.749 259.378 228.932Z" fill="white"/>
<path d="M322.543 220.092C318.234 225.315 314.746 225.658 314.746 225.658C314.746 225.658 291.37 199.505 287.418 190.233C282.125 177.81 280.366 127.219 280.366 127.219C280.366 127.219 299.644 127.849 301.455 130.763C307.713 140.838 308.407 148.685 306.187 173.103C306.015 175.001 305.693 180.519 306.568 182.048C309.115 186.499 314.037 193.931 316.88 200.545C320.133 208.113 322.543 220.092 322.543 220.092Z" fill="#BF8652"/>
<path d="M320.585 222.367C320.532 222.153 315.113 200.809 304.679 187.654C301.977 184.248 300.769 181.922 301.214 177.918C303.483 157.486 300.266 139.54 295.916 132.374L296.33 132.122C300.723 139.359 303.976 157.431 301.695 177.971C301.269 181.807 302.44 184.052 305.058 187.353C315.559 200.592 321.002 222.035 321.056 222.25L320.585 222.367Z" fill="white"/>
<path d="M287.195 190.328C284.989 185.152 283.129 172.96 281.666 154.092L278.752 150.531L279.127 150.225L282.137 153.903L282.143 153.979C283.582 172.572 285.483 185.075 287.64 190.138L287.195 190.328Z" fill="#48393E"/>
<path d="M284.255 87.1532C284.255 87.1532 285.818 82.7769 285.317 75.3427L291.648 72.8343C291.648 72.8343 292.202 78.6819 296.061 85.6721C292.507 88.0929 283.944 93.3436 284.255 87.1532Z" fill="#FFB486"/>
<path d="M272.193 135.577C284.94 146.554 309.39 141.014 309.39 141.014C309.39 141.014 307.507 131.592 307.43 126.543C307.187 110.677 309.167 94.3167 295.19 83.1681C292.302 85.1439 284.982 90.6793 284.508 86.3843C269.096 100.919 272.193 135.577 272.193 135.577Z" fill="#BF8652"/>
<path d="M259.662 94.4382L254.643 78.1251C254.564 77.8651 254.877 77.5717 255.155 77.6458L257.804 78.3328C258.019 78.3866 258.177 78.5304 258.237 78.7274L263.117 94.354C263.19 94.5835 262.918 94.8895 262.648 94.8827L260.18 94.8062C259.925 94.797 259.732 94.6595 259.662 94.4382Z" fill="#48393E"/>
<path d="M259.709 94.7205C259.597 94.7408 259.487 94.675 259.453 94.5641L254.41 78.023C254.373 77.9039 254.441 77.7775 254.56 77.7412C254.68 77.7029 254.805 77.7722 254.841 77.8913L259.884 94.4324C259.92 94.5515 259.853 94.6779 259.734 94.7142C259.726 94.7171 259.718 94.719 259.709 94.7205Z" fill="white"/>
<path d="M263.001 100.025C263.001 100.025 258.756 95.7019 258.02 93.8369C257.398 92.2624 257.203 86.2158 257.922 86.0546C259.39 85.7259 260.655 92.3452 262.057 92.5384C262.466 92.5951 262.281 90.1777 262.892 90.2934C263.26 90.3631 263.512 91.2394 263.841 92.6909C264.033 93.5324 265.313 98.2267 265.313 98.2267L263.001 100.025Z" fill="#FFB486"/>
<path d="M294.608 116.755C294.13 117.973 289.892 115.694 286.289 113.128C282.687 110.562 280.176 107.907 280.681 107.199C281.186 106.49 284.515 107.995 288.118 110.561C291.72 113.127 295.04 115.655 294.608 116.755Z" fill="#48393E"/>
<path d="M292.186 91.0845C284.109 90.6507 281.247 110.289 281.247 110.289L264.734 96.5375L261.814 98.7709C261.814 98.7709 269.616 114.279 274.977 120.964C277.562 124.188 286.258 129.154 291.015 119.482C294.443 112.51 304.811 91.7623 292.186 91.0845Z" fill="#FFB486"/>
<path d="M278.162 66.8772C278.162 66.8772 276.199 64.7295 277.412 62.5862C278.287 61.0398 280.864 60.9502 280.864 60.9502C279.994 62.0023 278.162 66.8772 278.162 66.8772Z" fill="#4C2E6D"/>
<path d="M291.731 76.3594C290.414 77.6579 284.895 81.1757 281.522 80.2936C277.259 79.1781 276.653 63.1787 280.663 60.6655C282.817 59.3152 288.202 60.2874 290.794 64.2492C293.386 68.2101 293.49 74.6256 291.731 76.3594Z" fill="#FFB486"/>
<path d="M288.392 71.7846C288.392 71.7846 288.05 69.6568 287.982 69.6761C284.114 70.7122 278.912 68.1341 278.321 64.1253C277.537 58.7948 285.695 54.9845 291.906 58.1605C297.92 61.2301 297.742 65.3551 298.685 68.994C299.507 72.1715 309.891 70.3811 304.618 82.1431L294.066 84.6293C290.451 82.6699 285.926 77.6105 288.392 71.7846Z" fill="#4C2E6D"/>
<path d="M294.184 54.2849C299.685 54.1866 299.919 60.2894 294.797 61.9766L288.715 58.0274C288.368 54.6034 290.925 52.4088 294.184 54.2849Z" fill="#4C2E6D"/>
<path d="M287.24 57.8178C287.032 56.221 288.173 53.6676 289.902 52.8915C290.794 52.4906 292.189 52.3942 293.765 54.2127L293.399 54.5299C292.306 53.2691 291.166 52.8552 290.1 53.333C288.596 54.0084 287.534 56.329 287.72 57.7553L287.24 57.8178Z" fill="#4C2E6D"/>
<path d="M283.971 70.046C282.2 70.046 280.795 69.5788 279.78 68.6483C277.885 66.9102 278.071 64.2202 278.08 64.1069L278.562 64.1447C278.56 64.1703 278.389 66.7189 280.111 68.2948C281.376 69.4525 283.343 69.818 285.951 69.3861L286.03 69.8635C285.297 69.985 284.61 70.046 283.971 70.046Z" fill="#4C2E6D"/>
<path d="M285.068 70.8216C284.757 71.9115 285.493 73.591 286.582 73.9023C287.672 74.2136 288.703 73.0381 289.014 71.9483C289.326 70.8584 288.694 69.7231 287.604 69.4118C286.515 69.1005 285.379 69.7318 285.068 70.8216Z" fill="#FFB486"/>
<path d="M295.865 62.8103L295.658 62.3731C295.704 62.3514 300.259 60.1436 299.059 57.092C297.846 54.006 293.66 54.6049 293.618 54.6107L293.545 54.1323C293.591 54.1241 298.157 53.4729 299.51 56.9148C300.875 60.3862 295.916 62.7861 295.865 62.8103Z" fill="#4C2E6D"/>
<path d="M283.943 80.5604L283.865 80.083C283.891 80.0787 286.479 79.6449 287.584 78.7884L287.881 79.1709C286.679 80.1029 284.054 80.5425 283.943 80.5604Z" fill="#4C2E6D"/>
<path d="M294.63 116.394C294.616 115.416 291.418 112.91 288.116 110.562C284.853 108.238 281.817 106.78 280.897 107.056C281.294 104.892 285.003 86.3635 294.812 90.474C306.107 95.2042 294.63 116.394 294.63 116.394Z" fill="#BF8652"/>
<path d="M281.103 107.496L280.624 107.431C280.692 106.935 282.355 95.2453 288.449 91.282C290.473 89.9666 292.764 89.6659 295.262 90.3883L295.128 90.8536C292.77 90.1719 290.614 90.4522 288.714 91.6877C282.806 95.529 281.12 107.377 281.103 107.496Z" fill="#48393E"/>
<path d="M294.478 116.997L294.131 116.658C294.397 116.293 298.603 107.969 299.175 100.962L299.657 101.001C299.065 108.269 294.679 116.791 294.478 116.997Z" fill="#48393E"/>
<path d="M296.498 139.227C282.444 139.227 272.031 132.987 271.898 132.906L272.151 132.493C272.317 132.594 289.026 142.601 308.648 137.087L308.778 137.554C304.503 138.755 300.362 139.227 296.498 139.227Z" fill="white"/>
<path d="M296.498 137.292C282.443 137.292 272.03 131.05 271.898 130.97L272.151 130.556C272.316 130.657 288.855 140.564 308.343 135.236L308.471 135.703C304.304 136.841 300.269 137.292 296.498 137.292Z" fill="white"/>
<path d="M317.1 238.76C315.585 238.76 314.284 237.452 314.228 237.395L314.573 237.056C314.586 237.069 315.862 238.338 317.216 238.273L317.244 238.757C317.195 238.759 317.147 238.76 317.1 238.76Z" fill="white"/>
<path d="M317.602 236.335C316.435 236.335 315.687 235.646 315.649 235.611L315.981 235.258C316.018 235.293 316.912 236.105 318.243 235.77L318.361 236.24C318.092 236.307 317.839 236.335 317.602 236.335Z" fill="white"/>
</svg>
