<svg width="375" height="369" viewBox="0 0 375 369" fill="none" xmlns="http://www.w3.org/2000/svg">
<g clip-path="url(#clip0_23_1310)">
<path d="M171.498 62C207.674 62 237 91.7739 237 128.502C237 165.225 207.674 195 171.498 195C135.327 195 106 165.226 106 128.502C106 91.7746 135.327 62 171.498 62Z" fill="#FFE0B2"/>
<path d="M-9.99969 146.616C7.20563 133.236 37.9324 119.54 48.1512 118.537C78.8221 115.53 125.181 185.585 156.341 186.969C187.502 188.352 238.172 141.313 261.573 122.78C284.974 104.246 302.863 78.6814 314.789 80.1834C320.937 80.9617 377.968 103.35 399 118.537C399 146.616 399 160.575 399 186.969C394.5 263.712 411.5 307.5 367 338.004C350.233 337.509 240.129 352.443 202.339 347.146C176.673 343.551 122.554 337.027 70.271 328.486C-62.4997 334.068 -14.4997 245.214 -14.4997 186.969C-14.4997 172.826 -13.0649 159.845 -9.99969 146.616Z" fill="#FFD494"/>
<path d="M-7.00009 167.28C11.6415 152.473 37.171 140.299 48.1515 139.22C78.8224 136.212 125.181 206.264 156.341 207.647C187.502 209.03 238.173 161.992 261.573 143.458C284.974 124.929 302.863 99.364 314.789 100.866C321.397 101.695 354.706 118.276 379.5 134.808C384.001 150.651 384.5 167.246 384.5 184.498C384.5 258.336 384.5 313.404 379.5 353.256C362.733 352.761 240.129 352.442 202.339 347.145C176.673 343.55 53.1218 355.686 0.838551 347.145C-16.0001 311.436 -7.00007 242.743 -7.00007 184.498C-7.00007 178.618 -7.54647 173.025 -7.00009 167.28Z" fill="#F5C27B"/>
<path d="M383 198.861C377.704 198.374 363.702 196.131 357.589 195.535C343.212 194.122 328.646 200.32 314.269 198.861C302.309 197.646 290.847 192.028 278.9 193.331C269.472 194.359 261.058 199.63 251.574 200.218C239.945 200.938 229.093 194.524 217.443 194.291C203.07 194.008 190.332 203.07 175.994 204C164.206 204.762 152.615 199.93 140.835 200.772C131.406 201.444 122.778 205.684 113.492 207.283C97.9333 209.969 82.0602 205.091 66.2179 204.685C52.1598 204.321 31.6564 211.898 17.6108 212.55C12.1681 212.799 -47.5466 210.576 -11.9996 210.576C-35.0466 295.952 -74.4996 357.684 187.498 369C453 361.62 376.358 294.824 383 198.861Z" fill="#FBCC8B"/>
<path d="M383 263.628C356.228 257.828 304.849 248.399 277.837 250.214C251.392 251.995 226.225 261.374 199.827 263.628C144.105 268.396 88.5849 241.19 33.5207 250.121C27.0461 251.174 0.0566387 253.618 -6.5 255.348C-60 354.732 109.11 369 187.498 369C499.5 369 383 263.628 383 263.628Z" fill="#FFD494"/>
<path d="M66.7083 321.276C87.4007 320.409 204.249 318.543 269.347 300.31C308.449 289.358 348.367 279.078 389.356 280.812C397.718 281.163 453.893 336.548 462.208 337.512C540.708 389.664 322.525 369 255.706 369C208.449 369 -35.2917 406.884 66.7083 321.276Z" fill="#F7CD8E"/>
<path d="M383 340.711C325.237 337.799 236.953 331.304 152.19 316.93C86.8077 305.844 20.0734 295.439 -48.4659 297.195C-61.6778 297.533 -74.8603 298.179 -88 299.075C-32.5146 351.566 65.823 379 177.649 379C256.293 379 327.96 369.203 383 340.711Z" fill="#FFE0B2"/>
<path d="M425 348.427C374.962 344.231 142.908 341.517 94.0895 337.778C50.2208 334.417 5.61152 332.097 -38.1014 336.159C-56.0744 337.828 -73.6553 340.552 -91 343.845C-44.0228 370.17 16.327 386 82.1671 386C142.323 386 380.018 370.782 425 348.427Z" fill="#FFD494"/>
</g>
<defs>
<clipPath id="clip0_23_1310">
<rect width="375" height="369" fill="white"/>
</clipPath>
</defs>
</svg>
