<svg width="32" height="32" viewBox="0 0 32 32" fill="none" xmlns="http://www.w3.org/2000/svg">
<g clip-path="url(#clip0_23_4334)">
<path d="M15.7153 26.1641C21.1941 26.1641 25.6356 21.7226 25.6356 16.2438C25.6356 10.7649 21.1941 6.32343 15.7153 6.32343C10.2364 6.32343 5.79492 10.7649 5.79492 16.2438C5.79492 21.7226 10.2364 26.1641 15.7153 26.1641Z" fill="#F3C672"/>
<path fill-rule="evenodd" clip-rule="evenodd" d="M15.2144 0.876116V3.61712C15.2144 3.74972 15.2671 3.8769 15.3609 3.97067C15.4547 4.06444 15.5818 4.11712 15.7144 4.11712C15.847 4.11712 15.9742 4.06444 16.068 3.97067C16.1618 3.8769 16.2144 3.74972 16.2144 3.61712V0.876116C16.2097 0.746667 16.155 0.624097 16.0617 0.534189C15.9685 0.444281 15.844 0.394043 15.7144 0.394043C15.5849 0.394043 15.4604 0.444281 15.3672 0.534189C15.2739 0.624097 15.2192 0.746667 15.2144 0.876116ZM4.49444 5.73078L6.43244 7.66912C6.5263 7.76279 6.6535 7.8154 6.78611 7.8154C6.91872 7.8154 7.04591 7.76279 7.13977 7.66912C7.23345 7.57525 7.28606 7.44806 7.28606 7.31545C7.28606 7.18284 7.23345 7.05565 7.13977 6.96178L5.20144 5.02378C5.15532 4.97603 5.10015 4.93794 5.03914 4.91173C4.97814 4.88553 4.91253 4.87173 4.84614 4.87116C4.77975 4.87058 4.71391 4.88323 4.65246 4.90837C4.59102 4.93351 4.53519 4.97064 4.48824 5.01758C4.4413 5.06453 4.40417 5.12036 4.37903 5.18181C4.35389 5.24325 4.34124 5.30909 4.34182 5.37548C4.34239 5.44187 4.35619 5.50748 4.38239 5.56848C4.40859 5.62949 4.44669 5.68466 4.49444 5.73078ZM26.2271 5.02378L24.2891 6.96178C24.1953 7.05554 24.1426 7.18271 24.1426 7.31533C24.1425 7.44795 24.1952 7.57515 24.2889 7.66895C24.3827 7.76275 24.5099 7.81546 24.6425 7.81549C24.7751 7.81552 24.9023 7.76287 24.9961 7.66912L26.9344 5.73078C27.023 5.63594 27.0712 5.51042 27.069 5.3807C27.0667 5.25098 27.0142 5.1272 26.9224 5.03548C26.8307 4.94376 26.7069 4.89127 26.5771 4.88909C26.4474 4.88691 26.3219 4.9352 26.2271 5.02378ZM28.3408 16.7438H31.0818C31.2112 16.7391 31.3338 16.6843 31.4237 16.5911C31.5136 16.4978 31.5638 16.3733 31.5638 16.2438C31.5638 16.1142 31.5136 15.9898 31.4237 15.8965C31.3338 15.8033 31.2112 15.7485 31.0818 15.7438H28.3408C28.2082 15.7438 28.081 15.7965 27.9872 15.8902C27.8935 15.984 27.8408 16.1112 27.8408 16.2438C27.8408 16.3764 27.8935 16.5036 27.9872 16.5973C28.081 16.6911 28.2082 16.7438 28.3408 16.7438Z" fill="#F3C672"/>
<path fill-rule="evenodd" clip-rule="evenodd" d="M22.4836 13.3661C22.2194 13.185 22.0033 12.9423 21.8541 12.6589C21.7048 12.3755 21.6268 12.0601 21.627 11.7398C21.6272 11.3071 21.7696 10.8865 22.0324 10.5427C22.2951 10.1989 22.6635 9.95104 23.0809 9.83716C23.4983 9.72328 23.9416 9.74974 24.3425 9.91247C24.7434 10.0752 25.0797 10.3652 25.2996 10.7378C25.4737 10.6237 25.675 10.558 25.8828 10.5476C26.0906 10.5371 26.2975 10.5823 26.4821 10.6784C26.6667 10.7745 26.8223 10.918 26.933 11.0943C27.0436 11.2705 27.1053 11.4731 27.1116 11.6811C27.3387 11.5908 27.5883 11.5739 27.8254 11.6326C28.0626 11.6914 28.2755 11.8228 28.4342 12.0086C28.5928 12.1944 28.6894 12.4252 28.7104 12.6686C28.7313 12.9121 28.6756 13.1559 28.551 13.3661H22.4836Z" fill="#CACEEC"/>
<path fill-rule="evenodd" clip-rule="evenodd" d="M17.9417 26.5881C17.5796 26.3397 17.2836 26.0069 17.079 25.6184C16.8745 25.23 16.7676 24.7975 16.7677 24.3584C16.7676 23.7651 16.9626 23.1882 17.3226 22.7166C17.6827 22.245 18.1879 21.9049 18.7603 21.7486C19.3327 21.5924 19.9406 21.6288 20.4903 21.8521C21.04 22.0754 21.501 22.4733 21.8023 22.9845C22.0409 22.828 22.3169 22.738 22.6019 22.7237C22.8869 22.7093 23.1705 22.7713 23.4236 22.903C23.6766 23.0348 23.89 23.2316 24.0417 23.4732C24.1934 23.7149 24.278 23.9926 24.2867 24.2778C24.598 24.1542 24.9401 24.1312 25.2652 24.2118C25.5903 24.2924 25.882 24.4726 26.0995 24.7273C26.317 24.982 26.4495 25.2983 26.4782 25.632C26.507 25.9656 26.4307 26.3 26.26 26.5881H17.9417ZM2.00335 18.1064C1.51383 17.7707 1.11347 17.3207 0.836896 16.7954C0.560325 16.2701 0.415868 15.6854 0.416016 15.0918C0.416016 13.0734 2.05468 11.4344 4.07335 11.4344C5.41368 11.4344 6.58668 12.1571 7.22335 13.2341C7.57679 13.001 7.99099 12.8771 8.41435 12.8778C8.9785 12.8781 9.52035 13.0981 9.9251 13.4911C10.3299 13.8841 10.5657 14.4192 10.5827 14.9831C11.0036 14.8158 11.4662 14.7845 11.9058 14.8933C12.3454 15.0022 12.74 15.2459 13.0341 15.5903C13.3283 15.9346 13.5073 16.3624 13.5461 16.8136C13.585 17.2648 13.4817 17.7169 13.2507 18.1064H2.00335Z" fill="#EBEBEB"/>
<path fill-rule="evenodd" clip-rule="evenodd" d="M11.7892 29.3561H24.6435C24.7762 29.3561 24.9033 29.3035 24.9971 29.2097C25.0909 29.1159 25.1435 28.9887 25.1435 28.8561C25.1435 28.7235 25.0909 28.5964 24.9971 28.5026C24.9033 28.4088 24.7762 28.3561 24.6435 28.3561H11.7892C11.6566 28.3561 11.5294 28.4088 11.4357 28.5026C11.3419 28.5964 11.2892 28.7235 11.2892 28.8561C11.2892 28.9887 11.3419 29.1159 11.4357 29.2097C11.5294 29.3035 11.6566 29.3561 11.7892 29.3561ZM6.63788 29.3561H9.81321C9.94582 29.3561 10.073 29.3035 10.1668 29.2097C10.2605 29.1159 10.3132 28.9887 10.3132 28.8561C10.3132 28.7235 10.2605 28.5964 10.1668 28.5026C10.073 28.4088 9.94582 28.3561 9.81321 28.3561H6.63788C6.50843 28.3609 6.38586 28.4156 6.29595 28.5089C6.20605 28.6021 6.15581 28.7266 6.15581 28.8561C6.15581 28.9857 6.20605 29.1102 6.29595 29.2034C6.38586 29.2967 6.50843 29.3514 6.63788 29.3561ZM20.9175 31.6241H28.7149C28.8475 31.6241 28.9747 31.5715 29.0684 31.4777C29.1622 31.3839 29.2149 31.2567 29.2149 31.1241C29.2149 30.9915 29.1622 30.8644 29.0684 30.7706C28.9747 30.6768 28.8475 30.6241 28.7149 30.6241H20.9175C20.7849 30.6241 20.6578 30.6768 20.564 30.7706C20.4702 30.8644 20.4175 30.9915 20.4175 31.1241C20.4175 31.2567 20.4702 31.3839 20.564 31.4777C20.6578 31.5715 20.7849 31.6241 20.9175 31.6241ZM3.81055 31.6241H18.9225C19.0552 31.6241 19.1823 31.5715 19.2761 31.4777C19.3699 31.3839 19.4225 31.2567 19.4225 31.1241C19.4225 30.9915 19.3699 30.8644 19.2761 30.7706C19.1823 30.6768 19.0552 30.6241 18.9225 30.6241H3.81055C3.67794 30.6241 3.55076 30.6768 3.45699 30.7706C3.36323 30.8644 3.31055 30.9915 3.31055 31.1241C3.31055 31.2567 3.36323 31.3839 3.45699 31.4777C3.55076 31.5715 3.67794 31.6241 3.81055 31.6241Z" fill="#CACEEC"/>
</g>
<defs>
<clipPath id="clip0_23_4334">
<rect width="32" height="32" fill="white"/>
</clipPath>
</defs>
</svg>
