<svg width="32" height="32" viewBox="0 0 32 32" fill="none" xmlns="http://www.w3.org/2000/svg">
<g clip-path="url(#clip0_23_4321)">
<path d="M16.0007 25.0512C20.9997 25.0512 25.0522 20.9987 25.0522 15.9997C25.0522 11.0007 20.9997 6.94824 16.0007 6.94824C11.0017 6.94824 6.94922 11.0007 6.94922 15.9997C6.94922 20.9987 11.0017 25.0512 16.0007 25.0512Z" fill="#EEDB77"/>
<path d="M16 3.55306C15.9365 3.55307 15.8736 3.54057 15.8149 3.51627C15.7563 3.49197 15.703 3.45635 15.6581 3.41145C15.6131 3.36654 15.5775 3.31323 15.5532 3.25456C15.5289 3.19589 15.5164 3.133 15.5164 3.0695V0.483562C15.5164 0.216437 15.7329 0 16 0C16.2671 0 16.4836 0.216437 16.4836 0.483562V3.06956C16.4836 3.13306 16.4711 3.19594 16.4468 3.2546C16.4225 3.31327 16.3868 3.36657 16.3419 3.41147C16.297 3.45637 16.2437 3.49198 16.185 3.51628C16.1264 3.54057 16.0635 3.55307 16 3.55306ZM9.53519 5.2855C9.45023 5.2856 9.36674 5.2633 9.29314 5.22085C9.21955 5.17839 9.15845 5.11729 9.116 5.04369L7.82306 2.80419C7.75894 2.69312 7.74156 2.56113 7.77476 2.43725C7.80795 2.31337 7.889 2.20775 8.00006 2.14363C8.11113 2.0795 8.24312 2.06212 8.367 2.09532C8.49088 2.12851 8.5965 2.20956 8.66063 2.32063L9.95356 4.56012C9.99599 4.63361 10.0183 4.71696 10.0184 4.80181C10.0184 4.88667 9.99608 4.97003 9.95369 5.04354C9.91129 5.11704 9.8503 5.17809 9.77684 5.22057C9.70338 5.26304 9.62004 5.28543 9.53519 5.2855ZM4.80144 10.0184C4.71669 10.0184 4.63344 9.99601 4.56012 9.9535L2.32063 8.66056C2.21168 8.59537 2.13275 8.48996 2.10085 8.36708C2.06895 8.2442 2.08665 8.1137 2.15013 8.00375C2.2136 7.89381 2.31777 7.81323 2.44013 7.77941C2.5625 7.74559 2.69326 7.76125 2.80419 7.823L5.04369 9.11594C5.13591 9.16919 5.20798 9.2514 5.2487 9.34979C5.28943 9.44819 5.29654 9.55728 5.26893 9.66014C5.24132 9.76299 5.18054 9.85385 5.09601 9.91863C5.01148 9.9834 4.90793 10.0185 4.80144 10.0184ZM3.0695 16.4836H0.483562C0.2165 16.4836 0 16.2671 0 16C0 15.7329 0.2165 15.5164 0.483562 15.5164H3.06956C3.19781 15.5164 3.3208 15.5674 3.41148 15.6581C3.50216 15.7488 3.5531 15.8718 3.55309 16C3.55309 16.1283 3.50213 16.2513 3.41144 16.342C3.32075 16.4326 3.19775 16.4836 3.0695 16.4836ZM2.56281 24.2418C2.45632 24.2419 2.35277 24.2069 2.26823 24.1421C2.1837 24.0773 2.12292 23.9865 2.09531 23.8836C2.06771 23.7807 2.07483 23.6717 2.11557 23.5733C2.15631 23.4749 2.22839 23.3927 2.32063 23.3394L4.56012 22.0465C4.67105 21.9848 4.80181 21.9691 4.92418 22.0029C5.04655 22.0367 5.15071 22.1173 5.21419 22.2273C5.27766 22.3372 5.29536 22.4677 5.26346 22.5906C5.23157 22.7135 5.15263 22.8189 5.04369 22.8841L2.80419 24.177C2.73083 24.2195 2.64757 24.2418 2.56281 24.2418ZM8.24137 29.9212C8.15652 29.9212 8.07319 29.8987 7.99974 29.8563C7.9263 29.8138 7.86532 29.7527 7.82293 29.6792C7.78055 29.6057 7.75825 29.5223 7.75827 29.4375C7.75829 29.3526 7.78064 29.2693 7.82306 29.1958L9.116 26.9563C9.18119 26.8474 9.2866 26.7684 9.40948 26.7365C9.53236 26.7046 9.66286 26.7223 9.77281 26.7858C9.88276 26.8493 9.96333 26.9535 9.99715 27.0758C10.031 27.1982 10.0153 27.3289 9.95356 27.4399L8.66063 29.6794C8.61816 29.753 8.55705 29.8141 8.48345 29.8566C8.40984 29.899 8.32635 29.9213 8.24137 29.9212ZM16 32C15.9365 32 15.8736 31.9875 15.8149 31.9632C15.7563 31.9389 15.703 31.9033 15.6581 31.8584C15.6131 31.8135 15.5775 31.7602 15.5532 31.7015C15.5289 31.6428 15.5164 31.5799 15.5164 31.5164V28.9304C15.5164 28.6633 15.7329 28.4469 16 28.4469C16.2671 28.4469 16.4836 28.6633 16.4836 28.9304V31.5164C16.4836 31.5799 16.4711 31.6428 16.4468 31.7015C16.4225 31.7602 16.3869 31.8135 16.3419 31.8584C16.297 31.9033 16.2437 31.9389 16.1851 31.9632C16.1264 31.9875 16.0635 32 16 32ZM23.7586 29.9212C23.6737 29.9214 23.5902 29.899 23.5166 29.8566C23.443 29.8141 23.3819 29.753 23.3394 29.6794L22.0465 27.4399C21.9824 27.3289 21.965 27.1969 21.9982 27.073C22.0314 26.9491 22.1124 26.8435 22.2235 26.7794C22.3346 26.7153 22.4666 26.6979 22.5904 26.7311C22.7143 26.7643 22.8199 26.8453 22.8841 26.9564L24.177 29.1959C24.2194 29.2694 24.2418 29.3527 24.2418 29.4376C24.2418 29.5224 24.2195 29.6058 24.1771 29.6793C24.1347 29.7528 24.0737 29.8138 24.0003 29.8563C23.9268 29.8988 23.8435 29.9212 23.7586 29.9212ZM29.4372 24.2418C29.3524 24.2418 29.2692 24.2194 29.1959 24.1769L26.9564 22.884C26.8474 22.8188 26.7685 22.7134 26.7366 22.5905C26.7047 22.4676 26.7224 22.3371 26.7859 22.2272C26.8494 22.1172 26.9535 22.0367 27.0759 22.0028C27.1983 21.969 27.329 21.9847 27.4399 22.0464L29.6794 23.3394C29.7717 23.3926 29.8437 23.4748 29.8845 23.5732C29.9252 23.6716 29.9323 23.7807 29.9047 23.8836C29.8771 23.9864 29.8163 24.0773 29.7318 24.1421C29.6472 24.2068 29.5437 24.2419 29.4372 24.2418ZM31.5164 16.4836H28.9304C28.6634 16.4836 28.4469 16.2671 28.4469 16C28.4469 15.7329 28.6634 15.5164 28.9304 15.5164H31.5164C31.7835 15.5164 32 15.7329 32 16C32 16.2671 31.7835 16.4836 31.5164 16.4836ZM27.1986 10.0184C27.0921 10.0185 26.9885 9.98342 26.904 9.91865C26.8195 9.85388 26.7587 9.76301 26.7311 9.66016C26.7035 9.5573 26.7106 9.44821 26.7513 9.34982C26.7921 9.25143 26.8641 9.16923 26.9564 9.116L29.1959 7.82306C29.3068 7.76131 29.4376 7.74566 29.5599 7.77947C29.6823 7.81329 29.7865 7.89387 29.8499 8.00382C29.9134 8.11376 29.9311 8.24426 29.8992 8.36714C29.8673 8.49002 29.7884 8.59544 29.6794 8.66063L27.4399 9.95356C27.3666 9.99602 27.2833 10.0184 27.1986 10.0184ZM22.4648 5.2855C22.38 5.28541 22.2966 5.263 22.2232 5.22051C22.1497 5.17803 22.0888 5.11697 22.0464 5.04346C22.004 4.96996 21.9817 4.8866 21.9817 4.80175C21.9817 4.7169 22.0041 4.63354 22.0465 4.56006L23.3394 2.32056C23.4046 2.21162 23.51 2.13268 23.6329 2.10079C23.7558 2.06889 23.8863 2.08659 23.9962 2.15006C24.1062 2.21354 24.1868 2.3177 24.2206 2.44007C24.2544 2.56244 24.2387 2.6932 24.177 2.80413L22.8841 5.04362C22.8416 5.11723 22.7805 5.17835 22.7069 5.22081C22.6333 5.26327 22.5498 5.28559 22.4648 5.2855Z" fill="#EEDB77"/>
</g>
<defs>
<clipPath id="clip0_23_4321">
<rect width="32" height="32" fill="white"/>
</clipPath>
</defs>
</svg>
