<svg width="19" height="18" viewBox="0 0 19 18" fill="none" xmlns="http://www.w3.org/2000/svg">
<path d="M11.75 17.0625H7.25C3.1775 17.0625 1.4375 15.3225 1.4375 11.25V6.75003C1.4375 2.67753 3.1775 0.937531 7.25 0.937531H8.75C9.0575 0.937531 9.3125 1.19253 9.3125 1.50003C9.3125 1.80753 9.0575 2.06253 8.75 2.06253H7.25C3.7925 2.06253 2.5625 3.29253 2.5625 6.75003V11.25C2.5625 14.7075 3.7925 15.9375 7.25 15.9375H11.75C15.2075 15.9375 16.4375 14.7075 16.4375 11.25V9.75003C16.4375 9.44253 16.6925 9.18753 17 9.18753C17.3075 9.18753 17.5625 9.44253 17.5625 9.75003V11.25C17.5625 15.3225 15.8225 17.0625 11.75 17.0625Z" fill="#626262"/>
<path d="M6.875 13.2675C6.4175 13.2675 5.9975 13.1025 5.69 12.8025C5.3225 12.435 5.165 11.9025 5.2475 11.34L5.57 9.08254C5.63 8.64754 5.915 8.08504 6.2225 7.77754L12.1325 1.86754C13.625 0.375044 15.14 0.375044 16.6325 1.86754C17.45 2.68504 17.8175 3.51754 17.7425 4.35004C17.675 5.02504 17.315 5.68504 16.6325 6.36004L10.7225 12.27C10.415 12.5775 9.8525 12.8625 9.4175 12.9225L7.16 13.245C7.0625 13.2675 6.965 13.2675 6.875 13.2675ZM12.9275 2.66254L7.0175 8.57254C6.875 8.71504 6.71 9.04504 6.68 9.24004L6.3575 11.4975C6.3275 11.715 6.3725 11.895 6.485 12.0075C6.5975 12.12 6.7775 12.165 6.995 12.135L9.2525 11.8125C9.4475 11.7825 9.785 11.6175 9.92 11.475L15.83 5.56504C16.3175 5.07754 16.5725 4.64254 16.61 4.23754C16.655 3.75004 16.4 3.23254 15.83 2.65504C14.63 1.45504 13.805 1.79254 12.9275 2.66254Z" fill="#626262"/>
<path d="M15.3877 7.37252C15.3352 7.37252 15.2827 7.36502 15.2377 7.35002C13.2652 6.79502 11.6977 5.22752 11.1427 3.25502C11.0602 2.95502 11.2327 2.64752 11.5327 2.55752C11.8327 2.47502 12.1402 2.64752 12.2227 2.94752C12.6727 4.54502 13.9402 5.81252 15.5377 6.26252C15.8377 6.34502 16.0102 6.66002 15.9277 6.96002C15.8602 7.21502 15.6352 7.37252 15.3877 7.37252Z" fill="#626262"/>
</svg>
