<svg width="32" height="32" viewBox="0 0 32 32" fill="none" xmlns="http://www.w3.org/2000/svg">
<path d="M15.7449 12.18C15.6123 12.18 15.4851 12.1273 15.3913 12.0336C15.2975 11.9398 15.2449 11.8126 15.2449 11.68V8.125C15.2449 8.05934 15.2578 7.99432 15.2829 7.93366C15.3081 7.873 15.3449 7.81788 15.3913 7.77145C15.4377 7.72502 15.4929 7.68819 15.5535 7.66306C15.6142 7.63793 15.6792 7.625 15.7449 7.625C15.8105 7.625 15.8755 7.63793 15.9362 7.66306C15.9969 7.68819 16.052 7.72502 16.0984 7.77145C16.1448 7.81788 16.1817 7.873 16.2068 7.93366C16.2319 7.99432 16.2449 8.05934 16.2449 8.125V11.68C16.2449 11.8126 16.1922 11.9398 16.0984 12.0336C16.0047 12.1273 15.8775 12.18 15.7449 12.18ZM24.3699 15.75C24.3041 15.7504 24.2388 15.7378 24.1779 15.7129C24.117 15.688 24.0616 15.6513 24.0149 15.605C23.9217 15.5113 23.8695 15.3846 23.8695 15.2525C23.8695 15.1204 23.9217 14.9937 24.0149 14.9L26.5149 12.4C26.5613 12.3531 26.6166 12.3159 26.6776 12.2906C26.7385 12.2652 26.8039 12.2521 26.8699 12.2521C26.9359 12.2521 27.0012 12.2652 27.0622 12.2906C27.1231 12.3159 27.1784 12.3531 27.2249 12.4C27.318 12.4937 27.3703 12.6204 27.3703 12.7525C27.3703 12.8846 27.318 13.0113 27.2249 13.105L24.7249 15.605C24.6781 15.6513 24.6227 15.688 24.5618 15.7129C24.5009 15.7378 24.4357 15.7504 24.3699 15.75ZM7.11987 15.75C6.9887 15.7494 6.863 15.6974 6.76987 15.605L4.26987 13.105C4.17674 13.0113 4.12447 12.8846 4.12447 12.7525C4.12447 12.6204 4.17674 12.4937 4.26987 12.4C4.31635 12.3531 4.37165 12.3159 4.43258 12.2906C4.49351 12.2652 4.55886 12.2521 4.62487 12.2521C4.69087 12.2521 4.75623 12.2652 4.81716 12.2906C4.87809 12.3159 4.93339 12.3531 4.97987 12.4L7.47987 14.9C7.57299 14.9937 7.62526 15.1204 7.62526 15.2525C7.62526 15.3846 7.57299 15.5113 7.47987 15.605C7.43255 15.6519 7.37633 15.689 7.31451 15.7139C7.25269 15.7388 7.18651 15.751 7.11987 15.75ZM20.3899 13.1C20.323 13.0988 20.2569 13.0852 20.1949 13.06C20.0733 13.0091 19.9767 12.9123 19.9261 12.7906C19.8756 12.6688 19.8751 12.5321 19.9249 12.41L21.2799 9.12C21.3048 9.05926 21.3415 9.00404 21.3878 8.95747C21.4341 8.91091 21.4891 8.87392 21.5497 8.84861C21.6103 8.82331 21.6753 8.81019 21.7409 8.81C21.8066 8.8098 21.8716 8.82255 21.9324 8.8475C21.9931 8.87245 22.0483 8.90912 22.0949 8.95542C22.1415 9.00171 22.1785 9.05672 22.2038 9.11731C22.2291 9.1779 22.2422 9.24288 22.2424 9.30855C22.2426 9.37421 22.2298 9.43926 22.2049 9.5L20.8499 12.79C20.8124 12.8813 20.7487 12.9595 20.6668 13.0146C20.5849 13.0698 20.4886 13.0995 20.3899 13.1ZM4.46487 19.735C4.39993 19.7351 4.33552 19.7232 4.27487 19.7L0.999868 18.345C0.877205 18.2939 0.779848 18.1963 0.729213 18.0734C0.678578 17.9506 0.678814 17.8127 0.729868 17.69C0.780922 17.5673 0.878613 17.47 1.00145 17.4193C1.12429 17.3687 1.26221 17.3689 1.38487 17.42L4.66987 18.775C4.77545 18.82 4.86235 18.8999 4.91599 19.0013C4.96964 19.1027 4.98675 19.2195 4.96448 19.3321C4.9422 19.4447 4.88188 19.5462 4.79364 19.6195C4.7054 19.6929 4.59461 19.7337 4.47987 19.735H4.46487ZM26.9999 19.685C26.8825 19.6877 26.7679 19.649 26.6762 19.5758C26.5845 19.5025 26.5215 19.3992 26.4982 19.2842C26.475 19.1691 26.4929 19.0495 26.549 18.9464C26.6051 18.8432 26.6957 18.7631 26.8049 18.72L30.0899 17.355C30.2119 17.3006 30.3505 17.297 30.4752 17.3448C30.5999 17.3926 30.7005 17.488 30.7549 17.61C30.8092 17.732 30.8129 17.8706 30.7651 17.9953C30.7173 18.12 30.6219 18.2206 30.4999 18.275L27.2149 19.645C27.147 19.674 27.0736 19.6877 26.9999 19.685ZM11.0549 13.12C10.9553 13.1205 10.8579 13.0913 10.775 13.036C10.6922 12.9808 10.6277 12.9021 10.5899 12.81L9.21987 9.53C9.19459 9.46926 9.18152 9.40414 9.18141 9.33836C9.18129 9.27257 9.19414 9.2074 9.21921 9.14658C9.24428 9.08576 9.28109 9.03047 9.32753 8.98387C9.37397 8.93727 9.42913 8.90028 9.48987 8.875C9.61253 8.82395 9.75045 8.82371 9.87329 8.87434C9.99612 8.92498 10.0938 9.02234 10.1449 9.145L11.4999 12.425C11.5253 12.4857 11.5384 12.5509 11.5386 12.6167C11.5388 12.6825 11.526 12.7477 11.5009 12.8086C11.4758 12.8694 11.439 12.9247 11.3924 12.9713C11.3459 13.0179 11.2907 13.0548 11.2299 13.08C11.1742 13.103 11.115 13.1165 11.0549 13.12ZM6.08987 23.875C6.08987 21.3143 7.10709 18.8585 8.91775 17.0479C10.7284 15.2372 13.1842 14.22 15.7449 14.22C18.3055 14.22 20.7613 15.2372 22.572 17.0479C24.3826 18.8585 25.3999 21.3143 25.3999 23.875" fill="#FFA07A"/>
<path d="M31.5 24.375H0.5C0.367392 24.375 0.240215 24.3223 0.146447 24.2286C0.0526784 24.1348 0 24.0076 0 23.875C0 23.7424 0.0526784 23.6152 0.146447 23.5214C0.240215 23.4277 0.367392 23.375 0.5 23.375H31.5C31.6326 23.375 31.7598 23.4277 31.8536 23.5214C31.9473 23.6152 32 23.7424 32 23.875C32 24.0076 31.9473 24.1348 31.8536 24.2286C31.7598 24.3223 31.6326 24.375 31.5 24.375Z" fill="#E0DFDE"/>
</svg>
