<svg width="19" height="18" viewBox="0 0 19 18" fill="none" xmlns="http://www.w3.org/2000/svg">
<path d="M12.9247 7.01385V13.0021H5.8418V7.01385L6.4857 8.0441H12.2808L12.9247 7.01385Z" fill="#3E5959"/>
<path d="M8.19212 11.811L5.91905 12.3237C4.74445 12.5887 3.91016 13.6321 3.91016 14.8362V16.6107C3.91016 16.7815 4.04866 16.9201 4.21953 16.9201H14.5471C14.718 16.9201 14.8565 16.7815 14.8565 16.6107V14.8362C14.8565 13.6321 14.0222 12.5886 12.8476 12.3237L10.5745 11.811L8.19212 11.811Z" fill="#D5BBA9"/>
<path d="M13.5684 12.6054V16.92H14.5468C14.7177 16.92 14.8562 16.7815 14.8562 16.6106V14.8362C14.8562 13.8972 14.3488 13.056 13.5684 12.6054Z" fill="#E1B791"/>
<path d="M9.38262 13.0022C8.72474 13.0022 8.19141 12.4689 8.19141 11.811V10.6198H10.5738V11.811C10.5739 12.4689 10.0405 13.0022 9.38262 13.0022Z" fill="#F6A96C"/>
<path d="M9.38195 10.9417C7.78168 10.9417 6.48438 9.64438 6.48438 8.04411V3.29022H12.2795V8.04411C12.2795 9.64438 10.9822 10.9417 9.38195 10.9417Z" fill="#FED2A4"/>
<path d="M11.2496 3.29028V8.04417C11.2496 9.46866 10.2217 10.653 8.86719 10.8961C9.0372 10.9265 9.20958 10.9418 9.3823 10.9417C10.9826 10.9417 12.2799 9.64447 12.2799 8.0442V3.29028H11.2496Z" fill="#FFBD86"/>
<path d="M5.8418 4.34132V7.01389L6.4857 6.50655H8.41741C9.83988 6.50655 10.993 5.35341 10.993 3.93094V1.91722C10.993 1.41371 10.5517 1.02414 10.0521 1.08661L8.54917 1.27446C7.00248 1.46782 5.8418 2.7826 5.8418 4.34132Z" fill="#678D98"/>
<path d="M10.4267 1.12518C10.3824 2.41113 9.82519 3.74438 8.77631 4.79329C7.92612 5.64348 6.88903 6.17084 5.8418 6.36368V7.01398L6.4857 6.50664H8.41741C9.83988 6.50664 10.993 5.3535 10.993 3.93103V1.91731C10.993 1.54606 10.753 1.23702 10.4267 1.12518Z" fill="#537983"/>
<path d="M10.9922 1.93488V4.69586C10.9922 5.40708 11.5688 5.98367 12.28 5.98367L12.9239 6.90542V4.00231C12.9239 2.99507 12.1957 2.13544 11.2022 1.96987L10.9922 1.93488Z" fill="#3E5959"/>
<path d="M12.5378 8.04414H12.2802V5.98364H12.5378C13.1068 5.98364 13.568 6.44489 13.568 7.01389C13.568 7.58289 13.1068 8.04414 12.5378 8.04414ZM6.22755 8.04414H6.4851V6.11244C6.4851 6.07828 6.47153 6.04552 6.44738 6.02137C6.42322 5.99721 6.39047 5.98364 6.35631 5.98364H6.22752C5.65851 5.98364 5.19727 6.44489 5.19727 7.01389C5.1973 7.58289 5.65854 8.04414 6.22755 8.04414Z" fill="#F6A96C"/>
<path d="M6.72949 1.42002L6.28062 2.03867C6.27108 2.05183 6.25904 2.06298 6.24518 2.07148C6.23133 2.07998 6.21594 2.08567 6.19989 2.08823C6.18384 2.09078 6.16744 2.09015 6.15164 2.08636C6.13583 2.08258 6.12093 2.07572 6.10777 2.06618L5.14831 1.37002C5.04411 1.29441 4.90808 1.40841 4.96432 1.52424L6.02984 3.71898C6.07068 3.80307 6.18641 3.81328 6.24133 3.73761L6.6902 3.11895C6.69974 3.10579 6.71178 3.09464 6.72564 3.08614C6.73949 3.07764 6.75488 3.07195 6.77093 3.0694C6.78698 3.06684 6.80338 3.06747 6.81918 3.07126C6.83499 3.07504 6.84989 3.0819 6.86305 3.09145L7.82254 3.7876C7.92674 3.86321 8.06277 3.74921 8.00653 3.63338L6.94098 1.43864C6.90014 1.35455 6.78441 1.34434 6.72949 1.42002Z" fill="#FFE177"/>
<path d="M12.9244 15.4001C12.8628 15.4001 12.8038 15.4245 12.7603 15.468C12.7168 15.5116 12.6923 15.5706 12.6923 15.6321V16.9199H13.1564V15.6321C13.1564 15.5706 13.1319 15.5116 13.0884 15.468C13.0449 15.4245 12.9859 15.4001 12.9244 15.4001ZM5.84141 15.4001C5.77987 15.4001 5.72085 15.4245 5.67734 15.468C5.63382 15.5116 5.60938 15.5706 5.60938 15.6321V16.9199H6.07344V15.6321C6.07344 15.5706 6.04899 15.5116 6.00548 15.468C5.96196 15.4245 5.90294 15.4001 5.84141 15.4001Z" fill="#E1B791"/>
<path d="M3.89769 5.1185C3.74492 5.1185 3.63886 5.04137 3.57046 4.99162C3.55221 4.97835 3.52511 4.95868 3.51338 4.95388C3.51225 4.95407 3.51113 4.95428 3.51001 4.95453C3.45 4.96816 3.38703 4.9574 3.33495 4.9246C3.28288 4.89181 3.24596 4.83967 3.23233 4.77966C3.2187 4.71964 3.22946 4.65667 3.26226 4.6046C3.29505 4.55252 3.34719 4.51561 3.4072 4.50198C3.61977 4.45371 3.7597 4.55547 3.84333 4.61626C3.86158 4.62953 3.88868 4.64921 3.90044 4.654L3.90381 4.65335C3.90523 4.65304 3.90629 4.65274 3.90706 4.65252C3.91557 4.64311 3.93147 4.61369 3.9422 4.59386C3.99133 4.50291 4.0736 4.35066 4.28614 4.3024C4.49865 4.25414 4.63861 4.35589 4.72223 4.41665C4.74048 4.42992 4.76759 4.4496 4.77931 4.4544L4.78268 4.45375C4.8124 4.44699 4.84315 4.44616 4.87319 4.45129C4.90323 4.45643 4.93196 4.46743 4.95775 4.48367C4.98353 4.49991 5.00586 4.52107 5.02347 4.54595C5.04107 4.57082 5.0536 4.59892 5.06035 4.62864C5.0671 4.65835 5.06794 4.6891 5.0628 4.71914C5.05767 4.74917 5.04667 4.7779 5.03043 4.80369C5.0142 4.82947 4.99304 4.8518 4.96817 4.86941C4.9433 4.88702 4.9152 4.89955 4.88549 4.9063C4.67289 4.95453 4.53299 4.85281 4.44936 4.79202C4.43111 4.77874 4.40404 4.7591 4.39228 4.7543C4.39116 4.75449 4.39005 4.75471 4.38894 4.75495C4.38752 4.75529 4.38644 4.7556 4.38566 4.75582C4.37716 4.76519 4.36122 4.79461 4.35052 4.81448C4.30139 4.9054 4.21916 5.05765 4.00665 5.10591C3.97091 5.11416 3.93436 5.11839 3.89769 5.1185ZM5.0408 3.99166C5.02013 3.99165 4.99956 3.98888 4.97963 3.98343C4.76935 3.92614 4.69371 3.77052 4.64851 3.67755C4.63867 3.65729 4.62404 3.62725 4.6159 3.61747C4.61484 3.61709 4.61377 3.61676 4.61268 3.61648C4.61159 3.61616 4.61049 3.6159 4.60937 3.61571C4.59743 3.61998 4.56956 3.63848 4.55078 3.65095C4.46462 3.70812 4.32048 3.80384 4.1102 3.74651C3.89988 3.68922 3.82421 3.53363 3.77898 3.44067C3.76911 3.42037 3.75445 3.39024 3.74631 3.38052C3.74522 3.38015 3.74411 3.37981 3.743 3.3795C3.68362 3.36333 3.6331 3.32423 3.60256 3.2708C3.57201 3.21738 3.56394 3.15401 3.58011 3.09463C3.59629 3.03525 3.63539 2.98474 3.68881 2.95419C3.74224 2.92364 3.80561 2.91557 3.86498 2.93174C4.0753 2.98904 4.151 3.14463 4.19623 3.23762C4.2061 3.25792 4.22077 3.28802 4.2289 3.29773C4.23106 3.29848 4.23326 3.29908 4.23549 3.29953C4.24743 3.29526 4.27531 3.27676 4.29409 3.26429C4.38025 3.20712 4.52436 3.1114 4.73467 3.16873C4.94495 3.22602 5.02059 3.38164 5.06579 3.4746C5.07563 3.49487 5.09026 3.52491 5.0984 3.53469C5.09914 3.53496 5.10023 3.5353 5.10162 3.53568C5.15591 3.55039 5.20301 3.58432 5.23416 3.63116C5.2653 3.678 5.27837 3.73455 5.27093 3.79031C5.2635 3.84607 5.23606 3.89722 5.19373 3.93426C5.15139 3.9713 5.09704 3.9917 5.0408 3.99166Z" fill="#FDB4BA"/>
<path d="M9.81512 9.41123C9.78464 9.41127 9.75445 9.40528 9.72629 9.39362C9.69813 9.38195 9.67256 9.36484 9.65103 9.34326C9.50309 9.19525 9.26215 9.19519 9.11414 9.34326C9.07056 9.38646 9.01165 9.41064 8.95028 9.41051C8.88892 9.41038 8.83011 9.38594 8.78672 9.34256C8.74333 9.29917 8.71889 9.24036 8.71875 9.179C8.71861 9.11763 8.74279 9.05872 8.78599 9.01513C8.94534 8.85578 9.15724 8.76801 9.38262 8.76801C9.60796 8.76801 9.81986 8.85574 9.97921 9.01513C10.0117 9.04759 10.0338 9.08893 10.0427 9.13394C10.0517 9.17895 10.0471 9.2256 10.0295 9.268C10.0119 9.3104 9.98219 9.34664 9.94403 9.37213C9.90587 9.39762 9.86101 9.41123 9.81512 9.41123Z" fill="#F6A96C"/>
</svg>
