<svg width="19" height="18" viewBox="0 0 19 18" fill="none" xmlns="http://www.w3.org/2000/svg">
<path d="M3.69728 11.6565L2.97439 11.2611C2.95027 11.2479 2.93043 11.2281 2.91723 11.204L2.52193 10.4811C2.46741 10.3814 2.32421 10.3814 2.26965 10.4811L1.87432 11.204C1.86112 11.2281 1.84129 11.2479 1.81716 11.2611L1.09431 11.6565C0.994605 11.711 0.994605 11.8542 1.09431 11.9088L1.81716 12.3041C1.84129 12.3173 1.86112 12.3371 1.87432 12.3612L2.26965 13.0841C2.32418 13.1838 2.46741 13.1838 2.52193 13.0841L2.91727 12.3612C2.93046 12.3371 2.9503 12.3173 2.97443 12.3041L3.69728 11.9088C3.79698 11.8542 3.79698 11.711 3.69728 11.6565ZM16.989 11.1494L16.2662 10.7541C16.242 10.7409 16.2222 10.721 16.209 10.6969L15.8137 9.97407C15.7591 9.87437 15.6159 9.87437 15.5614 9.97407L15.1661 10.6969C15.1529 10.721 15.133 10.7409 15.1089 10.7541L14.386 11.1494C14.2863 11.2039 14.2863 11.3471 14.386 11.4017L15.1089 11.797C15.133 11.8102 15.1529 11.8301 15.1661 11.8542L15.5614 12.577C15.6159 12.6767 15.7591 12.6767 15.8137 12.577L16.209 11.8542C16.2222 11.8301 16.242 11.8102 16.2662 11.797L16.989 11.4017C17.0887 11.3472 17.0887 11.204 16.989 11.1494Z" fill="#FFCB12"/>
<path d="M12.1972 13.7264C11.9908 14.7194 11.307 16.3804 9.04196 16.3804C6.77694 16.3804 6.09316 14.7194 5.88672 13.7264L7.51108 13.2617C7.66347 13.2182 7.79757 13.1263 7.89316 12.9998C7.98937 12.8728 8.04139 12.7177 8.04127 12.5584V11.5291H10.0426V12.5584C10.0426 12.722 10.097 12.876 10.1908 12.9998C10.2863 13.1263 10.4204 13.2182 10.5728 13.2617L12.1972 13.7264Z" fill="#FFCBBE"/>
<path d="M10.5722 13.2617C10.4198 13.2182 10.2857 13.1263 10.1901 12.9998C10.0939 12.8728 10.0419 12.7177 10.042 12.5584V11.5291H8.9555V12.5584C8.9555 12.722 9.00982 12.876 9.10361 12.9998C9.1992 13.1263 9.3333 13.2182 9.48569 13.2617L11.1101 13.7264C10.9212 14.6351 10.3323 16.1028 8.49805 16.3456C8.66827 16.3681 8.84894 16.3804 9.04132 16.3804C11.3063 16.3804 11.9901 14.7194 12.1966 13.7264L10.5722 13.2617Z" fill="#EAAC9D"/>
<path d="M14.3792 15.9359V17.5995C14.3792 17.8206 14.1999 17.9999 13.9788 17.9999H4.10551C3.88437 17.9999 3.70508 17.8206 3.70508 17.5995V15.9359C3.70508 14.9508 4.34457 14.08 5.28395 13.785L7.42391 13.1128C7.50301 13.0879 7.58703 13.1357 7.60566 13.2165C7.70375 13.6402 8.06305 14.498 9.04215 14.498C10.0213 14.498 10.3805 13.6402 10.4786 13.2165C10.4973 13.1357 10.5813 13.0879 10.6604 13.1128L12.8004 13.785C13.7397 14.08 14.3792 14.9508 14.3792 15.9359Z" fill="#D5BBA9"/>
<path d="M12.7996 13.7851L10.6599 13.113C10.5806 13.0881 10.4967 13.1356 10.4779 13.2166C10.4649 13.2726 10.4494 13.3279 10.4316 13.3826L11.7131 13.7851C12.6527 14.0802 13.292 14.9511 13.292 15.9359V17.5997C13.292 17.8208 13.1128 18 12.8917 18H13.9782C14.1993 18 14.3785 17.8208 14.3785 17.5997V15.9359C14.3785 14.9511 13.7392 14.0802 12.7996 13.7851Z" fill="#E1B791"/>
<path d="M5.66652 7.48403C5.66652 8.37282 5.123 9.09331 4.45254 9.09331C3.78207 9.09331 3.39258 8.26587 3.39258 7.37709C3.39258 6.4883 3.78207 5.87476 4.45254 5.87476C5.123 5.87476 5.66652 6.59525 5.66652 7.48403Z" fill="#EAAC9D"/>
<path d="M12.7544 5.73463V8.38611C12.7544 10.5194 11.0529 12.2554 8.93293 12.3106H8.93012C7.89125 12.2835 6.95328 11.8515 6.26844 11.1663C5.56074 10.4586 5.12305 9.48088 5.12305 8.40088V5.73463C5.12305 3.60557 6.8218 1.87271 8.9375 1.81787H8.93996C9.98059 1.84494 10.9207 2.27771 11.6069 2.96396C12.3157 3.67307 12.7544 4.65252 12.7544 5.73463Z" fill="#FFCBBE"/>
<path d="M12.418 7.48403C12.418 8.37282 12.9615 9.09331 13.6319 9.09331C14.3024 9.09331 14.6919 8.26587 14.6919 7.37709C14.6919 6.4883 14.3024 5.87476 13.6319 5.87476C12.9615 5.87476 12.418 6.59525 12.418 7.48403Z" fill="#EAAC9D"/>
<path d="M9.04231 1.81665C8.85795 1.81665 8.67665 1.82969 8.49904 1.8543C10.4058 2.11882 11.874 3.75527 11.874 5.73488V8.38633C11.874 10.3698 10.4029 12.0095 8.49219 12.2743C8.67202 12.2993 8.85336 12.3119 9.03493 12.312C11.203 12.312 12.9605 10.5544 12.9605 8.38633V5.73488C12.9605 3.57091 11.2063 1.81665 9.04231 1.81665Z" fill="#EAAC9D"/>
<path d="M13.1587 6.57995C13.102 6.70205 13.0549 6.92251 13.0208 7.12322C13.0076 7.20049 12.8973 7.20179 12.8825 7.1248C12.6905 6.12534 12.1461 3.75638 11.329 3.94369C10.2957 4.18054 9.87014 4.35259 9.00674 4.35259C8.14295 4.35259 7.71742 4.18057 6.68449 3.94369C5.84704 3.75177 5.34146 6.24157 5.1797 7.1936C5.16691 7.26887 5.06014 7.27249 5.04214 7.19831C4.9893 6.98034 4.91839 6.7178 4.8544 6.57991C4.7979 6.45873 4.44736 5.33893 4.56162 4.11121C4.56514 4.07324 4.53736 4.03878 4.49946 4.0346C4.24047 4.00616 4.05214 3.93757 3.96934 3.90259C3.95565 3.89691 3.9441 3.88706 3.93632 3.87445C3.92853 3.86184 3.92491 3.8471 3.92596 3.83231C4.07664 1.89362 6.0629 0 7.94267 0C8.91259 0 9.34744 0.361934 9.54112 0.715605C9.55286 0.737051 9.57451 0.751254 9.59895 0.752766C14.9378 1.08193 13.3451 6.17931 13.1587 6.57995Z" fill="#8B5E5E"/>
<path d="M9.559 0.75041C9.37503 0.386086 8.94401 0 7.94227 0C7.76726 0 7.5913 0.0164883 7.41602 0.0478125C7.89414 0.137004 8.28508 0.490043 8.50248 0.77734C8.60511 0.912938 8.75941 0.999598 8.92893 1.01289C12.2475 1.27283 12.5883 3.61385 12.3913 5.23016C12.6263 5.89405 12.7926 6.65859 12.8822 7.12491C12.897 7.20186 13.0073 7.20046 13.0204 7.12322C13.0546 6.92251 13.1017 6.70205 13.1583 6.57995C13.3452 6.17832 14.9452 1.05683 9.559 0.75041Z" fill="#785252"/>
<path d="M8.7812 1.46918C8.76003 1.44178 8.73367 1.41881 8.70363 1.4016C8.67358 1.38438 8.64044 1.37325 8.60609 1.36884C8.57175 1.36444 8.53687 1.36684 8.50345 1.37591C8.47003 1.38498 8.43873 1.40055 8.41132 1.42172C8.39663 1.43304 6.92861 2.56079 5.66316 2.98836C5.63017 2.99929 5.59967 3.01663 5.5734 3.0394C5.54714 3.06216 5.52564 3.08989 5.51013 3.12099C5.49462 3.15209 5.48541 3.18595 5.48304 3.22062C5.48066 3.2553 5.48517 3.2901 5.49629 3.32302C5.50741 3.35595 5.52493 3.38635 5.54784 3.41248C5.57076 3.43861 5.59861 3.45996 5.6298 3.47529C5.66099 3.49061 5.6949 3.49963 5.72959 3.5018C5.76427 3.50398 5.79905 3.49927 5.83191 3.48796C7.18026 3.03237 8.67088 1.88754 8.73367 1.83903C8.76108 1.81787 8.78406 1.79152 8.80128 1.76148C8.81851 1.73144 8.82965 1.6983 8.83406 1.66395C8.83848 1.62961 8.83608 1.59473 8.82701 1.56131C8.81794 1.52789 8.80237 1.49659 8.7812 1.46918Z" fill="#785252"/>
<path d="M6.14117 16.7978L6.07332 18.0001H5.54492L5.61453 16.7679C5.62262 16.6227 5.74812 16.5119 5.89262 16.5197C6.03816 16.5278 6.14926 16.6522 6.14117 16.7978ZM12.5389 18.0001H12.0105L11.9427 16.7978C11.9407 16.7632 11.9456 16.7285 11.957 16.6958C11.9684 16.6631 11.9862 16.633 12.0093 16.6072C12.0324 16.5814 12.0603 16.5603 12.0915 16.5453C12.1228 16.5303 12.1566 16.5216 12.1912 16.5197C12.3368 16.5119 12.4612 16.6227 12.4693 16.7679L12.5389 18.0001Z" fill="#E1B791"/>
<path d="M8.73062 9.12726C8.84808 9.15795 8.94451 9.17328 9.04098 9.17328C9.13745 9.17328 9.23385 9.15795 9.35134 9.12726C9.3851 9.11875 9.41684 9.10364 9.44473 9.08281C9.47262 9.06197 9.4961 9.03581 9.51383 9.00585C9.53156 8.97589 9.54318 8.94271 9.54802 8.90823C9.55286 8.87376 9.55082 8.83866 9.54203 8.80498C9.53323 8.77129 9.51785 8.73968 9.49678 8.71197C9.4757 8.68426 9.44935 8.66099 9.41924 8.64352C9.38912 8.62605 9.35585 8.61471 9.32133 8.61017C9.28682 8.60562 9.25174 8.60796 9.21813 8.61704C9.07079 8.65553 9.0112 8.65553 8.86386 8.61704C8.79637 8.59986 8.72482 8.61008 8.66484 8.64548C8.60485 8.68087 8.56131 8.73856 8.54371 8.80594C8.52612 8.87333 8.53589 8.94494 8.57091 9.00514C8.60593 9.06534 8.66334 9.10924 8.73062 9.12726Z" fill="#EAAC9D"/>
<path d="M7.53461 5.98747C7.85664 5.96476 8.04076 6.07347 8.13842 6.16867C8.1876 6.21673 8.25366 6.2436 8.32243 6.24352C8.35764 6.24357 8.3925 6.23654 8.42494 6.22286C8.45739 6.20917 8.48675 6.18911 8.51129 6.16385C8.53546 6.13906 8.5545 6.10975 8.56734 6.07759C8.58017 6.04543 8.58655 6.01106 8.5861 5.97644C8.58566 5.94182 8.57839 5.90763 8.56473 5.87581C8.55107 5.844 8.53127 5.81518 8.50647 5.79102C8.36328 5.65149 8.04185 5.42308 7.49759 5.46143C7.2135 5.48144 6.95903 5.56208 6.74117 5.70113C6.68282 5.73902 6.64181 5.79844 6.62707 5.86644C6.61234 5.93443 6.62508 6.0055 6.66252 6.06415C6.69996 6.12279 6.75906 6.16426 6.82694 6.17952C6.89482 6.19478 6.96598 6.18259 7.02492 6.14561C7.16779 6.05445 7.33928 6.00122 7.53461 5.98747ZM11.3418 5.70116C11.1239 5.56208 10.8694 5.48144 10.5854 5.46147C10.0411 5.42322 9.71964 5.65152 9.57645 5.79106C9.5389 5.82766 9.51311 5.87462 9.50239 5.92595C9.49166 5.97728 9.49649 6.03065 9.51624 6.07922C9.536 6.1278 9.56979 6.16938 9.6133 6.19865C9.65681 6.22792 9.70806 6.24355 9.7605 6.24355C9.82926 6.24364 9.89532 6.21677 9.9445 6.16871C10.0422 6.07354 10.2261 5.96473 10.5483 5.98751C10.7437 6.00126 10.9152 6.05448 11.058 6.14568C11.117 6.18331 11.1885 6.19597 11.2568 6.1809C11.325 6.16582 11.3845 6.12424 11.4222 6.06529C11.4598 6.00635 11.4725 5.93487 11.4574 5.86658C11.4423 5.79829 11.4007 5.73879 11.3418 5.70116ZM7.38924 7.47293C7.44609 7.32869 7.58295 7.23552 7.73789 7.23552C7.89282 7.23552 8.02968 7.32872 8.08653 7.47293C8.1399 7.60842 8.293 7.67497 8.4285 7.62157C8.56399 7.56817 8.63054 7.41506 8.57714 7.27961C8.44034 6.93247 8.11093 6.70818 7.73789 6.70818C7.36488 6.70818 7.03543 6.93248 6.8986 7.27957C6.87296 7.34464 6.87422 7.41722 6.90209 7.48136C6.92997 7.54549 6.98218 7.59593 7.04724 7.62157C7.1123 7.64721 7.18489 7.64596 7.24903 7.61808C7.31316 7.59021 7.3636 7.538 7.38924 7.47293ZM10.345 6.70818C9.972 6.70818 9.64258 6.93247 9.50579 7.27961C9.49272 7.31189 9.48618 7.34645 9.48655 7.38128C9.48691 7.4161 9.49417 7.45051 9.50791 7.48252C9.52165 7.51453 9.54159 7.54349 9.56658 7.56775C9.59158 7.592 9.62113 7.61107 9.65354 7.62384C9.68594 7.63661 9.72055 7.64283 9.75538 7.64214C9.7902 7.64146 9.82454 7.63388 9.85642 7.61985C9.8883 7.60582 9.91708 7.58561 9.94111 7.5604C9.96513 7.53518 9.98392 7.50545 9.99639 7.47293C10.0532 7.32872 10.1901 7.23552 10.345 7.23552C10.5 7.23552 10.6368 7.32872 10.6937 7.47293C10.7131 7.52219 10.7469 7.56446 10.7906 7.59426C10.8344 7.62405 10.8861 7.63999 10.939 7.63999C10.982 7.63999 11.0243 7.62948 11.0623 7.60938C11.1003 7.58927 11.1328 7.56019 11.157 7.52466C11.1812 7.48912 11.1963 7.44822 11.2011 7.4055C11.2058 7.36279 11.2001 7.31955 11.1843 7.27957C11.0475 6.93248 10.718 6.70818 10.345 6.70818Z" fill="#785252"/>
<path d="M10.58 9.70553C10.5632 9.67527 10.5405 9.64863 10.5134 9.62712C10.4863 9.60561 10.4551 9.58966 10.4218 9.58017C10.3885 9.57068 10.3537 9.56785 10.3193 9.57183C10.2849 9.57581 10.2516 9.58652 10.2214 9.60336C9.49332 10.0085 8.58875 10.0085 7.86066 9.60336C7.83041 9.58652 7.79713 9.5758 7.76273 9.57182C7.72833 9.56784 7.69349 9.57067 7.66018 9.58016C7.62688 9.58964 7.59577 9.6056 7.56864 9.62711C7.5415 9.64862 7.51887 9.67527 7.50203 9.70553C7.48519 9.73578 7.47448 9.76906 7.4705 9.80346C7.46652 9.83786 7.46935 9.8727 7.47884 9.906C7.48833 9.93931 7.50428 9.97041 7.52579 9.99755C7.5473 10.0247 7.57394 10.0473 7.6042 10.0642C8.04734 10.3108 8.54417 10.4341 9.04103 10.4341C9.5379 10.4341 10.0347 10.3108 10.4779 10.0642C10.539 10.0301 10.5841 9.97325 10.6032 9.90599C10.6224 9.83874 10.614 9.76663 10.58 9.70553Z" fill="#EAAC9D"/>
<path d="M10.8522 18.0001H7.23047C7.23047 17.34 8.04121 16.8049 9.04133 16.8049C10.0415 16.8049 10.8522 17.34 10.8522 18.0001Z" fill="#E1B791"/>
</svg>
