<svg width="19" height="18" viewBox="0 0 19 18" fill="none" xmlns="http://www.w3.org/2000/svg">
<path d="M8.5258 7.51616C8.57178 7.50725 11.0031 3.182 11.0031 3.182C10.8574 3.05492 10.7116 2.92797 10.5661 2.80103H6.18164V6.27553C7.1045 7.22846 7.91398 7.63462 8.5258 7.51616Z" fill="#EAA998"/>
<path d="M11.0031 3.18213L9.56782 4.61743C8.8597 5.32555 8.51452 6.1489 8.51964 6.93991C8.52034 7.04908 8.44146 7.21164 8.19875 7.20214C7.58921 7.17823 6.744 6.61733 6.18164 6.27569V6.93075C6.80726 7.31084 7.78296 7.96224 8.39479 7.84381C8.94061 7.73817 9.34464 7.24229 9.67392 5.99117L10.4014 6.71872L12.7794 4.79553C12.2138 4.24303 11.6096 3.71097 11.0031 3.18213Z" fill="#E49280"/>
<path d="M9.52945 4.34978C9.52945 3.71875 8.74801 2.75183 7.78516 2.75183V3.73439C8.17821 3.73439 9.03815 4.35738 9.03815 4.34975C9.03815 4.4149 9.06403 4.47737 9.1101 4.52344C9.15616 4.5695 9.21864 4.59538 9.28378 4.59538C9.31604 4.59539 9.34799 4.58904 9.37779 4.5767C9.4076 4.56437 9.43468 4.54628 9.45749 4.52347C9.48031 4.50066 9.4984 4.47358 9.51075 4.44378C9.5231 4.41398 9.52945 4.38204 9.52945 4.34978Z" fill="#E49280"/>
<path d="M14.3977 14.6348C15.1674 13.5601 15.5149 12.1999 15.5149 10.8238C15.5149 8.40245 14.2816 6.61584 12.2981 4.96686C10.559 5.61461 9.8901 6.25187 9.8901 8.44206V10.8737L7.7832 12.0901L10.0231 13.3918L14.3977 14.6348Z" fill="#D5BBA9"/>
<path d="M12.78 4.79541C12.6187 4.85045 12.4582 4.9076 12.2984 4.96684C13.9236 6.59086 15.1877 8.40243 15.1877 10.8238C15.1877 12.0841 14.9283 13.0811 14.4024 13.9972C14.3195 14.1416 14.1407 14.1999 13.988 14.1335L11.8253 13.1929C11.5985 13.0942 11.5593 12.7898 11.7529 12.6358C12.7809 11.818 13.3651 10.8199 13.816 9.01152C13.8583 8.84196 13.7671 8.66183 13.6005 8.60902C13.4186 8.55134 13.2285 8.65966 13.1832 8.84206C12.6434 11.0133 11.9679 11.9416 10.0234 13.0642V13.3918L14.5059 15.0138C15.3175 13.9452 15.8428 12.5161 15.8428 10.8238C15.8428 8.31693 14.4878 6.46362 12.78 4.79541Z" fill="#E1B791"/>
<path d="M6.26701 7.84675V4.18788H7.44612L7.5946 3.87611L10.0428 2.34019C9.96289 2.26945 9.88277 2.19881 9.80358 2.12781C9.04652 1.44919 8.21017 0.861084 7.01685 0.861084C4.70559 0.861084 3.39648 3.31786 3.39648 4.99551C3.39648 6.03114 3.83631 6.91553 4.20244 7.47245L4.97695 6.46C5.6707 7.33014 6.26701 7.84675 6.26701 7.84675Z" fill="#4A4A4A"/>
<path d="M10.0415 2.34009L7.5933 3.54848L7.44482 3.86024H6.26572C6.08481 3.86024 5.93818 4.00687 5.93818 4.18777V6.78704C5.93818 6.93625 5.75512 7.00788 5.65405 6.8981C5.40868 6.63127 5.17759 6.35165 4.96176 6.06041C4.88345 5.95457 4.71854 5.97969 4.67543 6.10407L4.20117 7.47234C4.29336 7.61279 4.392 7.7489 4.49678 7.88022C4.57716 7.98068 4.73685 7.95261 4.77901 7.83103L5.10667 6.8857C5.47979 7.42701 6.00142 7.9521 6.31725 8.25025C6.42169 8.34884 6.59325 8.27458 6.59325 8.13097V4.51534H7.57581L7.72428 4.20357L10.5658 2.80106C10.3905 2.64804 10.2157 2.49438 10.0415 2.34009Z" fill="#303030"/>
<path d="M9.03858 4.34982C9.03858 3.99529 8.48258 3.24316 7.78559 3.24316C7.40995 3.24316 7.10547 3.53493 7.10547 3.89489C7.10547 4.18513 7.30344 4.43105 7.57709 4.51539L9.03858 4.34982Z" fill="#EAA998"/>
<path d="M11.7158 6.28828H14.4379C15.3131 6.28828 15.842 5.34059 15.3121 4.50519L13.2188 2.41191C13.0909 2.28401 12.8837 2.28388 12.7557 2.41178L10.0589 5.10863C9.17614 5.99139 9.01193 7.1024 9.52758 7.97719C9.75811 7.12748 10.333 6.28828 11.7158 6.28828Z" fill="#D5BBA9"/>
<path d="M15.3119 4.50513C15.5733 5.18079 15.1024 5.96068 14.4376 5.96068H11.7156C10.161 5.96068 9.59602 6.96645 9.52734 7.97712C9.62419 8.14139 9.74484 8.2974 9.88937 8.44193C9.88937 7.43333 10.707 6.61571 11.7156 6.61571H14.4376C15.5391 6.61574 16.0907 5.28399 15.3119 4.50513Z" fill="#E1B791"/>
<path d="M13.8554 14.7315L7.78236 12.0901L5.53002 11.1105C4.31298 10.5812 3.23923 11.5868 3.25806 12.6434C4.20237 14.3008 8.1071 16.8116 10.5349 16.8116C11.979 16.8116 13.3841 16.1352 13.8554 14.7315Z" fill="#40709D"/>
<path d="M13.8571 14.7314C12.9146 15.806 11.8143 16.4841 10.5366 16.4841C8.38859 16.4841 5.69696 14.7698 3.25977 12.6433C3.26698 13.048 3.43421 13.4602 3.81554 13.7964C6.08861 15.8007 8.54835 17.1391 10.5366 17.1391C11.9967 17.1391 13.4804 16.3646 14.5064 15.0138L13.8571 14.7314Z" fill="#235482"/>
<path d="M7.6255 15.6827C7.49483 15.5072 7.30318 15.3798 7.08133 15.3334C5.33888 14.9693 5.62025 14.6827 4.52692 14.0515C3.8875 13.6823 2.84265 13.5852 2.39335 14.3634C2.12057 14.8359 2.23731 15.3369 2.51398 15.7405C3.56432 16.6969 5.10374 16.8505 6.59334 16.8505C7.19487 16.8505 7.78329 16.4109 7.6255 15.6827Z" fill="#DD7F66"/>
<path d="M7.62517 15.6829C7.52648 16.1625 7.10188 16.5232 6.59304 16.5232C5.10344 16.5232 3.81245 16.4295 2.51367 15.7407C2.6927 16.0018 2.93852 16.2222 3.18972 16.3672C4.37264 17.0502 5.53805 17.1392 6.89339 17.1392C7.39734 17.1392 7.80588 16.7307 7.80588 16.2267C7.80588 16.0227 7.73829 15.8348 7.62517 15.6829Z" fill="#AA6A51"/>
</svg>
