<svg width="19" height="18" viewBox="0 0 19 18" fill="none" xmlns="http://www.w3.org/2000/svg">
<g clip-path="url(#clip0_23_4459)">
<path d="M4.06889 14.3149C4.00693 14.951 3.99735 15.2566 3.91391 15.4949C3.83046 15.7333 5.16609 15.9084 5.30912 15.6581C5.45219 15.4079 5.31931 15.5142 5.31931 15.5142L4.06889 14.3149Z" fill="url(#paint0_linear_23_4459)"/>
<path d="M3.66652 15.3659C3.04459 15.4744 2.39036 15.4886 1.54904 15.8587C0.70772 16.2289 0.82886 16.7337 1.37404 16.7337H5.45954C5.74894 16.7337 5.86339 15.5491 5.45284 15.4078C5.04223 15.2665 4.06098 15.2971 3.66652 15.3659Z" fill="url(#paint1_linear_23_4459)"/>
<path d="M0.993461 16.2815C0.854717 16.5271 1.02619 16.7337 1.3747 16.7337H5.46023C5.5799 16.7337 5.66641 16.529 5.70147 16.2815H0.993461Z" fill="#FFE68B"/>
<path d="M6.36201 6.50817C5.75678 7.36379 7.52168 13.1297 9.91514 15.8106C11.3357 17.4018 14.6083 16.6497 14.629 15.411C14.6497 14.1722 10.0381 7.83657 9.16047 6.85539C8.77912 6.42905 8.04108 5.93815 7.6088 5.87943C7.04626 5.80308 6.70296 6.02617 6.36201 6.50817Z" fill="url(#paint2_linear_23_4459)"/>
<path d="M6.14782 6.79418C4.80494 9.03572 3.90793 14.1318 3.8364 14.7039C3.76487 15.276 5.30243 15.4548 5.73151 14.6682C6.1606 13.8815 8.41686 8.93351 8.42647 7.84747C8.43608 6.76142 7.22069 5.00339 6.14782 6.79418Z" fill="url(#paint3_linear_23_4459)"/>
<path d="M12.6553 3.70348C10.1279 3.54382 6.50515 5.15244 6.24185 5.61727C5.97858 6.08211 6.20203 6.2877 7.23001 6.60058C8.25803 6.91349 10.8236 5.67988 11.5476 5.22394C12.2717 4.76811 13.5045 3.75712 12.6553 3.70348Z" fill="url(#paint4_linear_23_4459)"/>
<path d="M16.5939 15.411C17.4729 14.3397 17.2044 7.97723 16.4178 5.1405C15.6312 2.30381 9.84494 3.75792 10.0833 5.95101C10.3217 8.14409 13.1269 13.5553 13.699 14.3896C14.2711 15.2239 16.4378 15.6012 16.5939 15.411Z" fill="url(#paint5_linear_23_4459)"/>
<path d="M6.77591 14.4181C6.71396 15.0541 6.70438 15.3597 6.62093 15.5981C6.53752 15.8364 7.87312 16.0116 8.01615 15.7613C8.15921 15.511 8.28961 14.1917 8.28961 14.1917L6.77591 14.4181Z" fill="url(#paint6_linear_23_4459)"/>
<path d="M6.3716 15.4691C5.74967 15.5776 5.09544 15.5917 4.25412 15.9619C3.4128 16.332 3.53394 16.8369 4.07912 16.8369H8.16462C8.45402 16.8369 8.56847 15.6523 8.15792 15.5109C7.74731 15.3696 6.76605 15.4003 6.3716 15.4691Z" fill="url(#paint7_linear_23_4459)"/>
<path d="M3.69853 16.3846C3.55979 16.6301 3.73129 16.8367 4.07977 16.8367H8.16531C8.28497 16.8367 8.37148 16.632 8.40658 16.3846H3.69853Z" fill="#FFE68B"/>
<path d="M15.0666 5.10643C14.2419 5.13206 13.6744 5.79601 11.3383 6.46345C10.9361 6.57836 10.578 6.69629 10.2598 6.81542C10.4042 7.35239 10.6197 7.97084 10.8774 8.62291C12.1276 8.54335 13.6786 8.26654 14.8008 7.90219C15.1557 7.78695 16.2489 7.32878 16.3025 6.42683C16.3536 5.56884 15.8914 5.08087 15.0666 5.10643Z" fill="url(#paint8_linear_23_4459)"/>
<path d="M9.02758 6.50834C8.44993 7.38282 10.1872 13.1299 12.5807 15.8107C14.0013 17.402 16.6765 16.3769 16.6972 15.1382C16.7179 13.8995 12.7038 7.83674 11.826 6.85556C11.4209 6.40254 10.5426 5.99451 10.084 5.95113C9.54911 5.90059 9.26579 6.14773 9.02758 6.50834Z" fill="url(#paint9_linear_23_4459)"/>
<path d="M8.81188 6.79418C7.469 9.03572 6.57199 14.1318 6.50046 14.7039C6.42896 15.276 7.96649 15.4548 8.39557 14.6682C8.82466 13.8815 11.0809 8.93351 11.0905 7.84747C11.1002 6.76142 9.88475 5.00339 8.81188 6.79418Z" fill="url(#paint10_linear_23_4459)"/>
<path d="M13.4221 2.85947C12.5105 1.90129 10.1176 1.39855 8.99801 1.62107C7.87838 1.84355 7.61576 3.35087 7.58426 4.6329C7.55272 5.91493 10.2673 6.45569 11.5431 5.9572C12.8189 5.45874 13.7018 3.96535 13.6291 3.47669C13.5564 2.98806 13.4221 2.85947 13.4221 2.85947Z" fill="url(#paint11_linear_23_4459)"/>
<path d="M12.9953 3.28418C13.4423 3.66855 14.4892 3.97538 14.4892 3.97538C14.4892 3.97538 14.068 4.58036 13.7105 4.82174C13.3529 5.06308 12.6166 5.00944 12.3607 4.99155C12.1048 4.97373 12.9953 3.28418 12.9953 3.28418Z" fill="url(#paint12_linear_23_4459)"/>
<path d="M13.2027 2.75949C13.2146 2.7286 13.2143 2.69656 13.2077 2.66402C12.1789 1.83451 10.0401 1.41421 8.99941 1.62103C8.43997 1.73216 8.09455 2.16423 7.88499 2.72867C7.88442 2.73101 7.88348 2.73274 7.88294 2.73508C7.8819 2.73785 7.88132 2.74102 7.88031 2.74383C7.84665 2.88707 7.8207 3.0458 7.80288 3.22187C7.71947 4.04512 7.64905 4.5556 7.66161 4.99433C7.88229 5.51612 8.59225 5.87561 9.39253 6.03927C9.43123 5.59902 9.38846 5.03199 9.46554 4.43759C9.59071 3.47214 10.6813 4.28859 11.021 4.01445C11.3607 3.74035 11.1997 3.16823 11.9328 3.11459C12.6658 3.06092 13.0782 3.08381 13.2027 2.75949Z" fill="url(#paint13_linear_23_4459)"/>
<path d="M12.9436 2.47321C13.1509 1.93339 10.4072 1.11195 9.3777 1.16559C8.34821 1.21923 7.68675 1.52314 7.54368 2.93553C7.40065 4.34791 7.28812 4.84669 7.58577 5.62527C7.88341 6.40391 8.55863 6.79599 8.91618 6.40431C9.27377 6.01266 9.08124 5.11666 9.20638 4.15121C9.33155 3.18576 10.4221 4.00221 10.7618 3.72807C11.1015 3.45396 10.9406 2.88185 11.6736 2.82821C12.4066 2.77464 12.819 2.79754 12.9436 2.47321Z" fill="url(#paint14_linear_23_4459)"/>
<path d="M12.8891 2.26367C12.8923 2.29082 12.895 2.318 12.885 2.34399C12.7604 2.66831 12.348 2.64542 11.615 2.69906C10.882 2.7527 11.0429 3.32477 10.7032 3.59895C10.3636 3.87305 9.27297 3.05661 9.1478 4.02206C9.02266 4.9875 9.21515 5.88351 8.8576 6.27515C8.5151 6.65031 7.88477 6.30215 7.57031 5.58827C7.57564 5.60278 7.57877 5.61603 7.58439 5.63072C7.882 6.40932 8.55722 6.80144 8.9148 6.40972C9.27236 6.01811 9.07983 5.12207 9.20496 4.15662C9.33014 3.19125 10.4207 4.00762 10.7604 3.73352C11.1001 3.45938 10.9392 2.88726 11.6722 2.83362C12.4052 2.77998 12.8176 2.80292 12.9421 2.47859C12.9683 2.41066 12.9472 2.33819 12.8891 2.26367Z" fill="url(#paint15_linear_23_4459)"/>
<path d="M6.16256 5.90403C6.13913 6.34694 7.02422 7.11651 8.2088 7.30497C9.39342 7.49343 8.97611 6.51074 8.74726 6.22807C8.5184 5.94536 7.54248 5.65585 7.23284 5.5886C6.92328 5.52135 6.18935 5.39827 6.16256 5.90403Z" fill="url(#paint16_linear_23_4459)"/>
<path d="M10.7617 3.7282C11.1014 3.4541 10.9405 2.88199 11.6735 2.82835C12.4065 2.77471 12.819 2.7976 12.9435 2.47332C13.0201 2.27384 12.6927 2.0361 12.199 1.81812C12.4957 2.73723 11.903 2.2526 10.9852 2.35455C10.0198 2.46183 10.5382 2.53333 10.1373 3.00712C9.73634 3.48088 9.34938 2.5959 8.83087 3.48088C8.3124 4.36584 8.87554 5.01841 8.375 6.14082L8.95827 6.33943C9.25045 5.9215 9.08719 5.07054 9.20631 4.15131C9.33145 3.1859 10.422 4.00231 10.7617 3.7282Z" fill="#752E00" fill-opacity="0.25"/>
<path d="M9.08453 7.25966C7.49624 7.12808 6.57227 5.71277 6.57227 5.71277C6.57227 5.71277 6.61993 5.21216 7.64496 5.21216C8.66995 5.21216 9.00918 5.6254 9.99806 5.66561C10.3077 5.67821 9.85658 7.32363 9.08453 7.25966Z" fill="url(#paint17_linear_23_4459)"/>
<path d="M16.4877 5.86485C16.1957 6.35034 15.1561 6.5356 14.8012 6.65087C12.8666 7.27896 9.65116 7.65109 8.91507 7.19065C8.04398 6.64576 9.00262 5.87957 11.3387 5.21213C13.6748 4.54469 14.2423 3.88071 15.067 3.85511C15.8918 3.82948 16.9307 5.12829 16.4877 5.86485Z" fill="url(#paint18_linear_23_4459)"/>
<path d="M7.7 3.17464C7.7 3.17464 7.58286 1.64003 8.88185 1.41791C10.1809 1.19579 10.7246 1.6131 10.7246 1.6131C10.7246 1.6131 9.43697 1.55334 8.62607 1.94963C7.81524 2.34592 7.7 3.17464 7.7 3.17464Z" fill="#FCFF8B" fill-opacity="0.063"/>
<path d="M11.5536 3.80042C10.5079 3.72133 10.2827 3.16891 10.7942 2.76923C11.3058 2.36953 11.4858 2.93797 12.0713 2.86561C12.6567 2.79317 12.5049 3.87235 11.5536 3.80042Z" fill="url(#paint19_linear_23_4459)"/>
</g>
<defs>
<linearGradient id="paint0_linear_23_4459" x1="3.91016" y1="14.3149" x2="5.37546" y2="14.3149" gradientUnits="userSpaceOnUse">
<stop stop-color="#FFBC70"/>
<stop offset="0.938" stop-color="#FFB68A"/>
</linearGradient>
<linearGradient id="paint1_linear_23_4459" x1="0.941406" y1="15.308" x2="5.72021" y2="15.308" gradientUnits="userSpaceOnUse">
<stop stop-color="#8B0000"/>
<stop offset="0.998" stop-color="#C70000"/>
</linearGradient>
<linearGradient id="paint2_linear_23_4459" x1="6.24219" y1="5.86475" x2="14.6291" y2="5.86475" gradientUnits="userSpaceOnUse">
<stop stop-color="#5B8BB9"/>
<stop offset="0.989" stop-color="#164775"/>
</linearGradient>
<linearGradient id="paint3_linear_23_4459" x1="3.83398" y1="6.02612" x2="8.42653" y2="6.02612" gradientUnits="userSpaceOnUse">
<stop stop-color="#5B8BB9"/>
<stop offset="0.989" stop-color="#164775"/>
</linearGradient>
<linearGradient id="paint4_linear_23_4459" x1="6.14062" y1="3.69238" x2="12.9428" y2="3.69238" gradientUnits="userSpaceOnUse">
<stop stop-color="#83634C"/>
<stop offset="1" stop-color="#83634C"/>
</linearGradient>
<linearGradient id="paint5_linear_23_4459" x1="10.0762" y1="3.56854" x2="17.1414" y2="3.56854" gradientUnits="userSpaceOnUse">
<stop stop-color="#83634C"/>
<stop offset="1" stop-color="#D5BBA9"/>
</linearGradient>
<linearGradient id="paint6_linear_23_4459" x1="6.61719" y1="14.1917" x2="8.28961" y2="14.1917" gradientUnits="userSpaceOnUse">
<stop stop-color="#FFBC70"/>
<stop offset="0.938" stop-color="#FFB68A"/>
</linearGradient>
<linearGradient id="paint7_linear_23_4459" x1="3.64648" y1="15.4111" x2="8.42529" y2="15.4111" gradientUnits="userSpaceOnUse">
<stop stop-color="#8B0000"/>
<stop offset="0.998" stop-color="#C70000"/>
</linearGradient>
<linearGradient id="paint8_linear_23_4459" x1="13.4215" y1="7.12106" x2="13.779" y2="8.81356" gradientUnits="userSpaceOnUse">
<stop stop-color="#83634C"/>
<stop offset="1" stop-color="#D5BBA9"/>
</linearGradient>
<linearGradient id="paint9_linear_23_4459" x1="8.91602" y1="5.94458" x2="16.6972" y2="5.94458" gradientUnits="userSpaceOnUse">
<stop offset="0.392" stop-color="#5B8BB9"/>
<stop offset="1" stop-color="#386EA1"/>
</linearGradient>
<linearGradient id="paint10_linear_23_4459" x1="6.49805" y1="6.02612" x2="11.0906" y2="6.02612" gradientUnits="userSpaceOnUse">
<stop offset="0.392" stop-color="#5B8BB9"/>
<stop offset="1" stop-color="#386EA1"/>
</linearGradient>
<linearGradient id="paint11_linear_23_4459" x1="7.58398" y1="1.56885" x2="13.6333" y2="1.56885" gradientUnits="userSpaceOnUse">
<stop stop-color="#FFBC70"/>
<stop offset="0.938" stop-color="#FFB68A"/>
</linearGradient>
<linearGradient id="paint12_linear_23_4459" x1="12.3145" y1="3.28418" x2="14.4892" y2="3.28418" gradientUnits="userSpaceOnUse">
<stop stop-color="#FFBC70"/>
<stop offset="0.938" stop-color="#FFB68A"/>
</linearGradient>
<linearGradient id="paint13_linear_23_4459" x1="7.21856" y1="1.99831" x2="11.8533" y2="4.80566" gradientUnits="userSpaceOnUse">
<stop stop-color="#C24C00"/>
<stop offset="0.981" stop-color="#752E00"/>
</linearGradient>
<linearGradient id="paint14_linear_23_4459" x1="7.39844" y1="1.16309" x2="12.9547" y2="1.16309" gradientUnits="userSpaceOnUse">
<stop stop-color="#C24C00"/>
<stop offset="0.981" stop-color="#752E00"/>
</linearGradient>
<linearGradient id="paint15_linear_23_4459" x1="8.41739" y1="3.06478" x2="11.4178" y2="4.8822" gradientUnits="userSpaceOnUse">
<stop stop-color="#FFBC70"/>
<stop offset="0.938" stop-color="#FFB68A"/>
</linearGradient>
<linearGradient id="paint16_linear_23_4459" x1="6.16211" y1="5.5249" x2="9.00907" y2="5.5249" gradientUnits="userSpaceOnUse">
<stop stop-color="#83634C"/>
<stop offset="1" stop-color="#D5BBA9"/>
</linearGradient>
<linearGradient id="paint17_linear_23_4459" x1="6.57227" y1="5.21216" x2="10.0967" y2="5.21216" gradientUnits="userSpaceOnUse">
<stop stop-color="#83634C"/>
<stop offset="1" stop-color="#D5BBA9"/>
</linearGradient>
<linearGradient id="paint18_linear_23_4459" x1="8.59766" y1="3.85474" x2="16.5936" y2="3.85474" gradientUnits="userSpaceOnUse">
<stop stop-color="#83634C"/>
<stop offset="1" stop-color="#D5BBA9"/>
</linearGradient>
<linearGradient id="paint19_linear_23_4459" x1="10.5312" y1="2.62549" x2="12.4161" y2="2.62549" gradientUnits="userSpaceOnUse">
<stop stop-color="#FFBC70"/>
<stop offset="0.938" stop-color="#FFB68A"/>
</linearGradient>
<clipPath id="clip0_23_4459">
<rect width="18" height="18" fill="white" transform="translate(0.0410156)"/>
</clipPath>
</defs>
</svg>
