<svg width="19" height="18" viewBox="0 0 19 18" fill="none" xmlns="http://www.w3.org/2000/svg">
<g clip-path="url(#clip0_23_4515)">
<path d="M7.9686 9.42062H13.0669L12.7946 8.40973L14.1293 8.05212V4.3443C14.1293 2.30981 12.48 0.660522 10.4455 0.660522C8.411 0.660522 6.76172 2.30981 6.76172 4.3443V7.33016L7.9686 9.42062Z" fill="#FFD15B"/>
<path d="M7.96863 9.42062H8.28803V4.3443C8.28803 2.57148 9.5404 1.09133 11.2087 0.73987C10.9577 0.687027 10.702 0.660434 10.4455 0.660523C8.411 0.660523 6.76172 2.30981 6.76172 4.3443V7.33016L7.96863 9.42062Z" fill="#FFC344"/>
<path d="M13.785 15.2388C13.7394 15.0466 13.7256 14.8483 13.7441 14.6518L13.9489 12.696L13.0574 9.38552H7.98889L3.50573 1.62042L3.40873 1.63582L1.81503 2.55597L1.75586 2.63071L6.15278 10.2464C6.23972 10.397 6.2855 10.5678 6.2855 10.7416L6.83175 14.625C6.85779 14.839 6.84541 15.0559 6.79519 15.2656L6.44595 17.3302C6.36414 17.6717 6.62303 18 6.97428 18H13.6086C13.9593 18 14.2181 17.6727 14.1372 17.3314L13.785 15.2388Z" fill="#A2E62E"/>
<path d="M13.785 15.2388C13.7394 15.0466 13.7256 14.8483 13.7441 14.6518L13.9489 12.696L13.0574 9.38552H7.98889L3.50573 1.62042L3.40873 1.63582L1.81503 2.55597L1.75586 2.63071L6.15278 10.2464C6.23972 10.397 6.2855 10.5678 6.2855 10.7416L6.83175 14.625C6.85779 14.839 6.84541 15.0559 6.79519 15.2656L6.44595 17.3302C6.36414 17.6717 6.62303 18 6.97428 18H13.6086C13.9593 18 14.2181 17.6727 14.1372 17.3314L13.785 15.2388Z" fill="#D5BBA9"/>
<path d="M7.65413 17.3302L8.00337 15.2656C8.05359 15.0559 8.06597 14.839 8.03993 14.625L7.49368 10.7416C7.49368 10.5678 7.4479 10.3969 7.36096 10.2464L2.96407 2.63071L3.80779 2.14358L3.50573 1.62042L1.75586 2.63071L6.15278 10.2464C6.23972 10.397 6.2855 10.5678 6.2855 10.7416L6.83175 14.6251C6.85779 14.8391 6.84541 15.056 6.79519 15.2656L6.44595 17.3302C6.36414 17.6717 6.62303 18 6.97428 18H8.18249C7.83121 18 7.57232 17.6717 7.65413 17.3302Z" fill="#97D729"/>
<path d="M7.65413 17.3302L8.00337 15.2656C8.05359 15.0559 8.06597 14.839 8.03993 14.625L7.49368 10.7416C7.49368 10.5678 7.4479 10.3969 7.36096 10.2464L2.96407 2.63071L3.80779 2.14358L3.50573 1.62042L1.75586 2.63071L6.15278 10.2464C6.23972 10.397 6.2855 10.5678 6.2855 10.7416L6.83175 14.6251C6.85779 14.8391 6.84541 15.056 6.79519 15.2656L6.44595 17.3302C6.36414 17.6717 6.62303 18 6.97428 18H8.18249C7.83121 18 7.57232 17.6717 7.65413 17.3302Z" fill="#E1B791"/>
<path d="M3.46286 0.501469L3.0105 0.762645L2.86193 0.505301C2.58297 0.0221138 1.96506 -0.143472 1.48187 0.135528C0.998687 0.414528 0.833101 1.0324 1.11207 1.51559L1.75588 2.63071L3.95811 1.35925C4.19499 1.22249 4.27613 0.919618 4.13937 0.682735C4.00261 0.445852 3.69974 0.364711 3.46286 0.501469Z" fill="#FFA78F"/>
<path d="M2.08551 1.51558C1.80655 1.03239 1.9721 0.414484 2.45529 0.135519C2.46155 0.131898 2.46787 0.128699 2.47417 0.125254C2.17478 -0.0391721 1.79927 -0.0477502 1.48188 0.135519C0.998659 0.414484 0.833109 1.03239 1.11207 1.51558L1.75589 2.6307L2.48598 2.20918L2.08551 1.51558Z" fill="#F89580"/>
<path d="M11.4156 9.20448V8.27393C11.1071 8.39661 10.7781 8.45957 10.4462 8.45945C10.1142 8.45957 9.7852 8.39661 9.47672 8.27393V9.20448C9.47673 9.22826 9.47205 9.25181 9.46295 9.27378C9.45385 9.29576 9.44051 9.31572 9.42369 9.33254C9.40688 9.34935 9.38691 9.36269 9.36494 9.37179C9.34297 9.38089 9.31942 9.38557 9.29563 9.38557H8.24805L9.00229 10.864C9.04779 10.9532 9.11707 11.0281 9.20248 11.0804C9.28788 11.1327 9.38607 11.1603 9.48621 11.1603H11.4223C11.524 11.1603 11.6236 11.1318 11.7098 11.078C11.7961 11.0242 11.8655 10.9473 11.9102 10.856L12.6304 9.38557H11.5967C11.5729 9.38557 11.5493 9.38089 11.5274 9.37179C11.5054 9.36269 11.4854 9.34935 11.4686 9.33254C11.4518 9.31572 11.4385 9.29576 11.4294 9.27378C11.4203 9.25181 11.4156 9.22826 11.4156 9.20448Z" fill="#FFA78F"/>
<path d="M9.87611 10.8638L9.12187 9.38537H8.24823L9.00248 10.8638C9.04798 10.953 9.11726 11.0279 9.20266 11.0802C9.28806 11.1325 9.38626 11.1601 9.4864 11.1601H10.36C10.2599 11.1601 10.1617 11.1325 10.0763 11.0802C9.9909 11.0279 9.92161 10.953 9.87611 10.8638ZM7.80048 5.82327V4.9458H7.61563C7.05883 4.9458 6.60742 5.39717 6.60742 5.95401C6.60742 6.51082 7.05879 6.96222 7.61563 6.96222H8.05843C7.88821 6.60669 7.80005 6.21745 7.80048 5.82327Z" fill="#F89580"/>
<path d="M13.2768 4.9458H13.092V5.82327C13.092 6.2308 12.9993 6.61706 12.834 6.96219H13.2768C13.8336 6.96219 14.285 6.51082 14.285 5.95398C14.285 5.39721 13.8336 4.9458 13.2768 4.9458Z" fill="#FFB09E"/>
<path d="M11.2176 3.72382L11.0718 3.86965C10.9441 3.9973 10.771 4.06902 10.5904 4.06902H8.53608C8.11273 4.06902 7.76953 4.41222 7.76953 4.83557V5.82325C7.76953 7.30093 8.96745 8.49885 10.4451 8.49885C11.9228 8.49885 13.1207 7.30093 13.1207 5.82325V4.29096C13.1207 3.86761 12.7775 3.52441 12.3542 3.52441H11.699C11.5185 3.52444 11.3453 3.59617 11.2176 3.72382Z" fill="#FFCEBF"/>
<path d="M8.74666 5.82332V4.83564C8.74666 4.41229 9.08986 4.06909 9.51321 4.06909H8.53608C8.11273 4.06909 7.76953 4.41229 7.76953 4.83564V5.82332C7.76953 7.30101 8.96745 8.49892 10.4451 8.49892C10.6119 8.49892 10.7749 8.48292 10.9332 8.4535C9.68917 8.22361 8.74666 7.13387 8.74666 5.82332Z" fill="#FFB09E"/>
<path d="M9.65888 5.4543C9.61022 5.45433 9.56249 5.4409 9.52099 5.41547C9.47949 5.39005 9.44584 5.35364 9.42376 5.31026C9.37915 5.22269 9.29382 5.17041 9.19556 5.17041C9.0973 5.17041 9.01197 5.22265 8.96736 5.31026C8.93561 5.37257 8.8804 5.41971 8.81389 5.44132C8.74738 5.46292 8.67501 5.45722 8.6127 5.42547C8.5504 5.39372 8.50326 5.33851 8.48165 5.272C8.46004 5.20549 8.46575 5.13312 8.4975 5.07081C8.63194 4.80696 8.89944 4.64307 9.19556 4.64307C9.49172 4.64307 9.75919 4.80696 9.89362 5.07081C9.90934 5.10167 9.91884 5.13531 9.92155 5.16984C9.92427 5.20436 9.92016 5.23908 9.90946 5.27201C9.89876 5.30494 9.88167 5.33545 9.85918 5.36178C9.83669 5.38811 9.80924 5.40975 9.77838 5.42547C9.7414 5.44441 9.70044 5.45429 9.65888 5.4543ZM12.1578 5.4543C12.1091 5.45433 12.0614 5.44089 12.0199 5.41546C11.9784 5.39004 11.9447 5.35363 11.9226 5.31026C11.8624 5.19203 11.753 5.17923 11.7088 5.17923C11.6646 5.17923 11.5552 5.192 11.495 5.31026C11.4793 5.34111 11.4576 5.36857 11.4313 5.39105C11.405 5.41354 11.3745 5.43062 11.3415 5.44132C11.3086 5.45201 11.2739 5.45612 11.2394 5.4534C11.2048 5.45068 11.1712 5.44119 11.1403 5.42547C11.1095 5.40975 11.082 5.3881 11.0595 5.36177C11.0371 5.33544 11.02 5.30493 11.0093 5.272C10.9986 5.23907 10.9945 5.20435 10.9972 5.16983C10.9999 5.13531 11.0094 5.10166 11.0251 5.07081C11.1568 4.81238 11.4188 4.65189 11.7088 4.65189C11.9988 4.65189 12.2608 4.81238 12.3925 5.07081C12.413 5.111 12.4228 5.15577 12.421 5.20084C12.4193 5.24591 12.406 5.28978 12.3824 5.32825C12.3589 5.36672 12.3259 5.39851 12.2865 5.42057C12.2472 5.44264 12.2029 5.45425 12.1578 5.4543ZM10.4448 6.36984C10.3851 6.3699 10.3271 6.34957 10.2805 6.31221L9.89672 6.00586C9.86814 5.98306 9.84461 5.95457 9.82764 5.92219C9.81066 5.88981 9.80061 5.85425 9.79812 5.81777C9.79562 5.7813 9.80075 5.7447 9.81316 5.71032C9.82557 5.67593 9.845 5.6445 9.87021 5.61802L10.254 5.21464C10.2778 5.18955 10.3064 5.16941 10.3381 5.15537C10.3697 5.14133 10.4038 5.13366 10.4384 5.1328C10.4731 5.13194 10.5075 5.13791 10.5398 5.15036C10.5721 5.16281 10.6017 5.1815 10.6268 5.20537C10.6518 5.22924 10.672 5.25782 10.686 5.28947C10.7001 5.32112 10.7077 5.35523 10.7086 5.38984C10.7095 5.42446 10.7035 5.45891 10.691 5.49122C10.6786 5.52353 10.6599 5.55307 10.636 5.57815L10.4505 5.77313L10.6095 5.90004C10.6366 5.92164 10.6591 5.94836 10.6758 5.97868C10.6926 6.00899 10.7032 6.0423 10.707 6.07671C10.7109 6.11112 10.7079 6.14595 10.6983 6.17922C10.6887 6.21248 10.6727 6.24353 10.6511 6.27059C10.6264 6.3016 10.595 6.32664 10.5593 6.34383C10.5236 6.36101 10.4844 6.3699 10.4448 6.36984Z" fill="#BB5D4C"/>
<path d="M10.5974 7.69741H10.2955C9.87883 7.69741 9.54102 7.35959 9.54102 6.94288C9.54102 6.90286 9.55691 6.86448 9.58521 6.83619C9.61351 6.80789 9.65189 6.79199 9.69191 6.79199H11.201C11.241 6.79199 11.2794 6.80789 11.3076 6.83619C11.3359 6.86448 11.3518 6.90286 11.3518 6.94288C11.3519 7.35959 11.0141 7.69741 10.5974 7.69741Z" fill="#FD8087"/>
<path d="M10.1364 6.94264C10.1364 6.90262 10.1522 6.86424 10.1805 6.83594C10.2088 6.80765 10.2472 6.79175 10.2872 6.79175H9.69191C9.65189 6.79175 9.61351 6.80765 9.58521 6.83594C9.55691 6.86424 9.54102 6.90262 9.54102 6.94264C9.54102 7.35935 9.87883 7.69716 10.2955 7.69716H10.5974C10.6476 7.69716 10.6966 7.69199 10.7441 7.68264C10.3977 7.61433 10.1364 7.30911 10.1364 6.94264Z" fill="#FE646F"/>
<path d="M16.1809 13.3473L14.7197 7.89402L14.5883 7.89282L12.752 8.38487L14.2292 13.8703C14.3736 14.4092 14.9276 14.7291 15.4665 14.5847C16.0055 14.4403 16.3253 13.8863 16.1809 13.3473Z" fill="#D5BBA9"/>
<path d="M15.2521 14.4735L13.5313 8.17603L12.752 8.38482L14.2292 13.8702C14.3589 14.3541 14.8186 14.6611 15.3012 14.6144C15.2814 14.5687 15.265 14.5216 15.2521 14.4735Z" fill="#E1B791"/>
<path d="M12.0231 7.59131L12.3205 7.51165C12.3456 7.50491 12.3692 7.4933 12.3898 7.47746C12.4105 7.46163 12.4278 7.44188 12.4408 7.41935C12.4538 7.39682 12.4622 7.37195 12.4656 7.34616C12.469 7.32037 12.4673 7.29416 12.4606 7.26903L12.4408 7.19535C12.2942 6.64824 12.6184 6.06736 13.1682 5.93116C13.7012 5.79915 14.2439 6.11777 14.3866 6.65042L14.7199 7.89418L12.2636 8.55234C11.9964 8.62392 11.7218 8.4628 11.6547 8.19318C11.589 7.92846 11.7598 7.66187 12.0231 7.59131Z" fill="#FFA78F"/>
<path d="M12.2918 8.37386C12.2261 8.10924 12.3968 7.84261 12.6602 7.77205L12.9576 7.69239C12.9827 7.68566 13.0063 7.67404 13.0269 7.65821C13.0475 7.64237 13.0648 7.62262 13.0779 7.6001C13.0909 7.57757 13.0993 7.5527 13.1027 7.5269C13.1061 7.50111 13.1044 7.4749 13.0976 7.44978L13.0779 7.37609C12.9313 6.82899 13.2555 6.2481 13.8053 6.11191C13.8657 6.09701 13.9274 6.0877 13.9895 6.0841C13.7585 5.9227 13.4619 5.85836 13.1682 5.93113C12.6184 6.06733 12.2942 6.64821 12.4408 7.19532L12.4605 7.269C12.4673 7.29413 12.469 7.32034 12.4656 7.34613C12.4622 7.37192 12.4538 7.39679 12.4408 7.41932C12.4277 7.44185 12.4104 7.4616 12.3898 7.47743C12.3692 7.49327 12.3456 7.50489 12.3205 7.51162L12.0231 7.59128C11.7597 7.66184 11.589 7.92846 11.6547 8.19309C11.7217 8.4627 11.9964 8.62385 12.2636 8.55224L12.3592 8.52665C12.3282 8.47992 12.3054 8.42825 12.2918 8.37386Z" fill="#F89580"/>
<path d="M14.7798 2.35867L16.5528 1.45034C16.568 1.44253 16.5812 1.43123 16.5912 1.41736C16.6013 1.40349 16.6079 1.38744 16.6106 1.37052C16.6132 1.3536 16.6119 1.33629 16.6065 1.32C16.6012 1.30372 16.5922 1.28892 16.58 1.27681L15.7154 0.412211C15.7033 0.400097 15.6885 0.391017 15.6722 0.385712C15.6559 0.380408 15.6386 0.379029 15.6217 0.381689C15.6048 0.384349 15.5887 0.390972 15.5749 0.401018C15.561 0.411064 15.5497 0.424247 15.5419 0.439493L14.6336 2.21246C14.5855 2.30632 14.6859 2.40677 14.7798 2.35867ZM7.79861 3.08286L6.89028 1.30989C6.88248 1.29465 6.87118 1.28146 6.8573 1.27142C6.84343 1.26137 6.82738 1.25475 6.81046 1.25209C6.79354 1.24943 6.77623 1.25081 6.75994 1.25611C6.74366 1.26141 6.72886 1.27049 6.71675 1.28261L5.85215 2.14721C5.84004 2.15931 5.83096 2.17412 5.82565 2.1904C5.82035 2.20669 5.81897 2.224 5.82163 2.24092C5.82429 2.25784 5.83091 2.27389 5.84096 2.28776C5.85101 2.30163 5.86419 2.31293 5.87943 2.32074L7.6524 3.22907C7.74627 3.2772 7.84674 3.17672 7.79861 3.08286Z" fill="#2ED1E2"/>
<path d="M16.302 9.49799L17.6175 9.27542C17.7068 9.2603 17.7418 9.15072 17.6778 9.0867L16.5848 7.99369C16.5207 7.92967 16.4111 7.96465 16.396 8.05392L16.1735 9.36946C16.1607 9.44512 16.2264 9.51079 16.302 9.49799Z" fill="#FFD15B"/>
<path d="M3.79293 12.5551L4.59597 13.6206C4.65047 13.6929 4.76386 13.6735 4.79124 13.5872L5.25859 12.1138C5.28597 12.0275 5.20446 11.9463 5.11828 11.974L3.84789 12.3818C3.77485 12.4053 3.74677 12.4938 3.79293 12.5551Z" fill="#FFD15B"/>
<path d="M3.03638 9.86762L4.35193 9.64505C4.44119 9.62993 4.47617 9.52035 4.41215 9.45633L3.31914 8.36332C3.25512 8.2993 3.1455 8.33428 3.13042 8.42354L2.90785 9.73909C2.89509 9.81475 2.96072 9.88042 3.03638 9.86762Z" fill="#FE9738"/>
<path d="M16.8794 12.3121L17.3824 13.548C17.4165 13.6318 17.5311 13.6422 17.5797 13.5658L18.4093 12.2615C18.4578 12.1851 18.3999 12.0857 18.3095 12.0903L16.977 12.1588C16.9004 12.1627 16.8505 12.2411 16.8794 12.3121Z" fill="#FE9738"/>
<path d="M1.81575 5.79399L1.16582 6.44393C1.14343 6.46632 1.13086 6.49669 1.13086 6.52835C1.13086 6.56002 1.14343 6.59039 1.16582 6.61278L1.81575 7.26272C1.83815 7.2851 1.86852 7.29768 1.90018 7.29768C1.93185 7.29768 1.96221 7.2851 1.98461 7.26272L2.63454 6.61278C2.65693 6.59039 2.6695 6.56002 2.6695 6.52835C2.6695 6.49669 2.65693 6.46632 2.63454 6.44393L1.98461 5.79399C1.96221 5.77161 1.93185 5.75903 1.90018 5.75903C1.86852 5.75903 1.83815 5.77161 1.81575 5.79399Z" fill="#FE5CA7"/>
<path d="M2.68489 14.035L2.03496 14.6849C2.01257 14.7073 2 14.7377 2 14.7693C2 14.801 2.01257 14.8314 2.03496 14.8537L2.68489 15.5037C2.70729 15.5261 2.73766 15.5386 2.76932 15.5386C2.80099 15.5386 2.83135 15.5261 2.85375 15.5037L3.50368 14.8537C3.52607 14.8314 3.53864 14.801 3.53864 14.7693C3.53864 14.7377 3.52607 14.7073 3.50368 14.6849L2.85375 14.035C2.83135 14.0126 2.80099 14 2.76932 14C2.73766 14 2.70729 14.0126 2.68489 14.035Z" fill="#FFB68A"/>
<path d="M17.6849 6.03496L17.035 6.68489C17.0126 6.70729 17 6.73766 17 6.76932C17 6.80099 17.0126 6.83135 17.035 6.85375L17.6849 7.50368C17.7073 7.52607 17.7377 7.53864 17.7693 7.53864C17.801 7.53864 17.8314 7.52607 17.8537 7.50368L18.5037 6.85375C18.5261 6.83135 18.5386 6.80099 18.5386 6.76932C18.5386 6.73766 18.5261 6.70729 18.5037 6.68489L17.8537 6.03496C17.8314 6.01257 17.801 6 17.7693 6C17.7377 6 17.7073 6.01257 17.6849 6.03496Z" fill="#FFB68A"/>
<path d="M2.68489 10.035L2.03496 10.6849C2.01257 10.7073 2 10.7377 2 10.7693C2 10.801 2.01257 10.8314 2.03496 10.8537L2.68489 11.5037C2.70729 11.5261 2.73766 11.5386 2.76932 11.5386C2.80099 11.5386 2.83135 11.5261 2.85375 11.5037L3.50368 10.8537C3.52607 10.8314 3.53864 10.801 3.53864 10.7693C3.53864 10.7377 3.52607 10.7073 3.50368 10.6849L2.85375 10.035C2.83135 10.0126 2.80099 10 2.76932 10C2.73766 10 2.70729 10.0126 2.68489 10.035Z" fill="#FFB68A"/>
<path d="M15.6849 4.03496L15.035 4.68489C15.0126 4.70729 15 4.73766 15 4.76932C15 4.80099 15.0126 4.83135 15.035 4.85375L15.6849 5.50368C15.7073 5.52607 15.7377 5.53864 15.7693 5.53864C15.801 5.53864 15.8314 5.52607 15.8537 5.50368L16.5037 4.85375C16.5261 4.83135 16.5386 4.80099 16.5386 4.76932C16.5386 4.73766 16.5261 4.70729 16.5037 4.68489L15.8537 4.03496C15.8314 4.01257 15.801 4 15.7693 4C15.7377 4 15.7073 4.01257 15.6849 4.03496Z" fill="#FE5CA7"/>
</g>
<defs>
<clipPath id="clip0_23_4515">
<rect width="18" height="18" fill="white" transform="translate(0.541016)"/>
</clipPath>
</defs>
</svg>
