<svg width="24" height="24" viewBox="0 0 24 24" fill="none" xmlns="http://www.w3.org/2000/svg">
<g clip-path="url(#clip0_23_4596)">
<path d="M7.05882 11.2941H16.9412V5.64706C16.9412 5.2572 17.2572 4.94116 17.6471 4.94116H19.4118C19.8016 4.94116 20.1177 5.2572 20.1177 5.64706V18.3529C20.1177 18.7428 19.8016 19.0588 19.4118 19.0588H17.6471C17.2572 19.0588 16.9412 18.7428 16.9412 18.3529V12.7059H7.05882V18.3529C7.05882 18.7428 6.74278 19.0588 6.35293 19.0588H4.58821C4.19836 19.0588 3.88232 18.7428 3.88232 18.3529V5.64706C3.88232 5.2572 4.19836 4.94116 4.58821 4.94116H6.35293C6.74278 4.94116 7.05882 5.2572 7.05882 5.64706V11.2941ZM0.705894 7.41177H2.47061V16.5882H0.705894C0.316039 16.5882 0 16.2722 0 15.8823V8.11763C0 7.72777 0.316039 7.41177 0.705894 7.41177ZM21.5294 7.41177H23.2941C23.684 7.41177 24 7.72781 24 8.11767V15.8824C24 16.2722 23.684 16.5883 23.2941 16.5883H21.5294V7.41177Z" fill="#AAAAAA"/>
</g>
<defs>
<clipPath id="clip0_23_4596">
<rect width="24" height="24" fill="white"/>
</clipPath>
</defs>
</svg>
