<svg width="32" height="32" viewBox="0 0 32 32" fill="none" xmlns="http://www.w3.org/2000/svg">
<path d="M27.5267 17.3555C25.2281 20.7053 20.8551 22.1613 16.9094 20.6224C12.3055 18.8269 10.027 13.6344 11.8203 9.02462C12.6305 6.94175 14.1335 5.33439 15.9624 4.36353C11.322 4.37371 6.94464 7.18625 5.15866 11.7775C2.82975 17.7643 5.78885 24.508 11.768 26.8398C17.7471 29.1718 24.4821 26.2088 26.811 20.222C27.178 19.2786 27.4135 18.3163 27.5267 17.3555Z" fill="#959CB3"/>
<path d="M10.0158 7.21698C8.52304 11.0545 9.85233 15.2954 12.9955 17.6447C11.2086 15.2503 10.6579 12.015 11.8212 9.02462C12.6314 6.94175 14.1345 5.33439 15.9633 4.36353C14.1826 4.36743 12.4408 4.78443 10.8691 5.55589C10.5279 6.07842 10.2419 6.63512 10.0158 7.21698ZM24.0431 20.3437C21.1483 25.0085 15.2597 27.0977 9.9636 25.0322C8.83664 24.5927 7.81713 23.9963 6.91992 23.2779C8.15356 24.8215 9.79681 26.0708 11.7689 26.8398C17.748 29.1718 24.483 26.2088 26.8119 20.222C27.1789 19.2786 27.4143 18.3163 27.5276 17.3555C26.6318 18.6609 25.4209 19.6787 24.0431 20.3437Z" fill="#7C8293"/>
<path d="M9.24853 15.2803C9.98553 15.2803 10.583 14.682 10.583 13.9441C10.583 13.2061 9.98553 12.6079 9.24853 12.6079C8.51152 12.6079 7.91406 13.2061 7.91406 13.9441C7.91406 14.682 8.51152 15.2803 9.24853 15.2803Z" fill="#AEB7CE"/>
<path d="M18.623 24.1405C19.1396 24.1405 19.5585 23.7211 19.5585 23.2038C19.5585 22.6865 19.1396 22.2671 18.623 22.2671C18.1063 22.2671 17.6875 22.6865 17.6875 23.2038C17.6875 23.7211 18.1063 24.1405 18.623 24.1405Z" fill="#AEB7CE"/>
<path d="M18.0638 26.2853C18.4291 26.2853 18.7253 25.9888 18.7253 25.623C18.7253 25.2572 18.4291 24.9607 18.0638 24.9607C17.6985 24.9607 17.4023 25.2572 17.4023 25.623C17.4023 25.9888 17.6985 26.2853 18.0638 26.2853Z" fill="#AEB7CE"/>
<path d="M14.6076 26.56C15.7015 26.56 16.5883 25.672 16.5883 24.5767C16.5883 23.4814 15.7015 22.5935 14.6076 22.5935C13.5137 22.5935 12.627 23.4814 12.627 24.5767C12.627 25.672 13.5137 26.56 14.6076 26.56Z" fill="#AEB7CE"/>
<path d="M8.84114 20.8358C9.35316 20.8358 9.76822 20.4202 9.76822 19.9075C9.76822 19.3948 9.35316 18.9792 8.84114 18.9792C8.32913 18.9792 7.91406 19.3948 7.91406 19.9075C7.91406 20.4202 8.32913 20.8358 8.84114 20.8358Z" fill="#AEB7CE"/>
<path d="M6.395 14.0873C6.69944 14.0873 6.94624 13.8402 6.94624 13.5354C6.94624 13.2305 6.69944 12.9834 6.395 12.9834C6.09055 12.9834 5.84375 13.2305 5.84375 13.5354C5.84375 13.8402 6.09055 14.0873 6.395 14.0873Z" fill="#AEB7CE"/>
</svg>
