<svg width="32" height="32" viewBox="0 0 32 32" fill="none" xmlns="http://www.w3.org/2000/svg">
<path d="M29.5 19.021H27.25C27.1174 19.021 26.9902 18.9683 26.8964 18.8745C26.8027 18.7808 26.75 18.6536 26.75 18.521C26.75 18.3884 26.8027 18.2612 26.8964 18.1674C26.9902 18.0737 27.1174 18.021 27.25 18.021H29.5C29.6326 18.021 29.7598 18.0737 29.8536 18.1674C29.9473 18.2612 30 18.3884 30 18.521C30 18.6536 29.9473 18.7808 29.8536 18.8745C29.7598 18.9683 29.6326 19.021 29.5 19.021ZM6.99 21.52H25.01C25.3357 20.5534 25.5012 19.54 25.5 18.52C25.4968 16.0014 24.4949 13.5869 22.714 11.806C20.9331 10.0251 18.5186 9.02317 16 9.02C9.64 8.911 4.8795 15.536 6.99 21.52ZM27.25 22.52H4.75C4.61739 22.52 4.49021 22.5727 4.39645 22.6664C4.30268 22.7602 4.25 22.8874 4.25 23.02C4.25 23.1526 4.30268 23.2798 4.39645 23.3736C4.49021 23.4673 4.61739 23.52 4.75 23.52H27.25C27.3826 23.52 27.5098 23.4673 27.6036 23.3736C27.6973 23.2798 27.75 23.1526 27.75 23.02C27.75 22.8874 27.6973 22.7602 27.6036 22.6664C27.5098 22.5727 27.3826 22.52 27.25 22.52ZM16 7.771C16.1326 7.771 16.2598 7.71832 16.3536 7.62455C16.4473 7.53078 16.5 7.4036 16.5 7.271V5.021C16.5 4.88839 16.4473 4.76121 16.3536 4.66744C16.2598 4.57367 16.1326 4.521 16 4.521C15.8674 4.521 15.7402 4.57367 15.6464 4.66744C15.5527 4.76121 15.5 4.88839 15.5 5.021V7.271C15.5 7.4036 15.5527 7.53078 15.6464 7.62455C15.7402 7.71832 15.8674 7.771 16 7.771ZM7.6915 10.9195C7.7858 11.0106 7.9121 11.061 8.0432 11.0598C8.1743 11.0587 8.29971 11.0061 8.39241 10.9134C8.48511 10.8207 8.5377 10.6953 8.53884 10.5642C8.53998 10.4331 8.48958 10.3068 8.3985 10.2125L6.8075 8.6215C6.7132 8.53042 6.5869 8.48002 6.4558 8.48116C6.3247 8.4823 6.1993 8.53488 6.10659 8.62759C6.01389 8.72029 5.9613 8.8457 5.96016 8.9768C5.95902 9.10789 6.00942 9.23419 6.1005 9.3285L7.6915 10.9195ZM5.25 18.521C5.25 18.3884 5.19732 18.2612 5.10355 18.1674C5.00979 18.0737 4.88261 18.021 4.75 18.021H2.5C2.36739 18.021 2.24021 18.0737 2.14645 18.1674C2.05268 18.2612 2 18.3884 2 18.521C2 18.6536 2.05268 18.7808 2.14645 18.8745C2.24021 18.9683 2.36739 19.021 2.5 19.021H4.75C4.88261 19.021 5.00979 18.9683 5.10355 18.8745C5.19732 18.7808 5.25 18.6536 5.25 18.521ZM23.955 11.066C24.0207 11.0661 24.0857 11.0532 24.1464 11.028C24.207 11.0029 24.2621 10.966 24.3085 10.9195L25.8995 9.3285C25.9473 9.28237 25.9853 9.2272 26.0116 9.1662C26.0378 9.1052 26.0515 9.03959 26.0521 8.9732C26.0527 8.90681 26.0401 8.84097 26.0149 8.77952C25.9898 8.71807 25.9526 8.66224 25.9057 8.6153C25.8588 8.56835 25.8029 8.53123 25.7415 8.50609C25.68 8.48094 25.6142 8.46829 25.5478 8.46887C25.4814 8.46945 25.4158 8.48324 25.3548 8.50945C25.2938 8.53565 25.2386 8.57374 25.1925 8.6215L23.6015 10.2125C23.5333 10.283 23.4871 10.372 23.4688 10.4684C23.4504 10.5649 23.4606 10.6645 23.4982 10.7552C23.5358 10.8459 23.599 10.9236 23.6802 10.9789C23.7613 11.0341 23.8569 11.0644 23.955 11.066ZM22.5 26.479H9.5C9.36739 26.479 9.24021 26.5317 9.14645 26.6254C9.05268 26.7192 9 26.8464 9 26.979C9 27.1116 9.05268 27.2388 9.14645 27.3326C9.24021 27.4263 9.36739 27.479 9.5 27.479H22.5C22.6326 27.479 22.7598 27.4263 22.8536 27.3326C22.9473 27.2388 23 27.1116 23 26.979C23 26.8464 22.9473 26.7192 22.8536 26.6254C22.7598 26.5317 22.6326 26.479 22.5 26.479Z" fill="#EE855D"/>
</svg>
