<svg width="32" height="32" viewBox="0 0 32 32" fill="none" xmlns="http://www.w3.org/2000/svg">
<path d="M21.8708 29.8801L8.62187 29.8845C8.62187 29.8845 7.87076 29.9334 7.85742 29.3112C7.85742 29.3112 7.87076 29.3067 7.89742 29.2934C7.94631 29.2756 8.03075 29.2356 8.13742 29.1689C8.1552 29.1601 8.17298 29.1467 8.1952 29.1378C8.53298 28.9378 8.81298 28.7067 8.95964 28.4845C9.04409 28.3556 9.1152 28.2223 9.16409 28.0756C9.46187 27.5289 9.66631 26.7512 9.56853 25.6756L8.63076 15.4134C8.62073 15.2729 8.61776 15.132 8.62187 14.9912C8.65742 13.3867 9.34187 11.8578 10.4619 10.7067L10.9819 10.1467C10.9863 10.1512 10.9908 10.1601 10.9952 10.1645C11.7463 11.329 13.5996 12.4578 15.8574 12.1956L15.9774 12.929L17.2752 16.5378L21.4352 15.3912L21.7908 16.169L22.5996 17.9423L22.9819 18.7867C22.9819 18.7867 19.3285 20.4134 17.213 20.7512C17.2219 20.9512 17.2308 21.2089 17.2352 21.2534C17.293 21.9867 17.893 22.5734 18.6174 22.7156C20.1419 23.0223 24.6663 24.0756 24.8441 26.0445C25.0174 27.9423 24.1685 29.7956 21.8708 29.8801Z" fill="white"/>
<path d="M17.9255 20.6045C20.0588 20.0889 22.9788 18.7911 22.9788 18.7911L22.9655 18.76C21.7922 19.2489 19.4544 20.1689 17.9211 20.4133C17.9211 20.4756 17.9255 20.5422 17.9255 20.6045ZM22.5833 29.5378L9.33439 29.5422C9.33439 29.5422 8.58328 29.5911 8.56995 28.9689C8.56995 28.9689 8.58328 28.9645 8.60995 28.9511C8.65884 28.9333 8.74328 28.8933 8.84995 28.8267C8.86773 28.8178 8.8855 28.8045 8.90773 28.7956C9.2455 28.5956 9.5255 28.3645 9.67217 28.1422C9.75661 28.0133 9.82773 27.88 9.87661 27.7333C10.1744 27.1867 10.3788 26.4089 10.2811 25.3333L9.34328 15.0711C9.33439 14.9556 9.32995 14.8133 9.33439 14.6533C9.36995 13.0578 10.0499 11.5378 11.1566 10.3911C11.0988 10.3156 11.0455 10.2445 11.0011 10.1689C10.9966 10.1645 10.9922 10.1556 10.9877 10.1511L10.4677 10.7111C9.34773 11.8622 8.66328 13.3911 8.62773 14.9956C8.62328 15.1556 8.62773 15.2933 8.63661 15.4178L9.57439 25.68C9.67217 26.7556 9.47217 27.5289 9.16995 28.08C9.12106 28.2267 9.04995 28.36 8.9655 28.4889C8.81439 28.7111 8.53884 28.9422 8.20106 29.1422C8.17884 29.1511 8.16106 29.1645 8.14328 29.1733C8.03661 29.2356 7.95217 29.2756 7.90328 29.2978C7.87661 29.3111 7.86328 29.3156 7.86328 29.3156C7.87661 29.9378 8.62773 29.8889 8.62773 29.8889L21.8766 29.8845C22.5699 29.8578 23.1299 29.6711 23.5699 29.3689C23.2722 29.4622 22.9477 29.5245 22.5833 29.5378Z" fill="#C87C37"/>
<path d="M27.1655 20.9466C27.0144 20.9466 26.8899 20.8222 26.8899 20.6711V19.7599C26.8899 19.6088 27.0144 19.4844 27.1655 19.4844C27.3166 19.4844 27.4411 19.6088 27.4411 19.7599V20.6711C27.4411 20.8222 27.3166 20.9466 27.1655 20.9466ZM27.1655 23.2088C27.0144 23.2088 26.8899 23.0844 26.8899 22.9333V22.0222C26.8899 21.8711 27.0144 21.7466 27.1655 21.7466C27.3166 21.7466 27.4411 21.8711 27.4411 22.0222V22.9333C27.4411 23.0844 27.3166 23.2088 27.1655 23.2088ZM28.7522 21.6222H27.8411C27.6899 21.6222 27.5655 21.4977 27.5655 21.3466C27.5655 21.1955 27.6899 21.0711 27.8411 21.0711H28.7522C28.9033 21.0711 29.0277 21.1955 29.0277 21.3466C29.0277 21.4977 28.9077 21.6222 28.7522 21.6222ZM26.4899 21.6222H25.5788C25.4277 21.6222 25.3033 21.4977 25.3033 21.3466C25.3033 21.1955 25.4277 21.0711 25.5788 21.0711H26.4899C26.6411 21.0711 26.7655 21.1955 26.7655 21.3466C26.7655 21.4977 26.6455 21.6222 26.4899 21.6222ZM6.67661 6.45328C6.52995 6.45328 6.4055 6.33328 6.4055 6.18217V5.29772C6.4055 5.15106 6.5255 5.02661 6.67661 5.02661C6.82328 5.02661 6.94773 5.14661 6.94773 5.29772V6.18217C6.94773 6.33328 6.82328 6.45328 6.67661 6.45328ZM6.67661 8.64883C6.52995 8.64883 6.4055 8.52883 6.4055 8.37772V7.49328C6.4055 7.34661 6.5255 7.22217 6.67661 7.22217C6.82328 7.22217 6.94773 7.34217 6.94773 7.49328V8.37772C6.94773 8.52883 6.82328 8.64883 6.67661 8.64883ZM8.21884 7.11106H7.33439C7.18773 7.11106 7.06328 6.99106 7.06328 6.83994C7.06328 6.69328 7.18328 6.56883 7.33439 6.56883H8.21884C8.3655 6.56883 8.48995 6.68883 8.48995 6.83994C8.4855 6.98661 8.3655 7.11106 8.21884 7.11106ZM6.01884 7.11106H5.13439C4.98773 7.11106 4.86328 6.99106 4.86328 6.83994C4.86328 6.69328 4.98328 6.56883 5.13439 6.56883H6.01884C6.1655 6.56883 6.28995 6.68883 6.28995 6.83994C6.28995 6.98661 6.16995 7.11106 6.01884 7.11106Z" fill="white"/>
<path d="M18.7521 26.2044L17.9388 26.3155C17.6099 26.36 17.2721 26.3422 16.9432 26.2933C16.1165 26.1689 15.2988 26.1778 14.5032 26.3244C11.4499 26.8755 10.201 26.5511 9.68988 26.1822C9.39654 25.9733 9.3521 25.7555 9.34766 25.7111L9.58766 25.5244C9.58766 25.5244 10.2099 26.6355 14.4232 25.8755C15.4365 25.6933 16.4854 25.7155 17.5343 25.9378L18.7521 26.2044ZM16.5521 21.04C16.4677 21.04 16.3921 21.0355 16.3165 21.0311C12.8899 20.6978 10.8721 15.6933 10.7877 15.48C10.7921 15.4889 11.241 15.6089 11.401 15.9422C12.0232 17.2444 13.7699 20.4666 16.281 20.7066C16.4988 20.7289 16.8854 20.8089 17.2054 20.7555L17.2188 21.04C16.9654 21.08 16.7565 21.04 16.5521 21.04Z" fill="#C87C37"/>
<path d="M17.5951 7.80901L16.9818 8.12901C16.9818 8.12901 17.0929 8.89345 17.1773 9.76901C17.2173 10.2135 16.5151 10.4979 15.5773 10.4668C15.0306 10.449 14.404 10.3246 13.7951 10.0579C13.393 9.87691 13.0294 9.62042 12.724 9.30234C12.7195 9.2979 12.7195 9.2979 12.7195 9.29345C12.6751 9.1379 12.0662 7.10679 12.8973 6.82679C13.7595 6.54234 13.7729 7.78234 14.3418 7.23568C14.9195 6.68456 14.5595 5.11123 15.3951 4.58234C16.2306 4.05345 16.9818 4.68901 16.9818 4.68901V4.69345L17.2706 6.24012L17.7551 7.32012C17.8395 7.50679 17.7684 7.71123 17.5951 7.80901Z" fill="#F6E8CC"/>
<path d="M15.8542 10.2711C15.3075 10.2533 14.6809 10.1289 14.072 9.86222C14.0275 9.84444 13.9831 9.82222 13.9386 9.79555C13.2897 9.43555 12.8675 8.76444 12.7786 8.02666C12.7253 7.57333 12.7297 7.09333 12.9164 6.82666C12.912 6.82666 12.9075 6.82666 12.8986 6.8311C12.0631 7.11555 12.6853 9.16444 12.7209 9.29777C12.7253 9.30222 12.7253 9.30222 12.7253 9.30666C13.0142 9.60888 13.3697 9.8711 13.792 10.0622C14.4009 10.3289 15.0231 10.4533 15.5742 10.4711C16.2853 10.4933 16.8586 10.3378 17.0764 10.0667C16.7964 10.2089 16.3609 10.2844 15.8542 10.2711Z" fill="#EABE7F"/>
<path d="M14.6221 7.03555C15.151 6.52444 14.8932 5.15555 15.4976 4.52888C15.4665 4.54666 15.431 4.56444 15.3999 4.58222C14.5954 5.08889 14.8976 6.56444 14.4043 7.16444C14.4665 7.15555 14.5376 7.11555 14.6221 7.03555ZM17.2576 7.92889C17.2576 7.92889 17.2621 7.95111 17.2665 7.98222L17.5999 7.80889C17.6532 7.77777 17.6976 7.73333 17.7287 7.68444L17.2576 7.92889Z" fill="#F0CA8C"/>
<path d="M16.9866 4.69333C16.9866 4.69333 16.2355 4.05333 15.3999 4.58667C14.5644 5.11111 14.9244 6.68445 14.3466 7.24C13.7732 7.78667 13.7599 6.54667 12.9021 6.83111C12.071 7.11111 12.6799 9.14222 12.7244 9.29778C12.4799 9.05333 12.2844 8.77778 12.1155 8.49778C11.471 7.40445 11.3555 6.23556 11.3555 6.23556L16.1332 2.72H16.1377C17.1555 3.00445 18.0444 3.59111 16.9866 4.69333Z" fill="#2E2E2E"/>
<path d="M12.5155 8.59556C12.511 8.58667 12.5021 8.57333 12.4977 8.56445C11.8488 7.44445 12.191 6.01333 13.231 5.24889L16.5066 2.84C16.3866 2.79556 16.2621 2.75556 16.1377 2.72H16.1332L11.3555 6.23556C11.3555 6.23556 11.4755 7.40445 12.1155 8.49778C12.2844 8.77333 12.4799 9.04889 12.7244 9.29778C12.711 9.24889 12.6355 9 12.5732 8.68C12.5555 8.65334 12.5332 8.62667 12.5155 8.59556Z" fill="#1A1A1A"/>
<path d="M16.1862 2.68L16.1373 2.71556H16.1329L11.3551 6.23111C10.6573 4.92 10.9995 3.26667 12.2307 2.36C13.4618 1.46222 15.1462 1.62667 16.1862 2.68Z" fill="#EFE0D6"/>
<path d="M13.2798 4.55118C12.3331 5.24895 11.0131 4.26673 11.4709 3.18229C11.4753 3.1734 11.4798 3.16451 11.4798 3.15562C11.185 3.61062 11.0175 4.13633 10.9948 4.67802C10.9722 5.21971 11.0951 5.75758 11.3509 6.23562L16.1331 2.72006H16.1376L16.1864 2.68451C16.1331 2.63118 16.0709 2.59118 16.0131 2.53784L13.2798 4.55118Z" fill="white"/>
<path d="M26.1338 15.7512C26.0138 16.0134 25.7738 16.1957 25.5427 16.3645C24.6004 17.009 23.6716 17.6223 22.596 17.9512L21.7871 16.1779C22.4138 15.7645 22.7782 15.2179 22.7382 14.4179C22.7293 14.2134 22.6982 14.0001 22.7604 13.809C22.8271 13.6134 23.0404 13.449 23.2316 13.5334C23.3427 13.5779 23.4182 13.7023 23.4671 13.8179C23.636 14.209 23.7116 14.6357 23.6804 15.0579C24.2538 14.8712 25.4938 12.809 25.6449 12.7557C25.7827 12.7023 25.9427 12.8045 26.0316 12.9334C26.7249 13.9245 26.2804 15.4268 26.1338 15.7512Z" fill="#F6E8CC"/>
<path d="M22.6758 15.0489C22.8536 14.7511 22.9469 14.4044 22.9247 13.9911C22.9202 13.8667 22.9069 13.7333 22.9113 13.6089C22.8491 13.6622 22.7913 13.7333 22.7647 13.8133C22.7024 14.0044 22.7336 14.2178 22.7424 14.4222C22.7558 14.6489 22.7291 14.8578 22.6758 15.0489Z" fill="#F0CA8C"/>
<path d="M25.7249 15.9332C25.316 16.2088 24.9116 16.4843 24.4982 16.7288C23.6227 17.2488 22.4893 16.8888 22.0671 15.9643C21.9782 16.0399 21.8893 16.111 21.7871 16.1777L22.596 17.951C23.6716 17.6221 24.6004 17.0088 25.5427 16.3643C25.7738 16.1954 26.0138 16.0132 26.1338 15.751C26.1604 15.6888 26.2004 15.5821 26.2404 15.4443C26.1116 15.6443 25.916 15.7954 25.7249 15.9332Z" fill="#EABE7F"/>
<path d="M27.164 6.81334C27.023 7.51438 26.6435 8.14493 26.0901 8.59784C25.5367 9.05076 24.8436 9.29808 24.1285 9.29778C22.4174 9.29778 21.0352 7.91556 21.0352 6.20445C21.0352 4.70223 22.1018 3.45334 23.5152 3.17334C23.2658 3.41326 23.0676 3.70112 22.9324 4.01962C22.7972 4.33812 22.7279 4.68067 22.7285 5.02667C22.7281 5.54093 22.8816 6.04354 23.1693 6.46983C23.4569 6.89612 23.8656 7.2266 24.3426 7.41874C24.8196 7.61089 25.3432 7.65591 25.846 7.54802C26.3488 7.44014 26.8078 7.18427 27.164 6.81334Z" fill="white"/>
<path d="M24.3467 8.89778C22.6356 8.89778 21.2533 7.51556 21.2533 5.80444C21.2533 5.34667 21.3644 4.91556 21.5422 4.52444C21.2126 5.02446 21.0365 5.61 21.0356 6.20889C21.0356 7.92 22.4178 9.30222 24.1289 9.30222C25.3778 9.30222 26.4444 8.56 26.9378 7.49778C26.3822 8.33333 25.4311 8.89778 24.3467 8.89778ZM15.8622 12.2C13.6044 12.4622 11.7511 11.3333 11 10.1689L12.12 8.49778C12.2889 8.77333 12.4844 9.04889 12.7289 9.29778C12.7289 9.30222 12.7289 9.30222 12.7333 9.30667C13.0222 9.60889 13.3778 9.87111 13.8044 10.0622C14.4133 10.3289 15.0356 10.4533 15.5867 10.4711L15.8622 12.2Z" fill="#C87C37"/>
<path d="M12.965 11.5511C11.9516 11.0089 11.645 9.6978 12.2805 8.74669C12.2228 8.66225 12.165 8.58225 12.1161 8.4978L10.9961 10.1689C11.7472 11.3334 13.6005 12.4622 15.8583 12.2V12.1911C14.7561 12.2489 13.765 11.9822 12.965 11.5511Z" fill="#E1B791"/>
<path d="M9.68533 25.9779C9.67199 26.3556 9.5831 26.7201 9.51199 27.0934C9.44533 27.4445 9.38755 27.8134 9.2631 28.1467C9.20977 28.3023 9.13866 28.4445 9.04533 28.5823C8.88533 28.8179 8.59199 29.0667 8.23199 29.2756C8.20977 29.2845 8.18755 29.2979 8.16977 29.3112C8.08977 29.3556 8.00088 29.4001 7.91199 29.4401C7.88088 29.4534 7.86755 29.4579 7.86755 29.4579C7.3031 29.7156 6.64088 29.8579 6.07644 29.7512C5.91644 29.7201 5.66755 29.209 5.72533 28.9867C5.76533 28.8312 6.20088 28.7734 6.3431 28.6979C6.79199 28.4667 7.15199 28.0579 7.3031 27.5734C7.4231 27.1779 7.41422 26.7601 7.41866 26.3423C7.41866 25.929 7.42755 25.5023 7.58755 25.1245C7.74755 24.7423 8.08977 24.409 8.49866 24.3779C8.87644 24.3467 9.23644 24.5734 9.44088 24.8934C9.64088 25.209 9.7031 25.6001 9.68533 25.9779Z" fill="#F6E8CC"/>
<path d="M7.4528 27.2845C7.5728 26.8889 7.56391 26.4711 7.56836 26.0534C7.56836 25.6489 7.58169 25.2356 7.72836 24.8667C7.67058 24.9467 7.62169 25.0356 7.58169 25.1289C7.42169 25.5067 7.4128 25.9289 7.4128 26.3467C7.40836 26.76 7.41724 27.1823 7.29724 27.5778C7.27947 27.6311 7.2528 27.6845 7.22613 27.7378C7.32391 27.5911 7.40391 27.4445 7.4528 27.2845ZM9.19502 28.2845C9.03502 28.52 8.74169 28.7689 8.38169 28.9778C8.35947 28.9867 8.33724 29 8.31947 29.0134C8.23947 29.0578 8.15058 29.1023 8.06169 29.1423C8.03058 29.1556 8.01725 29.16 8.01725 29.16C7.4528 29.4178 6.79058 29.56 6.22613 29.4534C6.09724 29.4311 5.91502 29.0978 5.87502 28.8534C5.79502 28.8889 5.7328 28.9289 5.71947 28.9823C5.66169 29.2045 5.91058 29.7156 6.07058 29.7467C6.63502 29.8534 7.29724 29.7067 7.86169 29.4534C7.86169 29.4534 7.87502 29.4489 7.90613 29.4356C7.99502 29.3911 8.07947 29.3467 8.16391 29.3067C8.18169 29.2978 8.20391 29.2845 8.22613 29.2711C8.58613 29.0578 8.88391 28.8134 9.03947 28.5778C9.10613 28.48 9.15947 28.3778 9.20391 28.2711C9.20391 28.2756 9.19947 28.28 9.19502 28.2845Z" fill="#EABE7F"/>
<path d="M29.0179 30.2222H2.98231C2.89272 30.2222 2.80681 30.1866 2.74346 30.1233C2.68012 30.06 2.64453 29.974 2.64453 29.8845C2.64453 29.7949 2.68012 29.709 2.74346 29.6456C2.80681 29.5823 2.89272 29.5467 2.98231 29.5467H29.0134C29.2001 29.5467 29.3512 29.6978 29.3512 29.8845C29.3556 30.0711 29.2045 30.2222 29.0179 30.2222Z" fill="white"/>
</svg>
