<svg width="41" height="40" viewBox="0 0 41 40" fill="none" xmlns="http://www.w3.org/2000/svg">
<g clip-path="url(#clip0_23_5145)">
<path d="M36.4676 19.8213H36.4951C37.7675 18.4701 38.4945 16.6955 38.5357 14.84C38.4739 7.69375 26.282 4.47125 24.2501 1.25C22.2182 4.47188 10.0264 7.69375 9.96448 14.84C10.0057 16.6955 10.7327 18.4701 12.0051 19.8213H12.0326C11.1496 20.6422 10.4464 21.6374 9.96747 22.744C9.48855 23.8505 9.24428 25.0443 9.2501 26.25V37.5H39.2501V26.25C39.2559 25.0443 39.0117 23.8505 38.5327 22.744C38.0538 21.6374 37.3506 20.6422 36.4676 19.8213Z" fill="#F7DFCE"/>
<path d="M39.25 38.125H9.25002C9.08426 38.125 8.92529 38.0591 8.80808 37.9419C8.69087 37.8247 8.62502 37.6657 8.62502 37.5V26.25C8.62013 23.853 9.53017 21.5445 11.1694 19.7956C10.0142 18.3995 9.36883 16.6518 9.33939 14.84C9.38314 9.82686 14.7375 6.73499 19.04 4.25186C21.125 3.04811 23.0938 1.91124 23.7213 0.916864C23.7812 0.832501 23.8605 0.763713 23.9525 0.716247C24.0445 0.66878 24.1465 0.644012 24.25 0.644012C24.3535 0.644012 24.4555 0.66878 24.5475 0.716247C24.6395 0.763713 24.7188 0.832501 24.7788 0.916864C25.4063 1.91061 27.375 3.04811 29.46 4.25186C33.7625 6.73499 39.1175 9.82686 39.16 14.8344C39.1317 16.6479 38.4865 18.3978 37.3306 19.7956C38.9699 21.5445 39.8799 23.853 39.875 26.25V37.5C39.875 37.6657 39.8092 37.8247 39.692 37.9419C39.5748 38.0591 39.4158 38.125 39.25 38.125ZM9.87502 36.875H38.625V26.25C38.6288 25.131 38.4014 24.0233 37.9573 22.9962C37.5131 21.9692 36.8617 21.0449 36.0438 20.2812C35.9745 20.2174 35.9206 20.1387 35.886 20.051C35.8515 19.9634 35.8372 19.8691 35.8442 19.7751C35.8512 19.6812 35.8794 19.59 35.9266 19.5085C35.9739 19.427 36.0389 19.3572 36.1169 19.3044C37.2334 18.0811 37.8704 16.4957 37.9106 14.84C37.8738 10.5525 32.8619 7.65874 28.8356 5.33374C26.9256 4.23186 25.2313 3.25374 24.25 2.24186C23.2688 3.25436 21.5738 4.23186 19.665 5.33374C15.6381 7.65874 10.6263 10.5525 10.59 14.8456C10.6329 16.518 11.2832 18.1177 12.4194 19.3456C12.4999 19.4113 12.5623 19.4965 12.6006 19.5931C12.6489 19.7088 12.661 19.8364 12.6354 19.9592C12.6097 20.0819 12.5475 20.194 12.4569 20.2806C11.6388 21.0443 10.9872 21.9687 10.5429 22.9958C10.0987 24.023 9.87127 25.1309 9.87502 26.25V36.875Z" fill="#EBBE28"/>
<path d="M9.22375 5.92062C8.88469 6.25813 8.47599 6.51749 8.02623 6.68056C7.57647 6.84364 7.09652 6.90648 6.61994 6.86471C6.14335 6.82294 5.68165 6.67756 5.26712 6.43874C4.85259 6.19991 4.49523 5.87341 4.22005 5.48207C3.94487 5.09072 3.7585 4.64399 3.67398 4.1731C3.58947 3.70222 3.60884 3.21856 3.73075 2.75594C3.85266 2.29333 4.07416 1.86293 4.37977 1.49485C4.68537 1.12677 5.06769 0.829902 5.5 0.625C4.63471 0.625 3.78885 0.881589 3.06938 1.36232C2.34992 1.84305 1.78916 2.52633 1.45803 3.32576C1.1269 4.12519 1.04026 5.00485 1.20907 5.85352C1.37788 6.70219 1.79456 7.48174 2.40641 8.09359C3.01826 8.70545 3.79782 9.12212 4.64648 9.29094C5.49515 9.45975 6.37482 9.37311 7.17424 9.04197C7.97367 8.71084 8.65695 8.15008 9.13768 7.43062C9.61841 6.71115 9.875 5.86529 9.875 5C9.71213 5.34184 9.49186 5.65323 9.22375 5.92062Z" fill="#FFE352"/>
<path d="M26.125 34.375C27.1196 34.375 28.0734 33.9799 28.7767 33.2767C29.4799 32.5734 29.875 31.6196 29.875 30.625V26.4906C29.875 25.4236 29.6648 24.3669 29.2565 23.3811C28.8481 22.3952 28.2496 21.4995 27.495 20.745L26.75 20L23.625 20.9375C22.8397 21.6246 22.2104 22.4717 21.7792 23.4218C21.3481 24.372 21.125 25.4034 21.125 26.4469V29.375L17.01 31.4325C16.3684 31.7533 15.8288 32.2465 15.4517 32.8567C15.0746 33.467 14.8749 34.1702 14.875 34.8875C14.875 35.9119 15.2819 36.8943 16.0063 37.6187C16.7307 38.3431 17.7131 38.75 18.7375 38.75H29.875V34.375H26.125Z" fill="#858494"/>
<path d="M29.875 38.75H35.0719C35.3512 38.75 35.619 38.639 35.8165 38.4415C36.014 38.244 36.125 37.9762 36.125 37.6969C36.1249 37.4621 36.0464 37.2341 35.9019 37.0491C35.7574 36.8641 35.5552 36.7326 35.3275 36.6756L33.625 36.25L33.1006 35.4638C32.8774 35.1289 32.575 34.8544 32.2202 34.6644C31.8655 34.4745 31.4693 34.3751 31.0669 34.375H29.875V38.75Z" fill="#CEB29F"/>
<path d="M21.4817 31.0788C21.9195 31.0799 22.3532 30.9941 22.7577 30.8264C23.1621 30.6587 23.5293 30.4125 23.8379 30.1019L26.7848 27.1556C27.2971 26.6252 27.5806 25.9147 27.5742 25.1773C27.5678 24.4399 27.272 23.7345 26.7505 23.213C26.2291 22.6916 25.5237 22.3958 24.7862 22.3894C24.0488 22.3829 23.3384 22.6664 22.8079 23.1788L21.4817 24.505L21.4161 24.4388C21.226 25.0913 21.128 25.7672 21.1248 26.4469V29.375L19.3311 30.2719C19.9281 30.7897 20.6913 31.0758 21.4817 31.0781V31.0788Z" fill="white"/>
<path d="M21.4815 26.2725L23.6915 24.0625C23.9845 23.7696 24.3819 23.605 24.7962 23.605C25.2105 23.605 25.6078 23.7696 25.9009 24.0625C26.1938 24.3555 26.3583 24.7529 26.3583 25.1672C26.3583 25.5815 26.1938 25.9789 25.9009 26.2719L22.9546 29.2187C22.7612 29.4122 22.5315 29.5657 22.2787 29.6704C22.026 29.7751 21.7551 29.829 21.4815 29.829C21.2079 29.829 20.937 29.7751 20.6842 29.6704C20.4315 29.5657 20.2018 29.4122 20.0084 29.2187L16.6934 25.9037L18.9027 23.6937L21.4815 26.2725Z" fill="#858494"/>
<path d="M18.1669 22.9575L18.9037 23.6944L16.6937 25.9037L15.9575 25.1669C15.6646 24.8739 15.5 24.4765 15.5 24.0622C15.5 23.6479 15.6646 23.2505 15.9575 22.9575C16.2505 22.6646 16.6478 22.5 17.0622 22.5C17.4765 22.5 17.8738 22.6646 18.1669 22.9575ZM21.125 13.75V16.25C21.1249 16.9704 21.3738 17.6687 21.8293 18.2267C22.2849 18.7847 22.9192 19.1683 23.625 19.3125V20.9375L26.75 20V18.9481C28.2269 18.2456 28.625 17.3694 28.625 15.625V13.75H21.125Z" fill="#CEB29F"/>
<path d="M28.625 13.75H21.125C21.125 12.7554 21.5201 11.8016 22.2233 11.0983C22.9266 10.3951 23.8804 10 24.875 10C25.8696 10 26.8234 10.3951 27.5267 11.0983C28.2299 11.8016 28.625 12.7554 28.625 13.75Z" fill="#858494"/>
<path d="M21.125 34.375C20.9592 34.375 20.8003 34.4408 20.6831 34.5581C20.5658 34.6753 20.5 34.8342 20.5 35C20.5 35.1658 20.5658 35.3247 20.6831 35.4419C20.8003 35.5592 20.9592 35.625 21.125 35.625H29.875V34.375H21.125Z" fill="white"/>
<path d="M6.125 21.875C6.47018 21.875 6.75 21.5952 6.75 21.25C6.75 20.9048 6.47018 20.625 6.125 20.625C5.77982 20.625 5.5 20.9048 5.5 21.25C5.5 21.5952 5.77982 21.875 6.125 21.875Z" fill="#FFE352"/>
<path d="M31.75 11.25C32.0952 11.25 32.375 10.9702 32.375 10.625C32.375 10.2798 32.0952 10 31.75 10C31.4048 10 31.125 10.2798 31.125 10.625C31.125 10.9702 31.4048 11.25 31.75 11.25Z" fill="#FFE352"/>
<path d="M34.875 25.625C35.2202 25.625 35.5 25.3452 35.5 25C35.5 24.6548 35.2202 24.375 34.875 24.375C34.5298 24.375 34.25 24.6548 34.25 25C34.25 25.3452 34.5298 25.625 34.875 25.625Z" fill="#FFE352"/>
<path d="M15.5 14.375C15.3342 14.375 15.1753 14.3092 15.0581 14.1919C14.9408 14.0747 14.875 13.9158 14.875 13.75V13.125C14.875 12.9592 14.9408 12.8003 15.0581 12.6831C15.1753 12.5658 15.3342 12.5 15.5 12.5C15.6658 12.5 15.8247 12.5658 15.9419 12.6831C16.0592 12.8003 16.125 12.9592 16.125 13.125V13.75C16.125 13.9158 16.0592 14.0747 15.9419 14.1919C15.8247 14.3092 15.6658 14.375 15.5 14.375ZM15.5 17.5C15.3342 17.5 15.1753 17.4342 15.0581 17.3169C14.9408 17.1997 14.875 17.0408 14.875 16.875V16.25C14.875 16.0842 14.9408 15.9253 15.0581 15.8081C15.1753 15.6908 15.3342 15.625 15.5 15.625C15.6658 15.625 15.8247 15.6908 15.9419 15.8081C16.0592 15.9253 16.125 16.0842 16.125 16.25V16.875C16.125 17.0408 16.0592 17.1997 15.9419 17.3169C15.8247 17.4342 15.6658 17.5 15.5 17.5ZM14.25 15.625H13.625C13.4592 15.625 13.3003 15.5592 13.1831 15.4419C13.0658 15.3247 13 15.1658 13 15C13 14.8342 13.0658 14.6753 13.1831 14.5581C13.3003 14.4408 13.4592 14.375 13.625 14.375H14.25C14.4158 14.375 14.5747 14.4408 14.6919 14.5581C14.8092 14.6753 14.875 14.8342 14.875 15C14.875 15.1658 14.8092 15.3247 14.6919 15.4419C14.5747 15.5592 14.4158 15.625 14.25 15.625ZM17.375 15.625H16.75C16.5842 15.625 16.4253 15.5592 16.3081 15.4419C16.1908 15.3247 16.125 15.1658 16.125 15C16.125 14.8342 16.1908 14.6753 16.3081 14.5581C16.4253 14.4408 16.5842 14.375 16.75 14.375H17.375C17.5408 14.375 17.6997 14.4408 17.8169 14.5581C17.9342 14.6753 18 14.8342 18 15C18 15.1658 17.9342 15.3247 17.8169 15.4419C17.6997 15.5592 17.5408 15.625 17.375 15.625ZM37.375 2.5C37.2092 2.5 37.0503 2.43415 36.9331 2.31694C36.8158 2.19973 36.75 2.04076 36.75 1.875V1.25C36.75 1.08424 36.8158 0.925268 36.9331 0.808058C37.0503 0.690848 37.2092 0.625 37.375 0.625C37.5408 0.625 37.6997 0.690848 37.8169 0.808058C37.9342 0.925268 38 1.08424 38 1.25V1.875C38 2.04076 37.9342 2.19973 37.8169 2.31694C37.6997 2.43415 37.5408 2.5 37.375 2.5ZM37.375 5.625C37.2092 5.625 37.0503 5.55915 36.9331 5.44194C36.8158 5.32473 36.75 5.16576 36.75 5V4.375C36.75 4.20924 36.8158 4.05027 36.9331 3.93306C37.0503 3.81585 37.2092 3.75 37.375 3.75C37.5408 3.75 37.6997 3.81585 37.8169 3.93306C37.9342 4.05027 38 4.20924 38 4.375V5C38 5.16576 37.9342 5.32473 37.8169 5.44194C37.6997 5.55915 37.5408 5.625 37.375 5.625ZM36.125 3.75H35.5C35.3342 3.75 35.1753 3.68415 35.0581 3.56694C34.9408 3.44973 34.875 3.29076 34.875 3.125C34.875 2.95924 34.9408 2.80027 35.0581 2.68306C35.1753 2.56585 35.3342 2.5 35.5 2.5H36.125C36.2908 2.5 36.4497 2.56585 36.5669 2.68306C36.6842 2.80027 36.75 2.95924 36.75 3.125C36.75 3.29076 36.6842 3.44973 36.5669 3.56694C36.4497 3.68415 36.2908 3.75 36.125 3.75ZM39.25 3.75H38.625C38.4592 3.75 38.3003 3.68415 38.1831 3.56694C38.0658 3.44973 38 3.29076 38 3.125C38 2.95924 38.0658 2.80027 38.1831 2.68306C38.3003 2.56585 38.4592 2.5 38.625 2.5H39.25C39.4158 2.5 39.5747 2.56585 39.6919 2.68306C39.8092 2.80027 39.875 2.95924 39.875 3.125C39.875 3.29076 39.8092 3.44973 39.6919 3.56694C39.5747 3.68415 39.4158 3.75 39.25 3.75ZM3.625 33.75C3.45924 33.75 3.30027 33.6842 3.18306 33.5669C3.06585 33.4497 3 33.2908 3 33.125V32.5C3 32.3342 3.06585 32.1753 3.18306 32.0581C3.30027 31.9408 3.45924 31.875 3.625 31.875C3.79076 31.875 3.94973 31.9408 4.06694 32.0581C4.18415 32.1753 4.25 32.3342 4.25 32.5V33.125C4.25 33.2908 4.18415 33.4497 4.06694 33.5669C3.94973 33.6842 3.79076 33.75 3.625 33.75ZM3.625 36.875C3.45924 36.875 3.30027 36.8092 3.18306 36.6919C3.06585 36.5747 3 36.4158 3 36.25V35.625C3 35.4592 3.06585 35.3003 3.18306 35.1831C3.30027 35.0658 3.45924 35 3.625 35C3.79076 35 3.94973 35.0658 4.06694 35.1831C4.18415 35.3003 4.25 35.4592 4.25 35.625V36.25C4.25 36.4158 4.18415 36.5747 4.06694 36.6919C3.94973 36.8092 3.79076 36.875 3.625 36.875ZM2.375 35H1.75C1.58424 35 1.42527 34.9342 1.30806 34.8169C1.19085 34.6997 1.125 34.5408 1.125 34.375C1.125 34.2092 1.19085 34.0503 1.30806 33.9331C1.42527 33.8158 1.58424 33.75 1.75 33.75H2.375C2.54076 33.75 2.69973 33.8158 2.81694 33.9331C2.93415 34.0503 3 34.2092 3 34.375C3 34.5408 2.93415 34.6997 2.81694 34.8169C2.69973 34.9342 2.54076 35 2.375 35ZM5.5 35H4.875C4.70924 35 4.55027 34.9342 4.43306 34.8169C4.31585 34.6997 4.25 34.5408 4.25 34.375C4.25 34.2092 4.31585 34.0503 4.43306 33.9331C4.55027 33.8158 4.70924 33.75 4.875 33.75H5.5C5.66576 33.75 5.82473 33.8158 5.94194 33.9331C6.05915 34.0503 6.125 34.2092 6.125 34.375C6.125 34.5408 6.05915 34.6997 5.94194 34.8169C5.82473 34.9342 5.66576 35 5.5 35Z" fill="#FFE352"/>
<path d="M21.125 13.75H28.625V15H21.125V13.75Z" fill="#EBC4A6"/>
<rect x="1.20711" y="4.82843" width="3" height="49.9822" rx="1.5" transform="rotate(-45 1.20711 4.82843)" fill="#EBBE28" stroke="#F7DFCE"/>
</g>
<defs>
<clipPath id="clip0_23_5145">
<rect width="40" height="40" fill="white" transform="translate(0.5)"/>
</clipPath>
</defs>
</svg>
