<svg width="41" height="40" viewBox="0 0 41 40" fill="none" xmlns="http://www.w3.org/2000/svg">
<path d="M36.4676 19.8213H36.4951C37.7675 18.4701 38.4945 16.6955 38.5357 14.84C38.4739 7.69375 26.282 4.47125 24.2501 1.25C22.2182 4.47188 10.0264 7.69375 9.96448 14.84C10.0057 16.6955 10.7327 18.4701 12.0051 19.8213H12.0326C11.1496 20.6422 10.4464 21.6374 9.96747 22.744C9.48855 23.8505 9.24428 25.0443 9.2501 26.25V37.5H39.2501V26.25C39.2559 25.0443 39.0117 23.8505 38.5327 22.744C38.0538 21.6374 37.3506 20.6422 36.4676 19.8213Z" fill="#F7DFCE"/>
<path d="M39.25 38.125H9.25002C9.08426 38.125 8.92529 38.0592 8.80808 37.9419C8.69087 37.8247 8.62502 37.6658 8.62502 37.5V26.25C8.62013 23.853 9.53017 21.5445 11.1694 19.7956C10.0142 18.3996 9.36883 16.6518 9.33939 14.84C9.38314 9.82688 14.7375 6.735 19.04 4.25188C21.125 3.04813 23.0938 1.91125 23.7213 0.916879C23.7812 0.832516 23.8605 0.763728 23.9525 0.716262C24.0445 0.668795 24.1465 0.644028 24.25 0.644028C24.3535 0.644028 24.4555 0.668795 24.5475 0.716262C24.6395 0.763728 24.7188 0.832516 24.7788 0.916879C25.4063 1.91063 27.375 3.04813 29.46 4.25188C33.7625 6.735 39.1175 9.82688 39.16 14.8344C39.1317 16.648 38.4865 18.3978 37.3306 19.7956C38.9699 21.5445 39.8799 23.853 39.875 26.25V37.5C39.875 37.6658 39.8092 37.8247 39.692 37.9419C39.5748 38.0592 39.4158 38.125 39.25 38.125ZM9.87502 36.875H38.625V26.25C38.6288 25.131 38.4014 24.0233 37.9573 22.9963C37.5131 21.9692 36.8617 21.0449 36.0438 20.2813C35.9745 20.2174 35.9206 20.1387 35.886 20.0511C35.8515 19.9634 35.8372 19.8691 35.8442 19.7751C35.8512 19.6812 35.8794 19.5901 35.9266 19.5085C35.9739 19.427 36.0389 19.3572 36.1169 19.3044C37.2334 18.0811 37.8704 16.4957 37.9106 14.84C37.8738 10.5525 32.8619 7.65875 28.8356 5.33375C26.9256 4.23188 25.2313 3.25375 24.25 2.24188C23.2688 3.25438 21.5738 4.23188 19.665 5.33375C15.6381 7.65875 10.6263 10.5525 10.59 14.8456C10.6329 16.5181 11.2832 18.1177 12.4194 19.3456C12.4999 19.4114 12.5623 19.4965 12.6006 19.5931C12.6489 19.7088 12.661 19.8364 12.6354 19.9592C12.6097 20.0819 12.5475 20.194 12.4569 20.2806C11.6388 21.0443 10.9872 21.9687 10.5429 22.9958C10.0987 24.023 9.87127 25.1309 9.87502 26.25V36.875Z" fill="#EBBE28"/>
<path d="M9.22375 5.92062C8.88469 6.25813 8.47599 6.51749 8.02623 6.68056C7.57647 6.84364 7.09652 6.90648 6.61994 6.86471C6.14335 6.82294 5.68165 6.67756 5.26712 6.43874C4.85259 6.19991 4.49523 5.87341 4.22005 5.48207C3.94487 5.09072 3.7585 4.64399 3.67398 4.1731C3.58947 3.70222 3.60884 3.21856 3.73075 2.75594C3.85266 2.29333 4.07416 1.86293 4.37977 1.49485C4.68537 1.12677 5.06769 0.829902 5.5 0.625C4.63471 0.625 3.78885 0.881589 3.06938 1.36232C2.34992 1.84305 1.78916 2.52633 1.45803 3.32576C1.1269 4.12519 1.04026 5.00485 1.20907 5.85352C1.37788 6.70219 1.79456 7.48174 2.40641 8.09359C3.01826 8.70545 3.79782 9.12212 4.64648 9.29094C5.49515 9.45975 6.37482 9.37311 7.17424 9.04197C7.97367 8.71084 8.65695 8.15008 9.13768 7.43062C9.61841 6.71115 9.875 5.86529 9.875 5C9.71213 5.34184 9.49186 5.65323 9.22375 5.92062Z" fill="#FFE352"/>
<path d="M6.125 21.875C6.47018 21.875 6.75 21.5952 6.75 21.25C6.75 20.9048 6.47018 20.625 6.125 20.625C5.77982 20.625 5.5 20.9048 5.5 21.25C5.5 21.5952 5.77982 21.875 6.125 21.875Z" fill="#FFE352"/>
<path d="M31.75 11.25C32.0952 11.25 32.375 10.9702 32.375 10.625C32.375 10.2798 32.0952 10 31.75 10C31.4048 10 31.125 10.2798 31.125 10.625C31.125 10.9702 31.4048 11.25 31.75 11.25Z" fill="#FFE352"/>
<path d="M34.875 25.625C35.2202 25.625 35.5 25.3452 35.5 25C35.5 24.6548 35.2202 24.375 34.875 24.375C34.5298 24.375 34.25 24.6548 34.25 25C34.25 25.3452 34.5298 25.625 34.875 25.625Z" fill="#FFE352"/>
<path d="M15.5 14.375C15.3342 14.375 15.1753 14.3092 15.0581 14.1919C14.9408 14.0747 14.875 13.9158 14.875 13.75V13.125C14.875 12.9592 14.9408 12.8003 15.0581 12.6831C15.1753 12.5658 15.3342 12.5 15.5 12.5C15.6658 12.5 15.8247 12.5658 15.9419 12.6831C16.0592 12.8003 16.125 12.9592 16.125 13.125V13.75C16.125 13.9158 16.0592 14.0747 15.9419 14.1919C15.8247 14.3092 15.6658 14.375 15.5 14.375ZM15.5 17.5C15.3342 17.5 15.1753 17.4342 15.0581 17.3169C14.9408 17.1997 14.875 17.0408 14.875 16.875V16.25C14.875 16.0842 14.9408 15.9253 15.0581 15.8081C15.1753 15.6908 15.3342 15.625 15.5 15.625C15.6658 15.625 15.8247 15.6908 15.9419 15.8081C16.0592 15.9253 16.125 16.0842 16.125 16.25V16.875C16.125 17.0408 16.0592 17.1997 15.9419 17.3169C15.8247 17.4342 15.6658 17.5 15.5 17.5ZM14.25 15.625H13.625C13.4592 15.625 13.3003 15.5592 13.1831 15.4419C13.0658 15.3247 13 15.1658 13 15C13 14.8342 13.0658 14.6753 13.1831 14.5581C13.3003 14.4408 13.4592 14.375 13.625 14.375H14.25C14.4158 14.375 14.5747 14.4408 14.6919 14.5581C14.8092 14.6753 14.875 14.8342 14.875 15C14.875 15.1658 14.8092 15.3247 14.6919 15.4419C14.5747 15.5592 14.4158 15.625 14.25 15.625ZM17.375 15.625H16.75C16.5842 15.625 16.4253 15.5592 16.3081 15.4419C16.1908 15.3247 16.125 15.1658 16.125 15C16.125 14.8342 16.1908 14.6753 16.3081 14.5581C16.4253 14.4408 16.5842 14.375 16.75 14.375H17.375C17.5408 14.375 17.6997 14.4408 17.8169 14.5581C17.9342 14.6753 18 14.8342 18 15C18 15.1658 17.9342 15.3247 17.8169 15.4419C17.6997 15.5592 17.5408 15.625 17.375 15.625ZM37.375 2.5C37.2092 2.5 37.0503 2.43415 36.9331 2.31694C36.8158 2.19973 36.75 2.04076 36.75 1.875V1.25C36.75 1.08424 36.8158 0.925268 36.9331 0.808058C37.0503 0.690848 37.2092 0.625 37.375 0.625C37.5408 0.625 37.6997 0.690848 37.8169 0.808058C37.9342 0.925268 38 1.08424 38 1.25V1.875C38 2.04076 37.9342 2.19973 37.8169 2.31694C37.6997 2.43415 37.5408 2.5 37.375 2.5ZM37.375 5.625C37.2092 5.625 37.0503 5.55915 36.9331 5.44194C36.8158 5.32473 36.75 5.16576 36.75 5V4.375C36.75 4.20924 36.8158 4.05027 36.9331 3.93306C37.0503 3.81585 37.2092 3.75 37.375 3.75C37.5408 3.75 37.6997 3.81585 37.8169 3.93306C37.9342 4.05027 38 4.20924 38 4.375V5C38 5.16576 37.9342 5.32473 37.8169 5.44194C37.6997 5.55915 37.5408 5.625 37.375 5.625ZM36.125 3.75H35.5C35.3342 3.75 35.1753 3.68415 35.0581 3.56694C34.9408 3.44973 34.875 3.29076 34.875 3.125C34.875 2.95924 34.9408 2.80027 35.0581 2.68306C35.1753 2.56585 35.3342 2.5 35.5 2.5H36.125C36.2908 2.5 36.4497 2.56585 36.5669 2.68306C36.6842 2.80027 36.75 2.95924 36.75 3.125C36.75 3.29076 36.6842 3.44973 36.5669 3.56694C36.4497 3.68415 36.2908 3.75 36.125 3.75ZM39.25 3.75H38.625C38.4592 3.75 38.3003 3.68415 38.1831 3.56694C38.0658 3.44973 38 3.29076 38 3.125C38 2.95924 38.0658 2.80027 38.1831 2.68306C38.3003 2.56585 38.4592 2.5 38.625 2.5H39.25C39.4158 2.5 39.5747 2.56585 39.6919 2.68306C39.8092 2.80027 39.875 2.95924 39.875 3.125C39.875 3.29076 39.8092 3.44973 39.6919 3.56694C39.5747 3.68415 39.4158 3.75 39.25 3.75ZM3.625 33.75C3.45924 33.75 3.30027 33.6842 3.18306 33.5669C3.06585 33.4497 3 33.2908 3 33.125V32.5C3 32.3342 3.06585 32.1753 3.18306 32.0581C3.30027 31.9408 3.45924 31.875 3.625 31.875C3.79076 31.875 3.94973 31.9408 4.06694 32.0581C4.18415 32.1753 4.25 32.3342 4.25 32.5V33.125C4.25 33.2908 4.18415 33.4497 4.06694 33.5669C3.94973 33.6842 3.79076 33.75 3.625 33.75ZM3.625 36.875C3.45924 36.875 3.30027 36.8092 3.18306 36.6919C3.06585 36.5747 3 36.4158 3 36.25V35.625C3 35.4592 3.06585 35.3003 3.18306 35.1831C3.30027 35.0658 3.45924 35 3.625 35C3.79076 35 3.94973 35.0658 4.06694 35.1831C4.18415 35.3003 4.25 35.4592 4.25 35.625V36.25C4.25 36.4158 4.18415 36.5747 4.06694 36.6919C3.94973 36.8092 3.79076 36.875 3.625 36.875ZM2.375 35H1.75C1.58424 35 1.42527 34.9342 1.30806 34.8169C1.19085 34.6997 1.125 34.5408 1.125 34.375C1.125 34.2092 1.19085 34.0503 1.30806 33.9331C1.42527 33.8158 1.58424 33.75 1.75 33.75H2.375C2.54076 33.75 2.69973 33.8158 2.81694 33.9331C2.93415 34.0503 3 34.2092 3 34.375C3 34.5408 2.93415 34.6997 2.81694 34.8169C2.69973 34.9342 2.54076 35 2.375 35ZM5.5 35H4.875C4.70924 35 4.55027 34.9342 4.43306 34.8169C4.31585 34.6997 4.25 34.5408 4.25 34.375C4.25 34.2092 4.31585 34.0503 4.43306 33.9331C4.55027 33.8158 4.70924 33.75 4.875 33.75H5.5C5.66576 33.75 5.82473 33.8158 5.94194 33.9331C6.05915 34.0503 6.125 34.2092 6.125 34.375C6.125 34.5408 6.05915 34.6997 5.94194 34.8169C5.82473 34.9342 5.66576 35 5.5 35Z" fill="#FFE352"/>
<mask id="mask0_23_4831" style="mask-type:luminance" maskUnits="userSpaceOnUse" x="13" y="15" width="22" height="22">
<path d="M13 15.0001H34.9999V36.9999H13V15.0001Z" fill="white"/>
</mask>
<g mask="url(#mask0_23_4831)">
<path d="M27.5859 19.8559H28.5025C28.66 19.8559 28.7856 19.9906 28.7709 20.1474C28.7624 20.2383 28.7582 20.3297 28.7581 20.421C28.7581 21.2641 29.4417 21.9477 30.2848 21.9477H32.4367C33.6739 21.9477 34.6769 20.9447 34.6769 19.7075C34.6769 18.4703 33.6739 17.4672 32.4367 17.4672H27.5859V19.8559Z" fill="#CEB29F"/>
<path d="M32.9579 17.5282C33.238 17.9112 33.3886 18.3736 33.3878 18.8481C33.3878 20.0854 32.3848 21.0883 31.1476 21.0883H28.9957C28.967 21.0883 28.9385 21.0875 28.9102 21.0859C29.1573 21.596 29.68 21.9477 30.2848 21.9477H32.4366C33.6739 21.9477 34.6769 20.9447 34.6769 19.7074C34.6769 18.6497 33.9437 17.7631 32.9579 17.5282Z" fill="#CEB29F"/>
<path d="M32.4375 17.4672C33.6747 17.4672 34.6777 18.4702 34.6777 19.7074C34.6777 20.9447 33.6747 21.9476 32.4375 21.9476V17.4672Z" fill="#858494"/>
<path d="M34.6776 19.6849C34.664 18.6126 33.9173 17.7563 32.9588 17.5282C33.6912 18.5311 33.4685 19.9539 32.4375 20.6805V21.9477C33.6845 21.9477 34.6898 20.9301 34.6776 19.6849Z" fill="#858494"/>
<path d="M18.0508 25.475V28.3977C18.0508 28.4614 18.076 28.5224 18.121 28.5674C18.166 28.6123 18.227 28.6376 18.2906 28.6376H18.5241C18.8081 28.6376 19.0473 28.4252 19.0809 28.1432L19.2553 26.6795L18.0508 25.475Z" fill="#CEB29F"/>
<path d="M18.7864 24.5709V23.5407C18.7864 22.8252 19.3665 22.2451 20.0821 22.2451H21.1122L18.7864 24.5709ZM25.5083 16.0533H18.2273C15.5183 16.0533 13.3223 18.2493 13.3223 20.9583V30.9776C13.3223 31.2169 13.5162 31.4109 13.7555 31.4109H18.3532C18.5924 31.4109 18.7864 31.2169 18.7864 30.9776V28.5716C18.7055 28.6149 18.6152 28.6376 18.5234 28.6377H18.29C18.2264 28.6377 18.1654 28.6124 18.1204 28.5674C18.0754 28.5224 18.0501 28.4614 18.0501 28.3978V25.475L19.2547 26.6796L19.5407 26.9655L24.2611 22.2451H24.3655C25.7483 22.2451 26.9481 21.4638 27.5493 20.3189C27.5741 20.271 27.587 20.2177 27.5867 20.1636V17.3685C27.5867 17.2586 27.5543 17.1504 27.4895 17.0616C27.0437 16.4506 26.3226 16.0533 25.5083 16.0533Z" fill="#858494"/>
<path d="M27.483 17.0522C27.1596 16.6132 26.6935 16.2859 26.1531 16.1389C26.1704 16.161 26.1872 16.1835 26.2038 16.2062C26.2666 16.2926 26.298 16.398 26.298 16.5049C26.298 17.5007 25.9024 18.4557 25.1982 19.1599L18.4668 25.8913L19.2551 26.6795L19.541 26.9655L24.2614 22.2451H24.3658C25.7487 22.2451 26.9485 21.4638 27.5497 20.3189C27.5745 20.2709 27.5873 20.2176 27.587 20.1636V17.3684C27.587 17.2546 27.5505 17.1438 27.483 17.0522Z" fill="#858494"/>
<path d="M20.0821 22.2451H21.1147L21.9748 21.3858H18.793C18.0775 21.3858 17.4973 21.9658 17.4973 22.6814V27.4753C17.4973 29.1742 16.1201 30.5515 14.4211 30.5515H13.3223V30.9776C13.3223 31.2169 13.5162 31.4108 13.7555 31.4108H18.3532C18.5924 31.4108 18.7864 31.2169 18.7864 30.9776V28.5716C18.7055 28.6149 18.6152 28.6376 18.5234 28.6376H18.29C18.2264 28.6376 18.1654 28.6123 18.1204 28.5673C18.0754 28.5224 18.0501 28.4614 18.0501 28.3977V25.4751L17.9662 25.3911L18.7864 24.5716V23.5408C18.7864 22.8252 19.3665 22.2451 20.0821 22.2451Z" fill="#858494"/>
<path d="M18.4709 33.9835L17.6693 33.896C17.2668 33.852 16.9618 33.512 16.9618 33.1071V31.4109H14.9492V34.4164C14.9492 34.7773 15.2418 35.0699 15.6028 35.0699H18.7099C18.7925 35.0699 18.8717 35.0371 18.9301 34.9788C18.9884 34.9204 19.0212 34.8412 19.0213 34.7586V34.5972C19.0213 34.2822 18.7841 34.0177 18.4709 33.9835Z" fill="#CEB29F"/>
<path d="M34.5856 35.9467H13.4142C13.4021 35.9467 13.3902 35.9443 13.379 35.9397C13.3679 35.9351 13.3577 35.9283 13.3492 35.9198C13.3406 35.9112 13.3339 35.9011 13.3293 35.8899C13.3246 35.8788 13.3223 35.8668 13.3223 35.8547V35.1619C13.3223 35.1375 13.332 35.1141 13.3492 35.0969C13.3664 35.0796 13.3898 35.0699 13.4142 35.0699H34.5856C34.5977 35.0699 34.6097 35.0723 34.6208 35.0769C34.632 35.0815 34.6421 35.0883 34.6507 35.0969C34.6592 35.1054 34.666 35.1155 34.6706 35.1267C34.6752 35.1379 34.6776 35.1498 34.6776 35.1619V35.8547C34.6776 35.8668 34.6753 35.8788 34.6706 35.8899C34.666 35.9011 34.6592 35.9112 34.6507 35.9198C34.6421 35.9283 34.632 35.9351 34.6208 35.9397C34.6097 35.9443 34.5977 35.9467 34.5856 35.9467Z" fill="#EBBE28"/>
</g>
</svg>
