<svg width="41" height="40" viewBox="0 0 41 40" fill="none" xmlns="http://www.w3.org/2000/svg">
<path d="M36.4676 19.8213H36.4951C37.7675 18.4701 38.4945 16.6955 38.5357 14.84C38.4739 7.69375 26.282 4.47125 24.2501 1.25C22.2182 4.47188 10.0264 7.69375 9.96448 14.84C10.0057 16.6955 10.7327 18.4701 12.0051 19.8213H12.0326C11.1496 20.6422 10.4464 21.6374 9.96747 22.744C9.48855 23.8505 9.24428 25.0443 9.2501 26.25V37.5H39.2501V26.25C39.2559 25.0443 39.0117 23.8505 38.5327 22.744C38.0538 21.6374 37.3506 20.6422 36.4676 19.8213Z" fill="#F7DFCE"/>
<path d="M39.25 38.125H9.25002C9.08426 38.125 8.92529 38.0592 8.80808 37.9419C8.69087 37.8247 8.62502 37.6658 8.62502 37.5V26.25C8.62013 23.853 9.53017 21.5445 11.1694 19.7956C10.0142 18.3996 9.36883 16.6518 9.33939 14.84C9.38314 9.82688 14.7375 6.735 19.04 4.25188C21.125 3.04813 23.0938 1.91125 23.7213 0.916879C23.7812 0.832516 23.8605 0.763728 23.9525 0.716262C24.0445 0.668795 24.1465 0.644028 24.25 0.644028C24.3535 0.644028 24.4555 0.668795 24.5475 0.716262C24.6395 0.763728 24.7188 0.832516 24.7788 0.916879C25.4063 1.91063 27.375 3.04813 29.46 4.25188C33.7625 6.735 39.1175 9.82688 39.16 14.8344C39.1317 16.648 38.4865 18.3978 37.3306 19.7956C38.9699 21.5445 39.8799 23.853 39.875 26.25V37.5C39.875 37.6658 39.8092 37.8247 39.692 37.9419C39.5748 38.0592 39.4158 38.125 39.25 38.125ZM9.87502 36.875H38.625V26.25C38.6288 25.131 38.4014 24.0233 37.9573 22.9963C37.5131 21.9692 36.8617 21.0449 36.0438 20.2813C35.9745 20.2174 35.9206 20.1387 35.886 20.0511C35.8515 19.9634 35.8372 19.8691 35.8442 19.7751C35.8512 19.6812 35.8794 19.5901 35.9266 19.5085C35.9739 19.427 36.0389 19.3572 36.1169 19.3044C37.2334 18.0811 37.8704 16.4957 37.9106 14.84C37.8738 10.5525 32.8619 7.65875 28.8356 5.33375C26.9256 4.23188 25.2313 3.25375 24.25 2.24188C23.2688 3.25438 21.5738 4.23188 19.665 5.33375C15.6381 7.65875 10.6263 10.5525 10.59 14.8456C10.6329 16.5181 11.2832 18.1177 12.4194 19.3456C12.4999 19.4114 12.5623 19.4965 12.6006 19.5931C12.6489 19.7088 12.661 19.8364 12.6354 19.9592C12.6097 20.0819 12.5475 20.194 12.4569 20.2806C11.6388 21.0443 10.9872 21.9687 10.5429 22.9958C10.0987 24.023 9.87127 25.1309 9.87502 26.25V36.875Z" fill="#EBBE28"/>
<path d="M9.22375 5.92062C8.88469 6.25813 8.47599 6.51749 8.02623 6.68056C7.57647 6.84364 7.09652 6.90648 6.61994 6.86471C6.14335 6.82294 5.68165 6.67756 5.26712 6.43874C4.85259 6.19991 4.49523 5.87341 4.22005 5.48207C3.94487 5.09072 3.7585 4.64399 3.67398 4.1731C3.58947 3.70222 3.60884 3.21856 3.73075 2.75594C3.85266 2.29333 4.07416 1.86293 4.37977 1.49485C4.68537 1.12677 5.06769 0.829902 5.5 0.625C4.63471 0.625 3.78885 0.881589 3.06938 1.36232C2.34992 1.84305 1.78916 2.52633 1.45803 3.32576C1.1269 4.12519 1.04026 5.00485 1.20907 5.85352C1.37788 6.70219 1.79456 7.48174 2.40641 8.09359C3.01826 8.70545 3.79782 9.12212 4.64648 9.29094C5.49515 9.45975 6.37482 9.37311 7.17424 9.04197C7.97367 8.71084 8.65695 8.15008 9.13768 7.43062C9.61841 6.71115 9.875 5.86529 9.875 5C9.71213 5.34184 9.49186 5.65323 9.22375 5.92062Z" fill="#FFE352"/>
<path d="M6.125 21.875C6.47018 21.875 6.75 21.5952 6.75 21.25C6.75 20.9048 6.47018 20.625 6.125 20.625C5.77982 20.625 5.5 20.9048 5.5 21.25C5.5 21.5952 5.77982 21.875 6.125 21.875Z" fill="#FFE352"/>
<path d="M31.75 11.25C32.0952 11.25 32.375 10.9702 32.375 10.625C32.375 10.2798 32.0952 10 31.75 10C31.4048 10 31.125 10.2798 31.125 10.625C31.125 10.9702 31.4048 11.25 31.75 11.25Z" fill="#FFE352"/>
<path d="M34.875 25.625C35.2202 25.625 35.5 25.3452 35.5 25C35.5 24.6548 35.2202 24.375 34.875 24.375C34.5298 24.375 34.25 24.6548 34.25 25C34.25 25.3452 34.5298 25.625 34.875 25.625Z" fill="#FFE352"/>
<path d="M15.5 14.375C15.3342 14.375 15.1753 14.3092 15.0581 14.1919C14.9408 14.0747 14.875 13.9158 14.875 13.75V13.125C14.875 12.9592 14.9408 12.8003 15.0581 12.6831C15.1753 12.5658 15.3342 12.5 15.5 12.5C15.6658 12.5 15.8247 12.5658 15.9419 12.6831C16.0592 12.8003 16.125 12.9592 16.125 13.125V13.75C16.125 13.9158 16.0592 14.0747 15.9419 14.1919C15.8247 14.3092 15.6658 14.375 15.5 14.375ZM15.5 17.5C15.3342 17.5 15.1753 17.4342 15.0581 17.3169C14.9408 17.1997 14.875 17.0408 14.875 16.875V16.25C14.875 16.0842 14.9408 15.9253 15.0581 15.8081C15.1753 15.6908 15.3342 15.625 15.5 15.625C15.6658 15.625 15.8247 15.6908 15.9419 15.8081C16.0592 15.9253 16.125 16.0842 16.125 16.25V16.875C16.125 17.0408 16.0592 17.1997 15.9419 17.3169C15.8247 17.4342 15.6658 17.5 15.5 17.5ZM14.25 15.625H13.625C13.4592 15.625 13.3003 15.5592 13.1831 15.4419C13.0658 15.3247 13 15.1658 13 15C13 14.8342 13.0658 14.6753 13.1831 14.5581C13.3003 14.4408 13.4592 14.375 13.625 14.375H14.25C14.4158 14.375 14.5747 14.4408 14.6919 14.5581C14.8092 14.6753 14.875 14.8342 14.875 15C14.875 15.1658 14.8092 15.3247 14.6919 15.4419C14.5747 15.5592 14.4158 15.625 14.25 15.625ZM17.375 15.625H16.75C16.5842 15.625 16.4253 15.5592 16.3081 15.4419C16.1908 15.3247 16.125 15.1658 16.125 15C16.125 14.8342 16.1908 14.6753 16.3081 14.5581C16.4253 14.4408 16.5842 14.375 16.75 14.375H17.375C17.5408 14.375 17.6997 14.4408 17.8169 14.5581C17.9342 14.6753 18 14.8342 18 15C18 15.1658 17.9342 15.3247 17.8169 15.4419C17.6997 15.5592 17.5408 15.625 17.375 15.625ZM37.375 2.5C37.2092 2.5 37.0503 2.43415 36.9331 2.31694C36.8158 2.19973 36.75 2.04076 36.75 1.875V1.25C36.75 1.08424 36.8158 0.925268 36.9331 0.808058C37.0503 0.690848 37.2092 0.625 37.375 0.625C37.5408 0.625 37.6997 0.690848 37.8169 0.808058C37.9342 0.925268 38 1.08424 38 1.25V1.875C38 2.04076 37.9342 2.19973 37.8169 2.31694C37.6997 2.43415 37.5408 2.5 37.375 2.5ZM37.375 5.625C37.2092 5.625 37.0503 5.55915 36.9331 5.44194C36.8158 5.32473 36.75 5.16576 36.75 5V4.375C36.75 4.20924 36.8158 4.05027 36.9331 3.93306C37.0503 3.81585 37.2092 3.75 37.375 3.75C37.5408 3.75 37.6997 3.81585 37.8169 3.93306C37.9342 4.05027 38 4.20924 38 4.375V5C38 5.16576 37.9342 5.32473 37.8169 5.44194C37.6997 5.55915 37.5408 5.625 37.375 5.625ZM36.125 3.75H35.5C35.3342 3.75 35.1753 3.68415 35.0581 3.56694C34.9408 3.44973 34.875 3.29076 34.875 3.125C34.875 2.95924 34.9408 2.80027 35.0581 2.68306C35.1753 2.56585 35.3342 2.5 35.5 2.5H36.125C36.2908 2.5 36.4497 2.56585 36.5669 2.68306C36.6842 2.80027 36.75 2.95924 36.75 3.125C36.75 3.29076 36.6842 3.44973 36.5669 3.56694C36.4497 3.68415 36.2908 3.75 36.125 3.75ZM39.25 3.75H38.625C38.4592 3.75 38.3003 3.68415 38.1831 3.56694C38.0658 3.44973 38 3.29076 38 3.125C38 2.95924 38.0658 2.80027 38.1831 2.68306C38.3003 2.56585 38.4592 2.5 38.625 2.5H39.25C39.4158 2.5 39.5747 2.56585 39.6919 2.68306C39.8092 2.80027 39.875 2.95924 39.875 3.125C39.875 3.29076 39.8092 3.44973 39.6919 3.56694C39.5747 3.68415 39.4158 3.75 39.25 3.75ZM3.625 33.75C3.45924 33.75 3.30027 33.6842 3.18306 33.5669C3.06585 33.4497 3 33.2908 3 33.125V32.5C3 32.3342 3.06585 32.1753 3.18306 32.0581C3.30027 31.9408 3.45924 31.875 3.625 31.875C3.79076 31.875 3.94973 31.9408 4.06694 32.0581C4.18415 32.1753 4.25 32.3342 4.25 32.5V33.125C4.25 33.2908 4.18415 33.4497 4.06694 33.5669C3.94973 33.6842 3.79076 33.75 3.625 33.75ZM3.625 36.875C3.45924 36.875 3.30027 36.8092 3.18306 36.6919C3.06585 36.5747 3 36.4158 3 36.25V35.625C3 35.4592 3.06585 35.3003 3.18306 35.1831C3.30027 35.0658 3.45924 35 3.625 35C3.79076 35 3.94973 35.0658 4.06694 35.1831C4.18415 35.3003 4.25 35.4592 4.25 35.625V36.25C4.25 36.4158 4.18415 36.5747 4.06694 36.6919C3.94973 36.8092 3.79076 36.875 3.625 36.875ZM2.375 35H1.75C1.58424 35 1.42527 34.9342 1.30806 34.8169C1.19085 34.6997 1.125 34.5408 1.125 34.375C1.125 34.2092 1.19085 34.0503 1.30806 33.9331C1.42527 33.8158 1.58424 33.75 1.75 33.75H2.375C2.54076 33.75 2.69973 33.8158 2.81694 33.9331C2.93415 34.0503 3 34.2092 3 34.375C3 34.5408 2.93415 34.6997 2.81694 34.8169C2.69973 34.9342 2.54076 35 2.375 35ZM5.5 35H4.875C4.70924 35 4.55027 34.9342 4.43306 34.8169C4.31585 34.6997 4.25 34.5408 4.25 34.375C4.25 34.2092 4.31585 34.0503 4.43306 33.9331C4.55027 33.8158 4.70924 33.75 4.875 33.75H5.5C5.66576 33.75 5.82473 33.8158 5.94194 33.9331C6.05915 34.0503 6.125 34.2092 6.125 34.375C6.125 34.5408 6.05915 34.6997 5.94194 34.8169C5.82473 34.9342 5.66576 35 5.5 35Z" fill="#FFE352"/>
<path d="M33.3746 30.0327H32.5989C32.0229 30.0343 31.4675 29.8228 31.0533 29.4243L29.9756 30.5022C29.8198 30.6578 29.6464 30.7948 29.459 30.9104L29.8024 31.2538C29.9103 31.3617 29.9354 31.5282 29.862 31.6622C29.6185 32.1071 29.4799 32.6175 29.4799 33.1605C29.4799 33.2439 29.486 33.3258 29.4984 33.4057C29.5865 33.4869 29.5721 33.8043 29.6374 33.9055C29.7543 34.0865 29.8751 34.2489 29.9462 34.296C30.2392 34.5926 30.646 34.7764 31.0958 34.7764H33.3746L33.6989 32.6277L33.3746 30.0327Z" fill="#CEB29F"/>
<path d="M33.3743 33.2663C32.9681 33.5923 32.4527 33.7877 31.8913 33.7877H29.7924C29.8329 33.8652 29.7663 33.9876 29.7924 34.0726C29.8183 34.1576 29.9366 34.2051 29.9459 34.296C30.2389 34.5926 30.6457 34.7766 31.0955 34.7766H33.3743M33.3743 34.7764L33.5047 34.0214L33.3743 33.2663" fill="#CEB29F"/>
<path d="M33.374 30.0327C34.6841 30.0327 35.746 31.0946 35.746 32.4045C35.746 33.7145 34.6841 34.7764 33.374 34.7764V30.0327Z" fill="#858494"/>
<path d="M35.5515 33.3463C35.8259 32.7129 35.8087 31.9835 35.5092 31.3703C35.1885 30.7096 34.5759 30.2289 33.8516 30.0808C34.5454 31.0975 34.3457 32.4875 33.374 33.2671V34.7764C34.321 34.7764 35.1738 34.2158 35.5515 33.3462V33.3463Z" fill="#858494"/>
<path d="M28.546 33.0346H27.5213L25.7793 34.7764H29.6196C29.6635 34.7765 29.7069 34.7678 29.7475 34.7511C29.788 34.7343 29.8249 34.7097 29.8559 34.6787C29.8869 34.6476 29.9115 34.6108 29.9283 34.5703C29.9451 34.5297 29.9537 34.4863 29.9537 34.4424C29.9537 33.6649 29.3234 33.0346 28.546 33.0346Z" fill="#CEB29F"/>
<path d="M23.3977 22H21.3112C18.9533 22 17.2903 24.3127 18.0409 26.5479L19.634 31.2926H16.1445V34.3536C16.1445 34.4091 16.1554 34.4641 16.1767 34.5154C16.1979 34.5668 16.2291 34.6134 16.2684 34.6527C16.3076 34.692 16.3543 34.7231 16.4056 34.7444C16.4569 34.7657 16.5119 34.7766 16.5675 34.7766H21.1868C22.2369 34.7766 23.0881 33.9252 23.0881 32.8753V32.0855L25.7793 34.7766L27.5289 33.0269C27.537 33.0188 27.5434 33.0092 27.5478 32.9986C27.5522 32.988 27.5545 32.9766 27.5545 32.9651C27.5545 32.9536 27.5522 32.9423 27.5478 32.9317C27.5434 32.9211 27.537 32.9114 27.5289 32.9033L25.4955 30.8699C25.3724 30.7469 25.3282 30.5754 25.362 30.417L26.7894 31.073C27.8663 31.568 29.1375 31.3403 29.9756 30.5022L31.2995 29.1783C31.4466 29.0309 31.5084 28.8196 31.4676 28.6155C30.7284 24.9121 27.4632 22 23.3977 22H23.3977Z" fill="#858494"/>
<path d="M16.1439 32.9629V31.2925H13.6244C13.039 31.2925 12.5645 31.7672 12.5645 32.3525V34.066C12.5645 34.4584 12.8827 34.7766 13.275 34.7766H14.6665C14.9602 34.7766 15.1984 34.5383 15.1984 34.2444C15.1984 33.985 14.9881 33.7748 14.7288 33.7748H14.6632C14.591 33.7748 14.5219 33.7461 14.4709 33.6951C14.4199 33.6442 14.3913 33.575 14.3913 33.5029V33.2348C14.3913 33.0848 14.5131 32.9629 14.6632 32.9629H16.1439Z" fill="#CEB29F"/>
<path d="M36.7053 35.7853H11.6058C11.5475 35.7853 11.5 35.738 11.5 35.6794V34.8823C11.5 34.8239 11.5473 34.7765 11.6058 34.7765H36.7053C36.7638 34.7765 36.8111 34.8239 36.8111 34.8823V35.6794C36.8111 35.738 36.7638 35.7853 36.7053 35.7853Z" fill="#EBBE28"/>
<path d="M32.4435 31.9586C32.2389 31.9586 32.0728 31.7925 32.0728 31.5878C32.0728 31.4745 31.9805 31.3822 31.8671 31.3822C31.7538 31.3822 31.6615 31.4745 31.6615 31.5878C31.6615 31.6861 31.6224 31.7805 31.5529 31.85C31.4833 31.9195 31.389 31.9586 31.2907 31.9586C31.1924 31.9586 31.098 31.9195 31.0285 31.85C30.959 31.7805 30.9199 31.6861 30.9199 31.5878C30.9199 31.0655 31.345 30.6406 31.8671 30.6406C32.3895 30.6406 32.8143 31.0655 32.8143 31.5878C32.8143 31.6861 32.7752 31.7805 32.7057 31.85C32.6362 31.9195 32.5419 31.9586 32.4435 31.9586Z" fill="#CEB29F"/>
<path d="M31.4683 28.6155C30.8987 25.762 28.8295 23.3784 26.0501 22.4345C27.0952 23.1486 27.9623 24.0954 28.5833 25.1913C29.3814 26.6002 29.1437 28.3683 27.9988 29.5135C27.8068 29.7054 27.5882 29.8687 27.3497 29.9982C27.1176 30.1242 26.8911 29.8251 27.0778 29.6384L27.4783 29.2379C27.6218 29.0944 27.6363 28.8586 27.4971 28.7109C27.4631 28.6747 27.4222 28.6458 27.3768 28.6257C27.3313 28.6057 27.2823 28.5949 27.2327 28.5942C27.1831 28.5934 27.1338 28.6026 27.0878 28.6213C27.0418 28.64 27 28.6677 26.9649 28.7028L25.1591 30.5085C24.8793 30.7882 24.8793 31.2418 25.1591 31.5214C25.4103 31.7727 25.4103 32.1801 25.1591 32.4313L24.2969 33.2934L25.7799 34.7764L27.5295 33.0269C27.5376 33.0188 27.5441 33.0092 27.5485 32.9986C27.5529 32.988 27.5551 32.9766 27.5551 32.9651C27.5551 32.9536 27.5529 32.9423 27.5485 32.9317C27.5441 32.9211 27.5376 32.9114 27.5295 32.9033L25.4961 30.8697C25.373 30.7467 25.329 30.5752 25.3628 30.417L26.7901 31.073C27.8671 31.568 29.1381 31.3401 29.9762 30.5022L31.3001 29.178C31.4473 29.0309 31.5091 28.8196 31.4683 28.6155Z" fill="#858494"/>
<path d="M25.4788 27.0896C25.6225 26.9459 25.637 26.7101 25.4978 26.5624C25.4637 26.5262 25.4228 26.4973 25.3774 26.4772C25.3319 26.4572 25.2829 26.4465 25.2333 26.4457C25.1836 26.445 25.1343 26.4542 25.0883 26.4728C25.0423 26.4915 25.0005 26.5192 24.9654 26.5543L22.2721 29.2475C21.6433 29.8765 21.4817 30.7982 21.7874 31.5778C21.816 31.6506 21.7246 31.7107 21.6692 31.6552C21.4631 31.449 21.1107 31.5949 21.1107 31.8866C21.1107 32.9365 20.2595 33.7877 19.2096 33.7877H16.1445V34.3535C16.1445 34.4091 16.1554 34.4641 16.1767 34.5154C16.1979 34.5667 16.2291 34.6133 16.2684 34.6526C16.3077 34.6919 16.3543 34.723 16.4056 34.7443C16.4569 34.7655 16.5119 34.7764 16.5675 34.7764H21.1868C22.173 34.7764 22.9837 34.0258 23.0789 33.0647L23.0775 33.0634C23.0842 33.0009 23.0877 32.9381 23.0881 32.8753V32.0853L22.7966 31.7937C22.2391 31.2362 22.2391 30.3294 22.7966 29.7718L25.4788 27.0896Z" fill="#858494"/>
</svg>
