<svg width="32" height="38" viewBox="0 0 32 38" fill="none" xmlns="http://www.w3.org/2000/svg">
<g clip-path="url(#clip0_23_3839)">
<path d="M8.49152 19.3182C8.5041 19.3319 8.51931 19.343 8.53626 19.3507C8.5532 19.3585 8.57153 19.3627 8.59014 19.3632C8.91114 19.3632 8.97265 19.3512 9.3634 18.8986C9.50106 18.7403 9.67419 18.6168 9.86865 18.5382C10.0631 18.4595 10.2734 18.4279 10.4824 18.446L10.8814 18.4835C10.8901 18.2804 10.9491 18.0828 11.0532 17.9082C11.1573 17.7337 11.3031 17.5878 11.4776 17.4837H9.5569L8.5039 18.656C8.41724 18.7437 8.36762 18.8613 8.36532 18.9846C8.36301 19.1079 8.4082 19.2273 8.49152 19.3182Z" fill="#AAAAAA"/>
<path d="M25.1136 17.4832H20.35C20.3462 18.8647 19.9757 20.0756 18.7338 20.1862H12.1101C11.8463 20.1867 11.5894 20.102 11.3775 19.9449C11.1656 19.7878 11.01 19.5665 10.9338 19.314C10.6637 19.3076 10.1762 19.1628 9.9835 19.4377C9.48025 20.1026 8.65225 20.4866 7.94313 19.9308C7.69806 19.6942 7.55526 19.371 7.54524 19.0305C7.53522 18.69 7.65877 18.359 7.8895 18.1083L8.45312 17.4832H7.17813L5.5 21.3461H26.5L25.1136 17.4832Z" fill="#AAAAAA"/>
<path d="M9.8031 16.6609H15.2084C15.2624 16.6607 15.316 16.6712 15.366 16.6918C15.416 16.7124 15.4614 16.7427 15.4997 16.7809C15.5379 16.8192 15.5682 16.8646 15.5888 16.9146C15.6094 16.9646 15.6199 17.0182 15.6197 17.0722C15.6205 17.3272 15.3869 17.487 15.1716 17.5575L12.0366 18.1376C11.9435 18.1537 11.859 18.2021 11.7981 18.2743C11.7372 18.3466 11.7037 18.438 11.7036 18.5325V18.9727C11.7073 19.0781 11.7519 19.1778 11.828 19.2507C11.904 19.3237 12.0055 19.3641 12.1109 19.3635H18.7341C18.8305 19.3648 18.924 19.3311 18.9974 19.2686C19.6555 18.6495 19.5752 17.4416 19.4294 16.5742C19.4174 16.5112 19.3911 16.4518 19.3527 16.4004C19.3142 16.3491 19.2645 16.3072 19.2074 16.278C18.5523 15.9603 17.8744 15.6922 17.1794 15.4759C16.3517 15.2214 15.513 15.0046 14.6657 14.826C14.3646 14.7631 14.0985 14.5882 13.9214 14.3366L12.3006 12.0577C12.2373 11.9688 12.2119 11.8584 12.23 11.7508C12.2481 11.6431 12.3083 11.5471 12.3972 11.4838C12.4861 11.4205 12.5965 11.3951 12.7041 11.4132C12.8118 11.4313 12.9078 11.4915 12.9711 11.5804L14.5919 13.8592C14.6197 13.9007 14.6555 13.9362 14.6971 13.9638C14.7388 13.9913 14.7854 14.0103 14.8345 14.0197C15.2954 14.1184 16.1346 14.3077 17.0601 14.5834L17.455 13.4644L15.571 12.5842C15.4722 12.5364 15.3956 12.4523 15.3572 12.3495L13.7237 7.812C13.2986 7.57159 12.8978 7.29066 12.5267 6.97312C12.2646 6.7509 12.0298 6.49824 11.8274 6.22049C11.2517 6.32737 10.4534 6.59062 10.0667 7.26112C9.7626 7.79175 8.8821 11.6257 8.98485 14.6902C9.0056 15.4255 9.29711 16.1273 9.80348 16.6609H9.8031ZM15.8665 3.87149C15.8658 3.54877 15.7373 3.23947 15.5091 3.01127C15.2809 2.78307 14.9716 2.65456 14.6489 2.65387H13.4642C13.1413 2.65387 12.8316 2.78215 12.6032 3.0105C12.3749 3.23885 12.2466 3.54856 12.2466 3.87149V4.65299H15.8665V3.87149ZM14.2255 7.15012C15.016 7.38862 15.4326 6.21787 15.7311 5.47574H12.3374C12.625 6.10949 13.5752 6.80024 14.2255 7.15012Z" fill="#AAAAAA"/>
<path d="M18.9358 14.3119C18.7667 14.0561 18.5036 13.8773 18.2035 13.8143L17.8457 14.8305C18.2571 14.97 18.6685 15.1264 19.051 15.2993C19.1159 14.9662 19.0757 14.6211 18.9358 14.3119Z" fill="#AAAAAA"/>
</g>
<path d="M5.39425 28.096C5.39425 28.3787 5.32758 28.6453 5.19425 28.896C5.06092 29.1467 4.84758 29.352 4.55425 29.512C4.26092 29.6667 3.88492 29.744 3.42625 29.744H2.41825V32H1.50625V26.44H3.42625C3.85292 26.44 4.21292 26.5147 4.50625 26.664C4.80492 26.808 5.02625 27.0053 5.17025 27.256C5.31958 27.5067 5.39425 27.7867 5.39425 28.096ZM3.42625 29C3.77292 29 4.03158 28.9227 4.20225 28.768C4.37292 28.608 4.45825 28.384 4.45825 28.096C4.45825 27.488 4.11425 27.184 3.42625 27.184H2.41825V29H3.42625ZM7.17606 28.232C7.3094 28.008 7.4854 27.8347 7.70406 27.712C7.92806 27.584 8.19206 27.52 8.49606 27.52V28.464H8.26406C7.90673 28.464 7.63473 28.5547 7.44806 28.736C7.26673 28.9173 7.17606 29.232 7.17606 29.68V32H6.26406V27.592H7.17606V28.232ZM9.03038 29.776C9.03038 29.3333 9.12104 28.9413 9.30238 28.6C9.48904 28.2587 9.73971 27.9947 10.0544 27.808C10.3744 27.616 10.7264 27.52 11.1104 27.52C11.457 27.52 11.7584 27.5893 12.0144 27.728C12.2757 27.8613 12.4837 28.0293 12.6384 28.232V27.592H13.5584V32H12.6384V31.344C12.4837 31.552 12.273 31.7253 12.0064 31.864C11.7397 32.0027 11.4357 32.072 11.0944 32.072C10.7157 32.072 10.369 31.976 10.0544 31.784C9.73971 31.5867 9.48904 31.3147 9.30238 30.968C9.12104 30.616 9.03038 30.2187 9.03038 29.776ZM12.6384 29.792C12.6384 29.488 12.5744 29.224 12.4464 29C12.3237 28.776 12.161 28.6053 11.9584 28.488C11.7557 28.3707 11.537 28.312 11.3024 28.312C11.0677 28.312 10.849 28.3707 10.6464 28.488C10.4437 28.6 10.2784 28.768 10.1504 28.992C10.0277 29.2107 9.96638 29.472 9.96638 29.776C9.96638 30.08 10.0277 30.3467 10.1504 30.576C10.2784 30.8053 10.4437 30.9813 10.6464 31.104C10.8544 31.2213 11.073 31.28 11.3024 31.28C11.537 31.28 11.7557 31.2213 11.9584 31.104C12.161 30.9867 12.3237 30.816 12.4464 30.592C12.5744 30.3627 12.6384 30.096 12.6384 29.792ZM18.7243 27.592L16.0203 34.072H15.0763L15.9723 31.928L14.2363 27.592H15.2523L16.4923 30.952L17.7803 27.592H18.7243ZM23.4525 29.688C23.4525 29.8533 23.4418 30.0027 23.4205 30.136H20.0525C20.0792 30.488 20.2098 30.7707 20.4445 30.984C20.6792 31.1973 20.9672 31.304 21.3085 31.304C21.7992 31.304 22.1458 31.0987 22.3485 30.688H23.3325C23.1992 31.0933 22.9565 31.4267 22.6045 31.688C22.2578 31.944 21.8258 32.072 21.3085 32.072C20.8872 32.072 20.5085 31.9787 20.1725 31.792C19.8418 31.6 19.5805 31.3333 19.3885 30.992C19.2018 30.6453 19.1085 30.2453 19.1085 29.792C19.1085 29.3387 19.1992 28.9413 19.3805 28.6C19.5672 28.2533 19.8258 27.9867 20.1565 27.8C20.4925 27.6133 20.8765 27.52 21.3085 27.52C21.7245 27.52 22.0952 27.6107 22.4205 27.792C22.7458 27.9733 22.9992 28.2293 23.1805 28.56C23.3618 28.8853 23.4525 29.2613 23.4525 29.688ZM22.5005 29.4C22.4952 29.064 22.3752 28.7947 22.1405 28.592C21.9058 28.3893 21.6152 28.288 21.2685 28.288C20.9538 28.288 20.6845 28.3893 20.4605 28.592C20.2365 28.7893 20.1032 29.0587 20.0605 29.4H22.5005ZM25.262 28.232C25.3953 28.008 25.5713 27.8347 25.79 27.712C26.014 27.584 26.278 27.52 26.582 27.52V28.464H26.35C25.9927 28.464 25.7207 28.5547 25.534 28.736C25.3527 28.9173 25.262 29.232 25.262 29.68V32H24.35V27.592H25.262V28.232ZM29.0203 32.072C28.6736 32.072 28.3616 32.0107 28.0843 31.888C27.8123 31.76 27.5963 31.5893 27.4363 31.376C27.2763 31.1573 27.191 30.9147 27.1803 30.648H28.1243C28.1403 30.8347 28.2283 30.992 28.3883 31.12C28.5536 31.2427 28.759 31.304 29.0043 31.304C29.2603 31.304 29.4576 31.256 29.5963 31.16C29.7403 31.0587 29.8123 30.9307 29.8123 30.776C29.8123 30.6107 29.7323 30.488 29.5723 30.408C29.4176 30.328 29.1696 30.24 28.8283 30.144C28.4976 30.0533 28.2283 29.9653 28.0203 29.88C27.8123 29.7947 27.631 29.664 27.4763 29.488C27.327 29.312 27.2523 29.08 27.2523 28.792C27.2523 28.5573 27.3216 28.344 27.4603 28.152C27.599 27.9547 27.7963 27.8 28.0523 27.688C28.3136 27.576 28.6123 27.52 28.9483 27.52C29.4496 27.52 29.8523 27.648 30.1563 27.904C30.4656 28.1547 30.631 28.4987 30.6523 28.936H29.7403C29.7243 28.7387 29.6443 28.5813 29.5003 28.464C29.3563 28.3467 29.1616 28.288 28.9163 28.288C28.6763 28.288 28.4923 28.3333 28.3643 28.424C28.2363 28.5147 28.1723 28.6347 28.1723 28.784C28.1723 28.9013 28.215 29 28.3003 29.08C28.3856 29.16 28.4896 29.224 28.6123 29.272C28.735 29.3147 28.9163 29.3707 29.1563 29.44C29.4763 29.5253 29.7376 29.6133 29.9403 29.704C30.1483 29.7893 30.327 29.9173 30.4763 30.088C30.6256 30.2587 30.703 30.4853 30.7083 30.768C30.7083 31.0187 30.639 31.2427 30.5003 31.44C30.3616 31.6373 30.1643 31.792 29.9083 31.904C29.6576 32.016 29.3616 32.072 29.0203 32.072Z" fill="#AAAAAA"/>
<defs>
<clipPath id="clip0_23_3839">
<rect width="24" height="24" fill="white" transform="translate(4)"/>
</clipPath>
</defs>
</svg>
