<svg width="24" height="24" viewBox="0 0 24 24" fill="none" xmlns="http://www.w3.org/2000/svg">
<g clip-path="url(#clip0_23_4616)">
<path d="M12.1397 3.83848L14.2269 7.26823C14.3042 7.39573 14.1797 7.54948 14.0364 7.50223L12.0002 6.83323L9.96466 7.50223C9.82141 7.54948 9.69691 7.39573 9.77416 7.26823L11.8614 3.83848C11.8761 3.81475 11.8965 3.79516 11.9209 3.78158C11.9452 3.768 11.9727 3.76086 12.0005 3.76086C12.0284 3.76086 12.0558 3.768 12.0802 3.78158C12.1045 3.79516 12.125 3.81475 12.1397 3.83848Z" fill="#AAAAAA"/>
<path d="M12 0.75C5.79675 0.75 0.75 5.79675 0.75 12C0.75 18.2033 5.79675 23.25 12 23.25C18.2033 23.25 23.25 18.2033 23.25 12C23.25 5.79675 18.2033 0.75 12 0.75ZM18.0705 4.869L17.8447 5.09475C17.7751 5.16438 17.7199 5.24705 17.6822 5.33803C17.6445 5.42901 17.6251 5.52652 17.6251 5.625C17.6251 5.72348 17.6445 5.82099 17.6822 5.91197C17.7199 6.00295 17.7751 6.08562 17.8447 6.15525C17.9144 6.22488 17.9971 6.28012 18.088 6.31781C18.179 6.35549 18.2765 6.37489 18.375 6.37489C18.4735 6.37489 18.571 6.35549 18.662 6.31781C18.7529 6.28012 18.8356 6.22488 18.9053 6.15525L19.131 5.9295C20.4093 7.42578 21.1814 9.28816 21.3368 11.25H20.25C20.0511 11.25 19.8603 11.329 19.7197 11.4697C19.579 11.6103 19.5 11.8011 19.5 12C19.5 12.1989 19.579 12.3897 19.7197 12.5303C19.8603 12.671 20.0511 12.75 20.25 12.75H21.3368C21.1811 14.7118 20.409 16.574 19.131 18.0705L18.9053 17.8447C18.8356 17.7751 18.7529 17.7199 18.662 17.6822C18.571 17.6445 18.4735 17.6251 18.375 17.6251C18.2765 17.6251 18.179 17.6445 18.088 17.6822C17.9971 17.7199 17.9144 17.7751 17.8447 17.8447C17.7751 17.9144 17.7199 17.9971 17.6822 18.088C17.6445 18.179 17.6251 18.2765 17.6251 18.375C17.6251 18.4735 17.6445 18.571 17.6822 18.662C17.7199 18.7529 17.7751 18.8356 17.8447 18.9053L18.0705 19.131C16.5742 20.4093 14.7118 21.1814 12.75 21.3368V20.25C12.75 20.0511 12.671 19.8603 12.5303 19.7197C12.3897 19.579 12.1989 19.5 12 19.5C11.8011 19.5 11.6103 19.579 11.4697 19.7197C11.329 19.8603 11.25 20.0511 11.25 20.25V21.3368C9.28825 21.1811 7.42597 20.409 5.9295 19.131L6.15525 18.9053C6.22488 18.8356 6.28012 18.7529 6.31781 18.662C6.35549 18.571 6.37489 18.4735 6.37489 18.375C6.37489 18.2765 6.35549 18.179 6.31781 18.088C6.28012 17.9971 6.22488 17.9144 6.15525 17.8447C6.08562 17.7751 6.00295 17.7199 5.91197 17.6822C5.82099 17.6445 5.72348 17.6251 5.625 17.6251C5.52652 17.6251 5.42901 17.6445 5.33803 17.6822C5.24705 17.7199 5.16438 17.7751 5.09475 17.8447L4.869 18.0705C3.59069 16.5742 2.81859 14.7118 2.66325 12.75H3.75C3.94891 12.75 4.13968 12.671 4.28033 12.5303C4.42098 12.3897 4.5 12.1989 4.5 12C4.5 11.8011 4.42098 11.6103 4.28033 11.4697C4.13968 11.329 3.94891 11.25 3.75 11.25H2.66325C2.81894 9.28825 3.591 7.42597 4.869 5.9295L5.09475 6.15525C5.16438 6.22488 5.24705 6.28012 5.33803 6.31781C5.42901 6.35549 5.52652 6.37489 5.625 6.37489C5.72348 6.37489 5.82099 6.35549 5.91197 6.31781C6.00295 6.28012 6.08562 6.22488 6.15525 6.15525C6.22488 6.08562 6.28012 6.00295 6.31781 5.91197C6.35549 5.82099 6.37489 5.72348 6.37489 5.625C6.37489 5.52652 6.35549 5.42901 6.31781 5.33803C6.28012 5.24705 6.22488 5.16438 6.15525 5.09475L5.9295 4.869C7.56675 3.47325 9.68475 2.625 12 2.625C14.3153 2.625 16.4332 3.47325 18.0705 4.869Z" fill="#AAAAAA"/>
<path d="M11.9678 11.3775L8.415 9.897C8.39976 9.89084 8.38669 9.88027 8.3775 9.86664C8.3683 9.85301 8.36339 9.83694 8.36339 9.8205C8.36339 9.80406 8.3683 9.78799 8.3775 9.77436C8.38669 9.76073 8.39976 9.75016 8.415 9.744L12 8.25L15.5888 9.7455C15.657 9.774 15.6525 9.8685 15.5843 9.897L12.0315 11.3775C12.011 11.3857 11.9882 11.3857 11.9678 11.3775ZM16.3853 10.782C16.3979 10.7768 16.4116 10.7748 16.4252 10.7762C16.4389 10.7776 16.4519 10.7824 16.4632 10.79C16.4746 10.7976 16.4839 10.8079 16.4903 10.82C16.4967 10.8321 16.5 10.8456 16.5 10.8593V15.3203C16.5001 15.3366 16.4952 15.3526 16.4861 15.3663C16.4771 15.3799 16.4641 15.3905 16.449 15.3967L15.1148 15.9525C15.1021 15.9577 15.0884 15.9597 15.0748 15.9583C15.0612 15.9569 15.0481 15.9521 15.0368 15.9445C15.0254 15.9369 15.0161 15.9266 15.0097 15.9145C15.0033 15.9024 15 15.8889 15 15.8752V13.785C15.0001 13.7714 14.9969 13.7581 14.9906 13.7461C14.9843 13.7341 14.9752 13.7238 14.964 13.7162C14.9528 13.7085 14.9399 13.7038 14.9264 13.7023C14.913 13.7008 14.8993 13.7027 14.8868 13.7078L13.5525 14.229C13.537 14.2353 13.5237 14.2461 13.5143 14.26C13.505 14.2739 13.5 14.2902 13.5 14.307V16.5697C13.5001 16.5861 13.4952 16.6021 13.4861 16.6158C13.4771 16.6294 13.4641 16.64 13.449 16.6462L12.5625 17.0153V12.4297C12.5625 12.4134 12.5673 12.3974 12.5764 12.3837C12.5854 12.3701 12.5984 12.3595 12.6135 12.3533L16.3853 10.782ZM11.4375 12.4305V16.8915C11.4376 16.9052 11.4343 16.9187 11.4279 16.9307C11.4215 16.9428 11.4121 16.9531 11.4008 16.9607C11.3894 16.9683 11.3763 16.9729 11.3627 16.9742C11.3491 16.9755 11.3353 16.9733 11.3228 16.968L7.551 15.3967C7.53593 15.3902 7.52308 15.3794 7.51402 15.3657C7.50497 15.352 7.5001 15.3359 7.5 15.3195V10.8585C7.49991 10.8448 7.50322 10.8313 7.50963 10.8193C7.51604 10.8072 7.52536 10.7969 7.53674 10.7893C7.54812 10.7817 7.56121 10.7771 7.57482 10.7758C7.58844 10.7745 7.60216 10.7767 7.61475 10.782L11.3865 12.3533C11.4016 12.3598 11.4144 12.3706 11.4235 12.3843C11.4325 12.398 11.4374 12.4141 11.4375 12.4305Z" fill="#AAAAAA"/>
</g>
<defs>
<clipPath id="clip0_23_4616">
<rect width="24" height="24" fill="white"/>
</clipPath>
</defs>
</svg>
