<?xml version="1.0" encoding="UTF-8"?>
<svg version="1.1" xmlns="http://www.w3.org/2000/svg" width="64" height="64">
<path d="M0 0 C4.21253134 2.00905341 7.29317661 4.79083438 10.40625 8.28125 C10.90125 8.77625 10.90125 8.77625 11.40625 9.28125 C11.47881716 12.90960804 11.4022734 16.52779928 11.34375 20.15625 C11.04260467 23.1485467 11.04260467 23.1485467 12.40625 24.28125 C12.65625 27.71875 12.65625 27.71875 12.40625 31.28125 C9.40625 33.28125 9.40625 33.28125 6.40625 33.28125 C6.90125 37.24125 6.90125 37.24125 7.40625 41.28125 C5.21875 42.46875 5.21875 42.46875 2.40625 43.28125 C-0.40625 41.90625 -0.40625 41.90625 -2.59375 40.28125 C-2.26375 41.27125 -1.93375 42.26125 -1.59375 43.28125 C-0.83449219 43.39082031 -0.07523438 43.50039063 0.70703125 43.61328125 C1.70089844 43.77183594 2.69476563 43.93039063 3.71875 44.09375 C4.70488281 44.24457031 5.69101562 44.39539062 6.70703125 44.55078125 C9.61014119 45.3364275 10.66936816 45.86520283 12.40625 48.28125 C13.13671875 50.33203125 13.13671875 50.33203125 13.59375 52.59375 C13.75230469 53.33238281 13.91085938 54.07101563 14.07421875 54.83203125 C14.40625 57.28125 14.40625 57.28125 14.40625 63.28125 C0.54625 63.28125 -13.31375 63.28125 -27.59375 63.28125 C-26.42473592 49.25308099 -26.42473592 49.25308099 -22.59375 43.28125 C-21.10875 42.78625 -21.10875 42.78625 -19.59375 42.28125 C-19.59375 42.94125 -19.59375 43.60125 -19.59375 44.28125 C-16.62375 44.28125 -13.65375 44.28125 -10.59375 44.28125 C-10.59375 42.96125 -10.59375 41.64125 -10.59375 40.28125 C-11.521875 40.19875 -12.45 40.11625 -13.40625 40.03125 C-16.59375 39.28125 -16.59375 39.28125 -18.46875 37.34375 C-19.59375 35.28125 -19.59375 35.28125 -19.59375 33.28125 C-20.398125 33.136875 -21.2025 32.9925 -22.03125 32.84375 C-24.59375 32.28125 -24.59375 32.28125 -25.59375 31.28125 C-25.82860228 25.05766462 -25.82860228 25.05766462 -25.0703125 22.55078125 C-24.22046459 18.50355471 -24.71597701 14.24043582 -24.984375 10.125 C-25.046875 8.03125 -25.046875 8.03125 -24.59375 4.28125 C-18.24562729 -2.1913457 -8.45944568 -2.34418374 0 0 Z " fill="#F2A18C" transform="translate(38.59375,0.71875)"/>
<path d="M0 0 C0.66 0 1.32 0 2 0 C2 0.66 2 1.32 2 2 C3.98 2 5.96 2 8 2 C8.33 2.99 8.66 3.98 9 5 C11.89730041 7.38312904 11.89730041 7.38312904 15.5625 6.6875 C18.84286044 6.18820203 18.84286044 6.18820203 21 5 C21.33 4.01 21.66 3.02 22 2 C23.43861294 2.08746284 24.87597508 2.19565348 26.3125 2.3125 C27.11300781 2.37050781 27.91351563 2.42851563 28.73828125 2.48828125 C31.45270916 3.10242642 32.35160021 3.77868077 34 6 C34.73046875 8.05078125 34.73046875 8.05078125 35.1875 10.3125 C35.34605469 11.05113281 35.50460938 11.78976563 35.66796875 12.55078125 C36 15 36 15 36 21 C22.14 21 8.28 21 -6 21 C-4.63636364 4.63636364 -4.63636364 4.63636364 0 0 Z " fill="#ED5F60" transform="translate(17,43)"/>
<path d="M0 0 C4.21253134 2.00905341 7.29317661 4.79083438 10.40625 8.28125 C10.90125 8.77625 10.90125 8.77625 11.40625 9.28125 C11.50533783 11.07065972 11.53595379 12.86410508 11.53125 14.65625 C11.53511719 16.12191406 11.53511719 16.12191406 11.5390625 17.6171875 C11.40625 20.28125 11.40625 20.28125 10.40625 23.28125 C9.08625 23.28125 7.76625 23.28125 6.40625 23.28125 C5.74625 20.31125 5.08625 17.34125 4.40625 14.28125 C3.43558594 14.60867188 2.46492188 14.93609375 1.46484375 15.2734375 C-2.8948426 16.51906217 -7.02750972 16.5065904 -11.53125 16.40625 C-12.31048828 16.39722656 -13.08972656 16.38820313 -13.89257812 16.37890625 C-15.79310447 16.35558691 -17.69347008 16.31972586 -19.59375 16.28125 C-19.59375 18.26125 -19.59375 20.24125 -19.59375 22.28125 C-20.91375 22.28125 -22.23375 22.28125 -23.59375 22.28125 C-25.15964427 19.14946146 -24.90185447 15.84224754 -24.96875 12.40625 C-25.00613281 11.68566406 -25.04351562 10.96507812 -25.08203125 10.22265625 C-25.1171875 8.1015625 -25.1171875 8.1015625 -24.59375 4.28125 C-18.2454038 -2.19116811 -8.46012608 -2.34437229 0 0 Z " fill="#695F69" transform="translate(38.59375,0.71875)"/>
<path d="M0 0 C8.6829883 0.54859839 12.9179166 2.58002308 19 9 C19.33 9.33 19.66 9.66 20 10 C20.09879565 11.810285 20.12971514 13.62452727 20.125 15.4375 C20.12886719 16.92056641 20.12886719 16.92056641 20.1328125 18.43359375 C20 21 20 21 19 23 C18.01 23 17.02 23 16 23 C16.08121094 22.3709375 16.16242187 21.741875 16.24609375 21.09375 C16.63690631 15.79784105 16.34838192 12.67238873 12.8125 8.5625 C10.10769866 5.85224543 7.46515994 3.68575348 4 2 C2.66618111 1.33430533 1.33277169 0.66778876 0 0 Z " fill="#575058" transform="translate(30,0)"/>
<path d="M0 0 C1.99954746 -0.04254356 4.00041636 -0.04080783 6 0 C7 1 7 1 7.0625 4.5625 C7.041875 5.696875 7.02125 6.83125 7 8 C5.03533587 9.06775224 3.03144641 10.06553465 1 11 C0.34 10.67 -0.32 10.34 -1 10 C-0.67 6.7 -0.34 3.4 0 0 Z " fill="#FEA58D" transform="translate(44,24)"/>
<path d="M0 0 C5.50436855 0.61159651 5.50436855 0.61159651 7.625 2.2734375 C11.14963581 6.6992586 11.27840953 13.57101409 11 19 C10.01 19 9.02 19 8 19 C7.76216797 17.57107422 7.76216797 17.57107422 7.51953125 16.11328125 C7.28621094 14.85902344 7.05289063 13.60476562 6.8125 12.3125 C6.59207031 11.07113281 6.37164062 9.82976563 6.14453125 8.55078125 C4.84402863 4.51611614 3.18541082 2.72662825 0 0 Z " fill="#E74053" transform="translate(42,45)"/>
<path d="M0 0 C1.32 0.33 2.64 0.66 4 1 C4.33 3.31 4.66 5.62 5 8 C3.35 8.66 1.7 9.32 0 10 C-0.99 9.01 -1.98 8.02 -3 7 C-2.01 4.69 -1.02 2.38 0 0 Z " fill="#65DBF7" transform="translate(41,34)"/>
<path d="M0 0 C0.66 0 1.32 0 2 0 C3.83691257 3.78187881 4.15837626 5.94568308 3 10 C1.35 9.67 -0.3 9.34 -2 9 C-2.6875 6.75 -2.6875 6.75 -3 4 C-1.6875 1.6875 -1.6875 1.6875 0 0 Z " fill="#68D5F4" transform="translate(17,43)"/>
<path d="M0 0 C3 1 3 1 4 3 C3.91061582 5.88912732 3.765952 8.74393255 3.5625 11.625 C3.51029297 12.42679688 3.45808594 13.22859375 3.40429688 14.0546875 C3.27451629 16.03679103 3.13790265 18.01844499 3 20 C2.34 19.67 1.68 19.34 1 19 C0.67 12.73 0.34 6.46 0 0 Z " fill="#EF927F" transform="translate(41,14)"/>
<path d="M0 0 C0.99 0.33 1.98 0.66 3 1 C3.38133299 2.9914056 3.71325582 4.99279077 4 7 C3 8 3 8 0.4375 8.0625 C-0.366875 8.041875 -1.17125 8.02125 -2 8 C-2.6875 6.25 -2.6875 6.25 -3 4 C-1.5625 1.75 -1.5625 1.75 0 0 Z " fill="#62D3F2" transform="translate(21,9)"/>
</svg>
